<?xml version="1.0" encoding="utf-8"?>
<!-- Generator: Adobe Illustrator 16.0.0, SVG Export Plug-In . SVG Version: 6.00 Build 0)  -->
<!DOCTYPE svg PUBLIC "-//W3C//DTD SVG 1.1//EN" "http://www.w3.org/Graphics/SVG/1.1/DTD/svg11.dtd">
<svg version="1.1" id="Layer_1" xmlns="http://www.w3.org/2000/svg" xmlns:xlink="http://www.w3.org/1999/xlink" x="0px" y="0px"
	 width="87px" height="112px" viewBox="0 0 87 112" enable-background="new 0 0 87 112" xml:space="preserve">
<g>
	<g id="Layer_1_21_">
		<path fill="#85955B" d="M86.223,103.884L70.141,74.602c4.562-0.72,7.921-4.801,7.921-9.361V22.037
			c0-11.521-9.36-20.881-20.881-20.881H29.819c-11.521,0-21.122,9.36-21.122,21.121V65.24c0,4.8,3.36,8.642,7.921,9.361
			L0.777,103.884c-1.2,2.4-0.48,5.28,1.92,6.479c0.72,0.48,1.44,0.48,2.16,0.48c1.68,0,3.36-0.96,4.081-2.4l1.44-2.399h66.245
			l1.439,2.399c0.961,1.68,2.4,2.4,4.082,2.4c0.718,0,1.438-0.24,2.159-0.48C86.703,109.164,87.421,106.284,86.223,103.884z
			 M63.661,82.282H23.338l4.08-7.442H59.58L63.661,82.282z M62.94,66.201c-3.84,0-6.96-3.121-6.96-6.963
			c0-3.839,3.12-6.959,6.96-6.959c3.842,0,6.961,3.121,6.961,6.959C69.901,62.84,66.782,66.201,62.94,66.201z M17.098,24.918
			c0-7.44,6-13.441,13.201-13.441H56.46c7.201,0,13.441,6,13.441,13.441v11.52c0,2.642-2.161,4.562-4.801,4.562H21.898
			c-2.64,0-4.561-2.16-4.561-4.562L17.098,24.918L17.098,24.918z M24.059,52.04c3.84,0,6.96,3.12,6.96,6.961
			c0,3.839-3.12,6.96-6.96,6.96s-6.961-3.121-6.961-6.96C17.098,55.159,20.218,52.04,24.059,52.04z M14.218,98.844l5.28-9.361H67.5
			l5.281,9.361H14.218z"/>
	</g>
</g>
</svg>
