<?xml version="1.0" encoding="utf-8"?>
<!-- Generator: Adobe Illustrator 16.0.0, SVG Export Plug-In . SVG Version: 6.00 Build 0)  -->
<!DOCTYPE svg PUBLIC "-//W3C//DTD SVG 1.1//EN" "http://www.w3.org/Graphics/SVG/1.1/DTD/svg11.dtd">
<svg version="1.1" id="Layer_1" xmlns="http://www.w3.org/2000/svg" xmlns:xlink="http://www.w3.org/1999/xlink" x="0px" y="0px"
	 width="167px" height="130px" viewBox="0 0 167 130" enable-background="new 0 0 167 130" xml:space="preserve">
<g>
	<path fill="#FFFFFF" d="M145.705,1.126H20.487C9.743,1.126,1,9.523,1,19.842v87.277c0,10.32,8.743,18.716,19.487,18.716h125.218
		c10.747,0,19.49-8.396,19.49-18.716V19.842C165.195,9.523,156.452,1.126,145.705,1.126L145.705,1.126z M145.705,109.313H20.487
		c-1.578,0-2.964-1.025-2.964-2.194V31.383l56.632,47.812c1.162,0.98,2.637,1.521,4.159,1.521l9.566,0.002
		c1.519,0,2.995-0.542,4.158-1.522l56.634-47.813v75.74C148.67,108.288,147.286,109.313,145.705,109.313L145.705,109.313z
		 M83.098,64.31L28.016,17.65H138.18L83.098,64.31z M83.098,64.31"/>
</g>
</svg>
