<?xml version="1.0" encoding="utf-8"?>
<!-- Generator: Adobe Illustrator 16.0.0, SVG Export Plug-In . SVG Version: 6.00 Build 0)  -->
<!DOCTYPE svg PUBLIC "-//W3C//DTD SVG 1.1//EN" "http://www.w3.org/Graphics/SVG/1.1/DTD/svg11.dtd">
<svg version="1.1" id="Layer_1" xmlns="http://www.w3.org/2000/svg" xmlns:xlink="http://www.w3.org/1999/xlink" x="0px" y="0px"
	 width="47.04px" height="47.04px" viewBox="0 0 47.04 47.04" enable-background="new 0 0 47.04 47.04" xml:space="preserve">
<path opacity="0.3" fill-rule="evenodd" clip-rule="evenodd" fill="#FFFFFF" d="M23.52,0c12.99,0,23.52,10.53,23.52,23.52
	c0,12.99-10.53,23.521-23.52,23.521C10.531,47.04,0,36.51,0,23.52C0,10.53,10.531,0,23.52,0z"/>
<path fill-rule="evenodd" clip-rule="evenodd" fill="#FFFFFF" d="M23.52,6.72c9.146,0,16.56,7.414,16.56,16.561
	c0,9.146-7.414,16.56-16.56,16.56c-9.146,0-16.56-7.414-16.56-16.56C6.96,14.134,14.375,6.72,23.52,6.72z"/>
<path fill="#CA2F33" d="M23.76,27.378c1.613,0,2.925-1.346,2.925-3V17.64c0-1.654-1.312-3-2.925-3s-2.925,1.346-2.925,3v6.739
	C20.835,26.032,22.147,27.378,23.76,27.378z"/>
<path fill="#CA2F33" d="M28.461,22.585h-0.583c-0.187,0-0.339,0.155-0.339,0.348v1.222c0,2.138-1.696,3.877-3.78,3.877
	c-2.084,0-3.78-1.739-3.78-3.877v-1.222c0-0.192-0.152-0.348-0.339-0.348h-0.583c-0.187,0-0.339,0.155-0.339,0.348v1.222
	c0,2.556,1.937,4.809,4.41,5.128v0.865h-2.601c-0.187,0-0.339,0.156-0.339,0.348v0.598c0,0.191,0.152,0.348,0.339,0.348h6.462
	c0.187,0,0.339-0.156,0.339-0.348v-0.598c0-0.191-0.152-0.348-0.339-0.348H24.39v-0.865c2.473-0.319,4.41-2.572,4.41-5.128v-1.222
	C28.8,22.74,28.648,22.585,28.461,22.585z"/>
</svg>
