<?xml version="1.0" encoding="utf-8"?>
<!-- Generator: Adobe Illustrator 16.0.0, SVG Export Plug-In . SVG Version: 6.00 Build 0)  -->
<!DOCTYPE svg PUBLIC "-//W3C//DTD SVG 1.1//EN" "http://www.w3.org/Graphics/SVG/1.1/DTD/svg11.dtd">
<svg version="1.1" id="Layer_1" xmlns="http://www.w3.org/2000/svg" xmlns:xlink="http://www.w3.org/1999/xlink" x="0px" y="0px"
	 width="400px" height="400px" viewBox="0 0 400 400" enable-background="new 0 0 400 400" xml:space="preserve">
<g id="_x35_">
	<g id="rail-icon-2svg">
		<g id="circle-1_3_" opacity="0.8">
			<g>
				<circle fill="#FFFFFF" cx="201.2" cy="198.915" r="197.8"/>
			</g>
		</g>
	</g>
	
		<linearGradient id="circle-1_1_" gradientUnits="userSpaceOnUse" x1="234.9668" y1="1218.6602" x2="234.9668" y2="1584.6797" gradientTransform="matrix(1 0 0 -1 -32.5 1600)">
		<stop  offset="0" style="stop-color:#C1221D"/>
		<stop  offset="0.9309" style="stop-color:#CE2525;stop-opacity:0.9"/>
	</linearGradient>
	<circle id="circle-1_2_" fill="url(#circle-1_1_)" cx="202.467" cy="198.33" r="183.01"/>
	<g>
		<g>
			<path fill="#FCFCFC" d="M279.571,200.136c-0.895,4.49-4.873,7.76-9.647,7.962c-1.504,0.061-2.784,1.157-3.067,2.641
				c-0.307,1.482,0.446,2.988,1.807,3.616c4.327,2.029,6.745,6.58,5.83,11.07l-0.854,4.266c-1.115,5.625-7.33,9.141-12.775,7.797
				c-1.521-0.362-3.087-0.648-4.63-0.954c-2.275-0.445-4.553-0.914-6.824-1.361c-3.007-0.607-6.013-1.198-9.021-1.806
				c-3.574-0.712-7.17-1.444-10.743-2.152c-4.002-0.813-8.004-1.605-12.002-2.417c-4.268-0.854-8.553-1.707-12.819-2.579
				c-4.387-0.876-8.774-1.768-13.143-2.641c-4.345-0.876-8.671-1.748-13.019-2.621l-12.43-2.499
				c-3.799-0.751-7.577-1.522-11.375-2.275c-3.29-0.65-6.58-1.319-9.851-1.968c-2.621-0.529-5.241-1.06-7.881-1.585l-5.424-1.097
				c-0.832-0.162-1.665-0.345-2.498-0.508c-0.041,0-0.082-0.02-0.122-0.02c0.449,2.111,0.245,4.368-0.73,6.479
				c-2.052,4.43-6.825,6.746-11.416,5.852c-1.361-0.266-2.843,0.243-3.433,1.502l-1.828,3.963c-0.59,1.258,0,2.721,1.076,3.595
				c0.203,0.162,146.61,67.657,146.851,67.718c1.363,0.263,2.846-0.244,3.435-1.503l1.829-3.962c0.588-1.258,0-2.723-1.078-3.596
				c-3.656-2.904-4.995-8.042-2.944-12.469c2.051-4.43,6.825-6.745,11.416-5.85c1.362,0.263,2.844-0.245,3.431-1.505l1.829-3.96
				c0.59-1.258,0-2.72-1.076-3.594c-3.657-2.906-4.997-8.043-2.946-12.473c2.051-4.427,6.826-6.743,11.418-5.85
				c1.36,0.263,2.842-0.245,3.432-1.504l1.828-3.96c0.588-1.259,0-2.721-1.077-3.596c-3.655-2.904-4.996-8.043-2.946-12.472
				c2.053-4.428,6.825-6.743,11.418-5.85c1.361,0.264,2.842-0.244,3.433-1.504l2.011-4.384c0.59-1.261,0.04-2.743-1.221-3.333
				l-21.874-10.095L279.571,200.136z"/>
			<path fill="#FCFCFC" d="M105.116,198.733c0.243,0.121,158.288,31.828,158.551,31.828c1.382-0.061,2.723-0.914,2.985-2.253
				l0.854-4.267c0.263-1.36-0.63-2.659-1.89-3.249c-4.224-1.991-6.723-6.663-5.77-11.457c0.958-4.792,5.081-8.145,9.752-8.346
				c1.38-0.062,2.721-0.914,2.986-2.255l0.629-3.127l0.224-1.158c0.265-1.36-0.63-2.662-1.889-3.25
				c-4.226-1.99-6.724-6.662-5.77-11.455c0.957-4.795,5.078-8.145,9.752-8.349c1.38-0.061,2.721-0.914,2.983-2.255l0.855-4.266
				c0.263-1.361-0.631-2.662-1.89-3.25c-4.226-1.989-6.724-6.661-5.769-11.455c0.955-4.794,5.077-8.146,9.749-8.348
				c1.382-0.061,2.723-0.914,2.986-2.255l0.955-4.732c0.264-1.361-0.608-2.681-1.968-2.946c0,0-158.819-31.848-158.981-31.848
				c-1.178,0-2.214,0.833-2.458,2.011l-0.953,4.732c-0.264,1.362,0.629,2.661,1.888,3.25c4.224,1.989,6.723,6.663,5.768,11.455
				c-0.955,4.793-5.077,8.144-9.75,8.348c-1.38,0.063-2.722,0.915-2.986,2.255l-0.853,4.265c-0.263,1.361,0.629,2.661,1.888,3.251
				c4.225,1.989,6.723,6.661,5.769,11.455c-0.954,4.795-5.078,8.144-9.75,8.348c-1.381,0.061-2.721,0.915-2.986,2.254l-0.853,4.265
				c-0.264,1.362,0.629,2.663,1.889,3.25c4.225,1.99,6.723,6.662,5.769,11.456c-0.955,4.793-5.078,8.144-9.751,8.348
				c-1.379,0.06-2.721,0.915-2.984,2.254l-0.854,4.266C102.961,196.865,103.855,198.146,105.116,198.733L105.116,198.733z
				 M240.492,146.676c0.549-2.742,3.229-4.529,5.972-3.981c2.741,0.549,4.528,3.229,3.98,5.972l-6.702,33.352l-4.125,20.555
				c-0.485,2.416-2.598,4.083-4.974,4.083c-0.325,0-0.672-0.04-0.997-0.104c-2.741-0.547-4.531-3.226-3.981-5.969l4.611-22.933
				L240.492,146.676z M148.926,128.295c0.55-2.742,3.23-4.53,5.973-3.981c2.742,0.548,4.529,3.229,3.981,5.972l-2.315,11.516
				l-2.619,13.061l-2.114,10.521l-3.757,18.808c-0.488,2.417-2.6,4.083-4.977,4.083c-0.323,0-0.67-0.04-0.995-0.102
				c-0.142-0.02-0.285-0.061-0.406-0.103c-2.521-0.729-4.082-3.27-3.556-5.869l0.752-3.797l1.97-9.83L148.926,128.295z"/>
		</g>
	</g>
	<g>
		<path fill="#D0443F" d="M171.53,169.634l1.124,6.255l-3.458,0.621l-3.101-17.247l6.868-1.235c1.983-0.357,3.633-0.131,4.952,0.676
			c1.319,0.806,2.126,2.035,2.424,3.684c0.296,1.651-0.034,3.08-0.989,4.287c-0.957,1.206-2.426,1.988-4.409,2.345L171.53,169.634z
			 M171.051,166.97l3.412-0.613c0.962-0.173,1.646-0.567,2.049-1.182c0.402-0.614,0.531-1.328,0.385-2.143
			c-0.149-0.829-0.521-1.469-1.11-1.922c-0.592-0.451-1.372-0.591-2.343-0.415l-3.412,0.612L171.051,166.97z"/>
		<path fill="#D0443F" d="M198.938,171.163l-3.446,0.62l-9.084-10.532l-0.068,0.024l2.118,11.773l-3.458,0.622l-3.102-17.246
			l3.459-0.625l9.083,10.522l0.068-0.025l-2.115-11.761l3.446-0.62L198.938,171.163z"/>
		<path fill="#D0443F" d="M204.391,163.065l1.242,6.894l-3.459,0.623l-3.101-17.248l6.503-1.168
			c1.966-0.354,3.583-0.181,4.854,0.515c1.272,0.697,2.051,1.847,2.34,3.45c0.161,0.892,0.064,1.701-0.285,2.424
			c-0.352,0.723-0.941,1.364-1.77,1.921c1.07,0.117,1.893,0.486,2.468,1.108c0.571,0.624,0.951,1.45,1.137,2.485l0.229,1.269
			c0.087,0.481,0.242,0.974,0.468,1.475c0.225,0.501,0.517,0.851,0.879,1.046l0.045,0.25l-3.566,0.641
			c-0.36-0.196-0.642-0.582-0.844-1.156c-0.199-0.577-0.348-1.128-0.445-1.658l-0.218-1.219c-0.155-0.861-0.51-1.487-1.065-1.882
			c-0.555-0.393-1.261-0.514-2.113-0.36L204.391,163.065z M203.913,160.401l2.984-0.537c0.972-0.174,1.659-0.51,2.063-1.007
			c0.405-0.497,0.533-1.148,0.391-1.952c-0.143-0.789-0.496-1.375-1.057-1.755c-0.562-0.38-1.308-0.486-2.241-0.32l-3.043,0.548
			L203.913,160.401z"/>
	</g>
</g>
</svg>
