<?xml version="1.0" encoding="utf-8"?>
<!-- Generator: Adobe Illustrator 16.0.0, SVG Export Plug-In . SVG Version: 6.00 Build 0)  -->
<!DOCTYPE svg PUBLIC "-//W3C//DTD SVG 1.1//EN" "http://www.w3.org/Graphics/SVG/1.1/DTD/svg11.dtd">
<svg version="1.1" id="Layer_1" xmlns="http://www.w3.org/2000/svg" xmlns:xlink="http://www.w3.org/1999/xlink" x="0px" y="0px"
	 width="400px" height="400px" viewBox="0 0 400 400" enable-background="new 0 0 400 400" xml:space="preserve">
<g id="_x34_">
	<g id="rail-icon-2svg_1_">
		<g id="circle-1_5_" opacity="0.8">
			<g>
				<circle fill="#FFFFFF" cx="201.2" cy="198.915" r="197.8"/>
			</g>
		</g>
	</g>
	<g id="rail-icon-4svg">
		<circle id="circle-1_4_" fill="#C32D28" cx="201.234" cy="198.95" r="183.01"/>
		<g id="group-1">
			<path id="path-1_2_" fill="#C32D28" stroke="#D36A67" stroke-width="8" stroke-miterlimit="10" d="M202.775,347.454
				c-80.143,0-145.115-64.97-145.115-145.114c0-80.144,64.971-145.114,145.115-145.114s145.113,64.971,145.113,145.114
				C347.889,282.484,282.919,347.454,202.775,347.454z"/>
			<path id="path-2_2_" fill="#D36A67" d="M175.098,233.063l2.979,0.789l-11.092,41.901l-2.979-0.789L175.098,233.063"/>
			<path id="path-5_2_" fill="#D36A67" d="M321.569,155.428l1.041,2.901l-113.145,40.568l-1.04-2.901L321.569,155.428"/>
			<path id="path-4_2_" fill="#D36A67" d="M103.9,96.385l2.417-1.911l74.56,94.278l-2.417,1.912L103.9,96.385"/>
			<path id="path-3_2_" fill="#F8F8F8" d="M79.844,118.26v-3.481l6.96-6.963V88.668c0-10.793,7.306-19.498,17.397-21.934v-2.436
				c0-2.786,2.436-5.224,5.22-5.224s5.22,2.437,5.22,5.224v2.436c10.092,2.437,17.398,11.141,17.398,21.934v19.148l6.959,6.963
				v3.481H79.844L79.844,118.26z M109.421,128.704c-3.827,0-6.959-3.133-6.959-6.962h13.92
				C116.381,125.571,113.25,128.704,109.421,128.704z"/>
			<path id="path-6_2_" fill="#F8F8F8" d="M189.218,153.969c-24.63,0-44.673,20.043-44.673,44.673
				c0,24.637,20.043,44.676,44.673,44.676c24.636,0,44.675-20.039,44.675-44.676C233.894,174.012,213.853,153.969,189.218,153.969z
				 M214.299,186.238l6.881-2.848c0.949-0.388,2.042,0.059,2.432,1.009c0.39,0.949-0.06,2.037-1.009,2.427l-6.877,2.852l-0.71,0.146
				c-0.729,0-1.422-0.436-1.72-1.154C212.9,187.72,213.35,186.632,214.299,186.238z M198.184,172.136l2.851-6.88
				c0.396-0.949,1.488-1.396,2.431-1.008c0.953,0.391,1.403,1.48,1.009,2.429l-2.852,6.88c-0.295,0.718-0.99,1.15-1.721,1.15
				l-0.711-0.142C198.243,174.176,197.792,173.086,198.184,172.136z M187.357,163.968c0-1.028,0.833-1.862,1.861-1.862
				c1.025,0,1.862,0.835,1.862,1.862v7.445c0,1.023-0.838,1.861-1.862,1.861c-1.027,0-1.861-0.837-1.861-1.861V163.968z
				 M174.976,164.25c0.948-0.392,2.04,0.06,2.43,1.009l2.847,6.876c0.393,0.946-0.059,2.036-1.008,2.43l-0.711,0.143
				c-0.729,0-1.422-0.433-1.72-1.155l-2.847-6.876C173.576,165.729,174.027,164.641,174.976,164.25z M151.782,199.335
				c0-1.028,0.834-1.861,1.861-1.861h7.445c1.024,0,1.861,0.833,1.861,1.861c0,1.024-0.836,1.861-1.861,1.861h-7.445
				C152.616,201.196,151.782,200.359,151.782,199.335z M164.139,211.046l-6.884,2.853l-0.711,0.141c-0.731,0-1.426-0.433-1.72-1.151
				c-0.391-0.952,0.06-2.038,1.009-2.431l6.883-2.852c0.946-0.391,2.041,0.062,2.431,1.009
				C165.535,209.568,165.088,210.656,164.139,211.046z M165.143,188.677c-0.297,0.711-0.994,1.147-1.719,1.147l-0.711-0.145
				l-6.88-2.848c-0.949-0.397-1.399-1.485-1.005-2.438c0.395-0.949,1.489-1.396,2.431-1.005l6.88,2.851
				C165.088,186.632,165.538,187.72,165.143,188.677z M168.159,180.218l-5.261-5.269c-0.725-0.725-0.725-1.905,0-2.63
				c0.727-0.726,1.903-0.726,2.633,0.004l5.26,5.264c0.726,0.73,0.726,1.906,0,2.632c-0.365,0.362-0.841,0.543-1.318,0.543
				C168.998,180.761,168.52,180.581,168.159,180.218z M207.833,226.635c0,1.026-0.837,1.86-1.86,1.86h-33.506
				c-1.027,0-1.861-0.834-1.861-1.86v-11.169c0-1.027,0.833-1.861,1.861-1.861h33.506c1.024,0,1.86,0.833,1.86,1.861V226.635
				L207.833,226.635z M195.61,194.886c0.656,1.105,1.054,2.382,1.054,3.755c0,4.107-3.334,7.446-7.447,7.446
				c-4.105,0-7.444-3.338-7.444-7.446c0-4.102,3.339-7.444,7.444-7.444c1.379,0,2.652,0.402,3.762,1.054l17.297-17.297
				c0.726-0.726,1.905-0.726,2.631,0c0.726,0.728,0.726,1.907,0,2.632C212.907,177.586,195.612,194.886,195.61,194.886z
				 M223.606,212.889c-0.295,0.716-0.989,1.156-1.716,1.156l-0.711-0.146l-6.881-2.853c-0.949-0.39-1.397-1.48-1.008-2.428
				c0.392-0.947,1.49-1.401,2.431-1.012l6.88,2.853C223.555,210.851,224.006,211.944,223.606,212.889z M224.583,200.507
				l-7.443-0.003c-1.027,0-1.861-0.835-1.861-1.863s0.839-1.861,1.861-1.861h0.005l7.438,0.004c1.027,0.005,1.86,0.836,1.86,1.864
				C226.444,199.673,225.61,200.507,224.583,200.507z"/>
			<path id="path-7_2_" fill="#F8F8F8" d="M191.108,349.111l-11.845-21.552c3.36-0.527,5.833-3.531,5.833-6.891v-31.793
				c0-8.479-6.894-15.366-15.379-15.366h-20.152c-8.485,0-15.557,6.889-15.557,15.544v31.618c0,3.531,2.475,6.357,5.834,6.888
				l-11.667,21.552c-0.885,1.765-0.354,3.885,1.414,4.767c0.53,0.354,1.061,0.354,1.591,0.354c1.238,0,2.475-0.706,3.005-1.766
				l1.061-1.765h48.792l1.06,1.765c0.708,1.236,1.769,1.766,3.006,1.766c0.53,0,1.061-0.177,1.591-0.354
				C191.462,352.995,191.992,350.877,191.108,349.111z M174.492,333.212h-29.699l3.005-5.476h23.688L174.492,333.212z
				 M173.961,321.38c-2.828,0-5.127-2.299-5.127-5.124c0-2.826,2.299-5.121,5.127-5.121c2.828,0,5.126,2.295,5.126,5.121
				C179.087,318.906,176.789,321.38,173.961,321.38z M140.197,290.998c0-5.478,4.419-9.893,9.722-9.893h19.269
				c5.303,0,9.9,4.415,9.9,9.893v8.478c0,1.943-1.591,3.356-3.535,3.356h-31.82c-1.944,0-3.36-1.59-3.36-3.356L140.197,290.998
				L140.197,290.998z M145.323,310.956c2.828,0,5.125,2.296,5.125,5.122s-2.297,5.123-5.125,5.123c-2.829,0-5.126-2.298-5.126-5.123
				C140.197,313.252,142.494,310.956,145.323,310.956z M138.074,345.399l3.89-6.889h35.356l3.889,6.889H138.074z"/>
			<path id="path-8_2_" fill="#F8F8F8" d="M318.312,195.254c0,0-27.729-31-27.729-51.668c0-15.5,12.28-27.821,27.729-27.821
				s27.729,12.321,27.729,27.821C346.04,164.253,318.312,195.254,318.312,195.254z M318.312,133.649
				c-5.546,0-9.902,4.371-9.902,9.936c0,5.563,4.356,9.937,9.902,9.937c5.547,0,9.904-4.373,9.904-9.937
				C328.216,138.021,323.858,133.649,318.312,133.649z"/>
		</g>
	</g>
</g>
</svg>
