<?xml version="1.0" encoding="utf-8"?>
<!-- Generator: Adobe Illustrator 16.0.0, SVG Export Plug-In . SVG Version: 6.00 Build 0)  -->
<!DOCTYPE svg PUBLIC "-//W3C//DTD SVG 1.1//EN" "http://www.w3.org/Graphics/SVG/1.1/DTD/svg11.dtd">
<svg version="1.1" id="Layer_1" xmlns="http://www.w3.org/2000/svg" xmlns:xlink="http://www.w3.org/1999/xlink" x="0px" y="0px"
	 width="400px" height="400px" viewBox="0 0 400 400" enable-background="new 0 0 400 400" xml:space="preserve">
<g id="_x32_">
	<g id="circle-1_9_" opacity="0.8">
		<g>
			<circle fill="#FFFFFF" cx="201.2" cy="198.915" r="197.8"/>
		</g>
	</g>
	<circle id="circle-1_8_" fill="#C32D28" cx="200.608" cy="199.546" r="183.011"/>
	<path id="path-1_4_" fill="#FFFFFF" d="M264.187,234.906c-2.074-3.435-5.368-6.588-9.717-7.916
		c-0.499-0.153-2.125-0.514-2.125-3.336V108.31c0-1.634-1.339-2.971-2.979-2.971h-98.133c-1.637,0-2.978,1.337-2.978,2.971v135.646
		c0,1.636,1.34,2.97,2.978,2.97h2.674c3.078,0,2.606,1.779,2.615,2.694c0.009,0.88,0.089,1.774,0.24,2.678
		c1.158,6.914,6.048,18.022,14.502,29.843c0.609,0.849,2.499,2.562-2.068,2.562h-22.608c-6.568,0-11.912-5.331-11.912-11.879V94.348
		c0-6.551,5.344-11.879,11.912-11.879h107.425c6.565,0,11.911,5.328,11.911,11.879v140.221
		C265.925,236.722,264.921,236.12,264.187,234.906z M209.446,91.652h-18.292c-1.645,0-2.978,1.331-2.978,2.971
		s1.333,2.969,2.978,2.969h18.292c1.645,0,2.978-1.33,2.978-2.969C212.424,92.983,211.091,91.652,209.446,91.652z M177.31,195.917
		c1.43,1.798,1.129,4.414-0.676,5.84c-0.765,0.607-1.681,0.903-2.588,0.903c-1.229,0-2.445-0.538-3.27-1.576
		c-5.271-6.621-8.057-14.589-8.057-23.042c0-8.422,2.915-16.675,8.206-23.235c1.444-1.79,4.068-2.073,5.862-0.635
		c1.794,1.44,2.08,4.057,0.637,5.847c-4.165,5.162-6.365,11.394-6.365,18.023C171.06,184.599,173.221,190.78,177.31,195.917z
		 M184.564,193.802c-2.715-4.179-5.344-8.61-5.344-13.966c0-11.591,9.455-21.021,21.08-21.021c11.624,0,21.081,9.431,21.081,21.021
		c0,4.236-1.264,8.18-3.433,11.485c-0.424,0.644-1.6,2.793-1.551,0.705c-0.199-1.68-0.199-1.99-0.338-3.112l-0.169-1.546
		c-0.797-7.29-6.677-12.38-14.301-12.38c-4.148,0-8.126,1.597-10.914,4.38c-2.597,2.598-4.024,6.082-4.015,9.804l-0.004,3.52
		C186.776,194.263,186.485,196.758,184.564,193.802z M223.29,159.999c-1.431-1.799-1.13-4.414,0.674-5.84
		c1.805-1.428,4.426-1.125,5.857,0.671c5.271,6.623,8.056,14.591,8.056,23.044c0,8.422-2.913,16.674-8.205,23.234
		c-0.823,1.021-2.032,1.553-3.25,1.553c-0.917,0-1.84-0.301-2.611-0.919c-1.795-1.438-2.078-4.056-0.636-5.845
		c4.164-5.163,6.365-11.396,6.365-18.023C229.54,171.316,227.38,165.135,223.29,159.999z M161.769,251.465
		c-0.547-3.272,0.233-6.353,2.203-8.67c1.869-2.203,4.612-3.465,7.524-3.465c3.491,0,6.762,1.82,8.974,4.997
		c0.463,0.674,0.957,1.383,1.493,2.152l0.407,0.584c3.041,4.388,7.16,5.776,9.335,6.217l0.033-64.105
		c-0.006-2.412,0.87-4.569,2.533-6.23c1.841-1.84,4.509-2.895,7.321-2.895c4.942,0,8.747,3.235,9.254,7.867l-0.017,0.003
		c0.448,3.391,3.025,25.493,4.099,34.735c1.966-0.441,4.262-0.456,6.509-0.016c2.323,0.46,5.688,1.528,8.938,2.562
		c2.456,0.779,4.994,1.585,6.221,1.829c2.38,0.469,5.654,1.545,8.822,2.586c2.53,0.83,5.148,1.689,6.542,1.964
		c5.733,1.105,9.646,7.537,9.713,11.3l0.002,28.094c0,4.676-1.271,9.261-3.672,13.263l-5.518,9.249l0.047,16.305
		c0,3.434-2.792,6.217-6.226,6.217h-52.371c-3.432,0-6.226-2.783-6.226-6.207l-0.03-15.913
		C171.031,276.77,163.065,259.208,161.769,251.465z"/>
</g>
</svg>
