<svg xmlns="http://www.w3.org/2000/svg" viewBox="0 0 700 700" enable-background="new 0 0 700 700"><defs><linearGradient id="0" gradientUnits="userSpaceOnUse" y1="638" x2="0" y2="44"><stop stop-color="#c1221d"/><stop offset=".931" stop-color="#ce2525" stop-opacity=".9"/></linearGradient></defs><g opacity=".8"><circle fill="#fff" cx="343.92" cy="341.95" r="321"/></g><circle fill="url(#0)" cx="345.98" cy="341" r="297"/><g fill="#fcfcfc"><path d="m471.11 343.93c-1.45 7.286-7.911 12.595-15.657 12.923-2.438.1-4.518 1.877-4.979 4.285-.493 2.405.727 4.848 2.937 5.866 7.02 3.296 10.94 10.681 9.46 17.966l-1.384 6.922c-1.812 9.131-11.899 14.834-20.734 12.657-2.472-.592-5.01-1.054-7.515-1.548-3.692-.727-7.388-1.484-11.07-2.21-4.88-.987-9.759-1.944-14.638-2.933-5.803-1.153-11.637-2.342-17.438-3.493-6.493-1.318-12.987-2.604-19.479-3.923-6.926-1.385-13.878-2.771-20.803-4.188-7.118-1.418-14.238-2.867-21.327-4.285-7.05-1.416-14.07-2.834-21.13-4.253l-20.17-4.054c-6.164-1.218-12.295-2.473-18.46-3.691-5.34-1.056-10.679-2.144-15.986-3.195-4.254-.856-8.506-1.717-12.79-2.57l-8.802-1.78c-1.352-.264-2.703-.56-4.054-.823-.066 0-.132-.033-.198-.033.728 3.429.396 7.088-1.186 10.516-3.33 7.188-11.08 10.945-18.526 9.495-2.208-.433-4.614.394-5.571 2.438l-2.966 6.431c-.956 2.042 0 4.417 1.746 5.834.33.264 237.93 109.8 238.32 109.9 2.21.429 4.616-.396 5.572-2.438l2.967-6.429c.956-2.044 0-4.417-1.748-5.834-5.933-4.715-8.108-13.05-4.778-20.238 3.328-7.188 11.07-10.943 18.526-9.493 2.208.428 4.614-.396 5.568-2.44l2.968-6.427c.956-2.044 0-4.416-1.748-5.834-5.936-4.714-8.108-13.05-4.778-20.24 3.328-7.185 11.07-10.94 18.525-9.492 2.209.43 4.613-.396 5.568-2.438l2.968-6.427c.956-2.044 0-4.418-1.747-5.835-5.935-4.716-8.109-13.06-4.779-20.24 3.329-7.188 11.07-10.942 18.526-9.493 2.209.428 4.612-.396 5.568-2.439l3.266-7.117c.954-2.045.063-4.45-1.979-5.406l-35.501-16.383-.557 2.395"/><path d="m187.99 341.65c.394.196 256.88 51.651 257.31 51.651 2.242-.098 4.418-1.48 4.847-3.656l1.386-6.924c.428-2.209-1.022-4.314-3.065-5.271-6.854-3.23-10.911-10.812-9.361-18.592 1.552-7.778 8.24-13.22 15.822-13.546 2.241-.102 4.417-1.484 4.846-3.66l1.021-5.076.362-1.878c.43-2.208-1.022-4.319-3.064-5.274-6.856-3.229-10.911-10.811-9.362-18.59 1.551-7.78 8.24-13.219 15.822-13.549 2.24-.098 4.416-1.483 4.844-3.658l1.389-6.923c.428-2.208-1.022-4.318-3.066-5.274-6.854-3.229-10.911-10.811-9.36-18.59 1.549-7.78 8.24-13.219 15.821-13.549 2.242-.098 4.417-1.481 4.847-3.658l1.55-7.68c.428-2.208-.988-4.351-3.196-4.779 0 0-257.74-51.686-258-51.686-1.912 0-3.594 1.352-3.99 3.264l-1.548 7.679c-.428 2.211 1.021 4.319 3.065 5.274 6.854 3.229 10.908 10.813 9.36 18.591-1.55 7.779-8.24 13.217-15.822 13.547-2.24.102-4.417 1.484-4.846 3.658l-1.384 6.923c-.428 2.208 1.021 4.318 3.063 5.274 6.856 3.229 10.91 10.811 9.362 18.591-1.55 7.779-8.241 13.217-15.823 13.547-2.239.099-4.416 1.484-4.845 3.658l-1.384 6.923c-.43 2.209 1.021 4.319 3.064 5.274 6.855 3.229 10.91 10.811 9.361 18.591-1.55 7.779-8.241 13.217-15.823 13.547-2.238.098-4.417 1.484-4.845 3.658l-1.386 6.923c-.459 2.209.991 4.285 3.035 5.241m219.7-84.48c.891-4.45 5.238-7.35 9.689-6.46 4.45.89 7.352 5.24 6.461 9.691l-10.877 54.13-6.691 33.36c-.789 3.921-4.219 6.626-8.07 6.626-.528 0-1.088-.064-1.616-.166-4.45-.891-7.353-5.239-6.461-9.689l7.481-37.22 10.09-50.27m-148.6-29.831c.892-4.45 5.241-7.351 9.691-6.461 4.45.89 7.351 5.241 6.461 9.691l-3.758 18.688-4.251 21.2-3.431 17.07-6.098 30.522c-.792 3.923-4.22 6.625-8.08 6.625-.524 0-1.088-.064-1.614-.164-.23-.033-.462-.1-.658-.166-4.089-1.186-6.625-5.306-5.771-9.523l1.22-6.164 3.197-15.953 13.09-65.37"/></g><g fill="#d0443f"><path d="m295.77 294.43l1.824 10.15-5.611 1.01-5.03-27.989 11.146-2c3.22-.579 5.896-.213 8.04 1.097 2.143 1.309 3.451 3.302 3.936 5.979.479 2.679-.057 4.998-1.606 6.957-1.553 1.959-3.938 3.228-7.153 3.807l-5.539.994m-.777-4.325l5.536-.995c1.562-.281 2.672-.92 3.326-1.918.651-.997.859-2.156.625-3.478-.241-1.345-.846-2.385-1.804-3.119-.96-.731-2.227-.959-3.803-.675l-5.536.995 1.656 9.19"/><path d="m340.25 296.91l-5.594 1.01-14.742-17.09-.111.041 3.438 19.11-5.613 1.01-5.03-27.987 5.613-1.012 14.739 17.08.109-.041-3.433-19.09 5.594-1.01 5.03 27.991"/><path d="m349.1 283.77l2.01 11.188-5.613 1.01-5.03-27.989 10.556-1.896c3.188-.574 5.814-.295 7.88.836 2.062 1.131 3.326 2.997 3.795 5.598.26 1.448.104 2.761-.463 3.935-.57 1.174-1.527 2.213-2.873 3.117 1.737.188 3.073.789 4 1.799.929 1.01 1.544 2.354 1.846 4.03l.37 2.058c.141.782.395 1.58.758 2.394.365.814.841 1.381 1.428 1.698l.071.404-5.786 1.04c-.586-.318-1.042-.943-1.369-1.876-.323-.936-.564-1.83-.722-2.689l-.354-1.979c-.252-1.396-.827-2.414-1.729-3.055-.901-.638-2.046-.833-3.43-.584l-5.352.958m-.778-4.324l4.844-.871c1.576-.284 2.691-.829 3.348-1.634.656-.807.865-1.862.633-3.169-.229-1.281-.804-2.23-1.714-2.849-.91-.617-2.122-.789-3.636-.518l-4.938.889 1.463 8.152"/></g></svg>