<svg xmlns="http://www.w3.org/2000/svg" viewBox="0 0 700 700" enable-background="new 0 0 700 700"><g opacity=".8"><circle fill="#fff" cx="343.92" cy="341.95" r="321"/></g><g fill="#c32d28"><circle cx="343.98" cy="342.01" r="297"/><path stroke="#d36a67" stroke-width="8" stroke-miterlimit="10" d="m346.48 583.01c-130.06 0-235.5-105.44-235.5-235.5 0-130.06 105.44-235.5 235.5-235.5 130.06 0 235.5 105.44 235.5 235.5 0 130.06-105.44 235.5-235.5 235.5z"/></g><g fill="#d36a67"><path d="m301.56 397.37l4.834 1.28-18 68-4.834-1.28 18-68"/><path d="m539.27 271.38l1.688 4.707-183.62 65.836-1.688-4.706 183.62-65.837"/><path d="m186.02 175.56l3.924-3.102 121 153-3.925 3.102-121-153"/></g><g fill="#f8f8f8"><path d="m146.98 211.06v-5.648l11.296-11.3v-31.07c0-17.517 11.857-31.642 28.23-35.597v-3.953c0-4.521 3.953-8.477 8.472-8.477s8.472 3.955 8.472 8.477v3.953c16.376 3.955 28.23 18.08 28.23 35.597v31.07l11.294 11.3v5.648h-96m48 16.95c-6.212 0-11.294-5.085-11.294-11.3h22.59c-.002 6.215-5.084 11.3-11.296 11.3"/><path d="m324.48 269.01c-39.973 0-72.5 32.528-72.5 72.5 0 39.979 32.528 72.5 72.5 72.5 39.979 0 72.5-32.521 72.5-72.5 0-39.972-32.522-72.5-72.5-72.5m40.703 52.37l11.165-4.621c1.54-.629 3.312.096 3.945 1.637.634 1.54-.097 3.306-1.637 3.939l-11.159 4.628-1.154.235c-1.185 0-2.308-.707-2.791-1.872-.641-1.541.09-3.306 1.631-3.946m-26.16-22.886l4.628-11.165c.641-1.54 2.417-2.267 3.942-1.637 1.547.634 2.278 2.403 1.64 3.943l-4.627 11.165c-.479 1.166-1.608 1.867-2.792 1.867l-1.154-.229c-1.54-.633-2.271-2.403-1.637-3.944m-17.569-13.255c0-1.668 1.353-3.02 3.02-3.02 1.662 0 3.02 1.354 3.02 3.02v12.08c0 1.661-1.359 3.02-3.02 3.02-1.666 0-3.02-1.359-3.02-3.02v-12.08m-20.09.459c1.54-.636 3.311.097 3.942 1.637l4.621 11.159c.638 1.535-.096 3.305-1.637 3.943l-1.154.23c-1.184 0-2.308-.701-2.791-1.873l-4.619-11.159c-.634-1.538.097-3.303 1.638-3.937m-37.64 56.937c0-1.668 1.354-3.02 3.02-3.02h12.08c1.662 0 3.02 1.353 3.02 3.02 0 1.661-1.357 3.02-3.02 3.02h-12.08c-1.668-.001-3.02-1.36-3.02-3.02m20.05 19.01l-11.171 4.629-1.154.229c-1.186 0-2.314-.701-2.791-1.867-.634-1.546.097-3.311 1.637-3.945l11.171-4.627c1.535-.635 3.312.099 3.945 1.639.629 1.543-.096 3.307-1.637 3.942m1.631-36.3c-.483 1.153-1.613 1.86-2.791 1.86l-1.154-.235-11.165-4.622c-1.54-.646-2.271-2.411-1.631-3.957.64-1.541 2.417-2.266 3.945-1.632l11.165 4.628c1.541.64 2.272 2.405 1.631 3.958m4.894-13.727l-8.537-8.551c-1.178-1.178-1.178-3.093 0-4.271 1.18-1.178 3.088-1.178 4.272.007l8.537 8.543c1.178 1.186 1.178 3.093 0 4.271-.593.586-1.366.882-2.141.882-.771.001-1.545-.295-2.131-.881m64.39 75.33c0 1.668-1.358 3.02-3.02 3.02h-54.37c-1.667 0-3.02-1.354-3.02-3.02v-18.12c0-1.667 1.354-3.02 3.02-3.02h54.38c1.661 0 3.02 1.353 3.02 3.02v18.13m-19.835-51.52c1.063 1.794 1.711 3.867 1.711 6.096 0 6.664-5.412 12.08-12.08 12.08-6.662 0-12.08-5.419-12.08-12.08 0-6.658 5.42-12.08 12.08-12.08 2.236 0 4.304.652 6.104 1.71l28.07-28.07c1.179-1.178 3.094-1.178 4.271 0 1.178 1.18 1.178 3.096 0 4.272-.002-.001-28.07 28.08-28.07 28.08m45.43 29.22c-.479 1.161-1.606 1.873-2.785 1.873l-1.154-.234-11.165-4.629c-1.54-.635-2.271-2.402-1.637-3.943.635-1.534 2.417-2.271 3.944-1.64l11.165 4.628c1.547.634 2.278 2.411 1.632 3.945m1.583-20.09l-12.08-.006c-1.668 0-3.02-1.354-3.02-3.02 0-1.668 1.36-3.02 3.02-3.02h.007l12.07.006c1.667.006 3.02 1.357 3.02 3.02-.001 1.664-1.354 3.02-3.02 3.02"/><path d="m327.55 585.69l-19.222-34.974c5.451-.857 9.467-5.73 9.467-11.18v-51.598c0-13.762-11.188-24.938-24.959-24.938h-32.704c-13.771 0-25.25 11.179-25.25 25.23v51.31c0 5.733 4.02 10.319 9.467 11.18l-18.935 34.974c-1.436 2.864-.573 6.306 2.295 7.737.861.573 1.722.573 2.582.573 2.01 0 4.02-1.146 4.878-2.867l1.721-2.863h79.18l1.721 2.863c1.148 2.01 2.869 2.867 4.878 2.867.86 0 1.721-.287 2.582-.573 2.866-1.433 3.727-4.871 2.293-7.738m-26.968-25.798h-48.2l4.877-8.887h38.442l4.877 8.887m-.86-19.21c-4.59 0-8.32-3.729-8.32-8.312 0-4.587 3.73-8.313 8.32-8.313s8.319 3.729 8.319 8.313c0 4.299-3.729 8.312-8.319 8.312m-54.795-49.3c0-8.887 7.172-16.05 15.778-16.05h31.27c8.606 0 16.06 7.166 16.06 16.05v13.76c0 3.152-2.582 5.445-5.737 5.445h-51.64c-3.155 0-5.451-2.58-5.451-5.445l-.286-13.76m8.318 32.391c4.59 0 8.318 3.727 8.318 8.312 0 4.587-3.729 8.313-8.318 8.313s-8.319-3.729-8.319-8.313 3.729-8.312 8.319-8.312m-11.762 55.897l6.312-11.179h57.38l6.312 11.179h-70"/><path d="m533.98 336.01c0 0-45-50.31-45-83.85 0-25.16 19.931-45.15 45-45.15s45 19.995 45 45.15c0 33.54-45 83.85-45 83.85m0-99.97c-9 0-16.07 7.095-16.07 16.13 0 9.03 7.07 16.13 16.07 16.13s16.07-7.097 16.07-16.12c0-9.03-7.07-16.12-16.07-16.12"/></g></svg>