<svg xmlns="http://www.w3.org/2000/svg" xmlns:xlink="http://www.w3.org/1999/xlink" viewBox="0 0 700 700" enable-background="new 0 0 700 700"><defs><use id="6" xlink:href="#A"/><use id="7" xlink:href="#A"/><use id="8" xlink:href="#A"/><use id="9" xlink:href="#A"/><path id="A" d="m347.42 246c0 0 .081-.006.12.039.036.043.033.176.004.219-.032.04-.156.036-.182.036-.023 0-.119-.039-.149-.021-.027.02-.115.118-.146.144-.034.023-.08.034-.144.044-.068.009-.091.056-.133.129-.044.073-.083.086-.106.127-.022.042.038.082.069.131.032.044.042.141.052.176.012.034.021.11.012.127-.012.016-.072.072-.102.125-.03.052-.014.077.01.124.022.046.054.055.034.078-.021.024-.059.01-.111.036-.051.025-.094.12-.116.184-.017.066-.062.129-.1.164-.04.035-.054.031-.104.107-.052.076-.083.089-.124.133-.039.042-.098.046-.103.108-.008.062.008.101.016.153.004.056.015.112-.009.135-.023.018-.06.013-.091.05s-.051.048-.086.062c-.035.019-.064.003-.09.027-.029.021-.06.021-.126.018-.069-.003-.141.036-.188.151-.043.111-.048.244-.08.33-.031.085-.051.146-.086.172-.03.026-.098.107-.122.144-.021.038-.07.107-.111.157-.039.047-.02.089-.062.141-.047.054-.12.106-.147.134-.025.03-.018.095-.095.082-.078-.013-.244-.019-.269.015-.017.03-.025.11-.062.157-.038.048-.059.047-.1.077-.042.031-.076.075-.087.12-.009.044-.025.154-.061.213-.036.059-.052.08-.15.125-.097.049-.16.082-.183.136-.022.047-.018.115-.029.149-.011.035-.016.091-.21.083-.192-.009-.266-.017-.373.008-.111.029-.247.021-.306.056-.059.036-.136.066-.164.098-.024.03-.039.039-.066-.012-.025-.055-.051-.104-.047-.155.007-.054.044-.236.031-.252-.015-.015-.083-.013-.119-.004-.034.008-.104-.009-.211.021-.106.031-.188.04-.217.076-.024.038-.145.163-.172.198-.027.036-.078.081-.096.116-.019.036-.054.102-.075.149-.025.048.012.016-.087.051-.097.036-.074.056-.166.109-.095.056-.138.102-.179.14-.045.039-.106.094-.137.144-.03.056-.047.135-.042.185.004.051.031.176.046.235.018.058.07.144.098.201.026.058.104.061.154.066.048.005.084.048.125.067.043.021.112.048.205.039.094-.006.094-.009.09.04-.003.056-.003.144-.056.194-.051.052-.098.104-.119.187-.02.081-.001.2.031.261.034.059.108.141.141.208.032.064.112.185.143.202.028.018.144.005.173.003.032-.005.155-.03.147.012-.013.042-.034.07-.047.115-.011.046.001.113.029.167.027.054.054.085.068.136.013.053.051.112.077.158.024.042.061.067.054.121-.01.052-.017.087.017.16.031.074.065.128.093.172.026.043.015.086-.014.122-.025.039-.066.071-.064.126.003.055.047.078.025.087-.021.013-.077.011-.09.056-.018.043-.018.094-.025.097-.011.001-.076-.027-.106-.02-.029.006.004-.105-.013-.154-.019-.052-.057-.116-.097-.115-.042.001-.13.068-.187.078-.061.01-.066.034-.108.039s-.173.013-.223.003c-.052-.008-.074.043-.091.116-.021.073.047.11-.055.077-.099-.037-.188-.039-.215-.033-.026.008-.021-.03-.111-.092-.087-.063-.127-.134-.184-.125-.058.014-.099.021-.151.065s-.111.04-.155.039c-.043-.003-.016-.03-.055-.069-.043-.037-.064-.004-.125.004-.06.01-.079-.044-.104-.04-.026 0-.038.038-.078.018-.041-.023-.083-.057-.128-.055-.041 0-.086.018-.105.066-.023.048-.05.1-.046.145.005.042.056.119-.017.179-.072.06-.064-.001-.158.009-.098.018-.125-.029-.161-.056-.038-.027-.068-.039-.107-.021-.042.022-.106.095-.138.146-.03.054-.023.168-.023.199 0 .029.019.035-.021.082-.038.051-.08.039-.074.107.009.07.06.072.112.135.055.063.087-.007.115.012.03.021.009.013.047.056.035.046.232.197.236.253.004.057.036.141.068.176.032.033.147.133.202.188.052.059.354.197.417.239.064.044.153.077.248.107.095.033.266.012.308.015.047.003.088-.036.082-.086-.005-.047.02-.084.062-.055.043.025.157.054.25.021.094-.029.089-.051.122-.086.035-.035.058-.01.114-.003.057.009.048.018.018.062-.033.045-.059.045-.106.097-.043.051-.09.081-.119.098-.029.02-.062.009-.129.014-.064.005-.111.023-.146.06-.034.038-.081.044-.142.046-.063.003-.097.04-.124.062-.026.021-.096.01-.142-.019-.047-.025-.098.007-.125.034-.031.027-.09.016-.129.039-.039.029-.055-.083-.081-.125-.025-.038-.038-.055-.125-.06-.089 0-.205.077-.215.094-.016.016-.061.164-.056.227.007.063.054.119.094.197.04.078.108.183.174.232.062.051.195.214.278.277.081.065.218.216.246.268.025.051.1.115.129.188.031.074.171.244.215.305.045.059.127.157.187.207.062.047.161.081.19.124.031.045.034.142.162.171.128.027.179.039.221.078s.128.115.226.054c.095-.067.095-.099.168-.069.073.031.17-.024.273-.057.104-.034.119.021.195-.047.079-.07.142-.119.186-.122.045-.004.214-.015.273-.065.062-.052-.016-.062.112-.091.125-.028.213-.061.235-.158.019-.097.094-.196.164-.242.064-.043.077-.129.063-.186-.016-.056-.023-.067-.048-.105-.025-.038-.042-.056-.031-.074.013-.021.091-.043.08-.099-.014-.056-.054-.134-.063-.191-.014-.054.01-.111.043-.147.031-.039.105-.121.086-.079-.022.046-.022.217-.015.269.009.048.063.063.111.042.047-.023.069-.01.06.008-.005.021-.052.057-.107.082-.055.027-.054.064-.042.125.012.062.064.093.105.125.042.032.076-.005.103 0 .026.004-.048.027-.062.062-.021.037.006.148-.017.146-.021-.003-.129.068-.119.17.013.103.021.175.103.22.081.044.01.066.014.118.003.052.073.093.106.147.029.054-.001.12.029.192.027.073.038.06.038.106-.003.052.029.069-.035.137-.063.069-.121.1-.133.187-.014.089.009.129-.003.187-.012.056-.062.038-.063.136-.005.099-.052.113-.074.149-.022.033-.021.071-.008.103.017.033.045.052.056.091.009.042.05.104.063.134.013.026-.01.022-.025.101-.019.08.018.091.048.106.027.018.012.053.001.068-.008.021-.008.12-.008.175-.003.059.022.045.012.138-.012.096.023.146.045.185.023.036.005.072-.012.116-.016.044-.039.078-.02.125.019.046.068.078.083.097.012.02-.02.033-.039.062-.021.028-.038.08-.026.115.005.035.051.054.093.1.043.048.062.027.07.064.002.039-.032.08-.026.125.001.042.019.055.042.09.021.031.08.025.087.062.011.039.014.104.021.151.006.046.03.005.048.036.019.034 0 .078.013.131.016.052.04.085.042.131.001.047-.016.119-.025.138-.01.02-.027.033-.005.054.02.013.063 0 .077.025.011.023.067.013.035.044-.032.032-.035-.004-.046.037-.009.042.008.096.021.111.016.014.052-.007.039.05-.014.059-.02.046-.02.089 0 .043.02.051.014.095-.008.043-.018.069-.013.106.006.041.048.014.042.077-.009.068-.009.153-.005.198.009.044.009.107.005.142 0 .033.013.046.021.121.007.07.021.058.024.104.005.042.021.089.047.111.024.021.051.021.061.085.013.062.022.102.022.154 0 .056.026.118.044.138.021.02.057.025.069.052.015.025.022.087.032.122.01.036.05 0 .06.064.015.063.02.068.037.128.019.059.011.105.051.126.042.019.104.004.12.021.015.021-.026.03-.082.03-.055 0-.055.025-.042.052.014.029.073.068.073.086 0 .022.042.019.056.059s.033.014.043.08c.015.062.024.103.04.138.017.036.049.086.078.107.028.021.057-.013.072.023.017.036.01.119.01.15 0 .034.007.026.085.043.079.021.104.003.106.039.003.039-.028.056-.043.103-.018.048.038.077.074.102.035.021.039-.019.056.034.019.052.019.125.026.18.006.057.054.036.064.07.013.034-.039.043-.043.069 0 .023.004.091.042.146.039.055.058.074.086.111.029.034.022.133.019.146-.003.014-.001.043.012.064.018.02.066.076.076.095.013.017.021.017.006.042-.016.02-.03.047-.026.081.005.033.043.044.026.094-.016.05-.005.098.008.149.01.048.031.098.031.144s.002.134.003.187c.003.054.009.043.03.078.02.033.061.039.081.087.02.048.003.121.008.16.003.042.056.032.064.064.013.036.027.044.051.125.025.085.052.152.063.197.01.048.055.132.062.167.004.034.058.143.08.172.025.033.073.094.133.107.06.014.071-.007.099.038.025.04.083.121.103.141.02.023.07.094.097.121.026.03.078.044.085.093.008.049.025.104.036.135.008.033.038.055.042.11.003.057.051.069.091.117.038.046.047.082.043.144-.003.06.039.08.062.114.021.038.036.067.042.138.008.067.005.12.035.144.033.03.046.046.047.133.001.082-.001.142.015.167.017.025.025.062.046.095.018.029.051.055.057.081.009.023.05 0 .056.08.005.081-.003.109.026.09.032-.02.038-.051.062-.015.026.038.011.047.076.106.062.06.081.081.089.106.01.025.026.102-.037.042-.064-.063-.077-.084-.102-.106-.025-.021-.062-.018-.082-.001-.02.013.022.052.03.117.005.064.02.093.045.129.023.038.058.082.061.131.007.048.021.237.04.305.02.063.033.188.06.224.026.034.056.034.069.084.012.048-.002.113-.014.159-.006.042.025.075.038.089.01.015.062.039.067.074.009.034.045.042.053.112.004.067.042.12.069.145.028.026.095.038.167.113.074.076.153.21.221.218.074.008.111-.042.117.015.011.054.025.133.069.161.046.029.081.073.108.104.025.03.104.035.111.025.008-.012 0-.035.073 0 .076.037.08.063.112.098.03.036.051.062.096.077.043.016.068.031.118.024.046-.005.05.005.11-.063.062-.071.089-.124.149-.158.062-.031.06-.018.124-.06.07-.042.031-.065.111-.09.078-.024.072-.024.16-.047.086-.02.088-.016.111-.087.021-.078.059-.241.053-.304-.009-.063-.01-.015-.005-.132.005-.119-.006-.133.049-.174.054-.042.14-.133.198-.118.055.017.115.034.186.017.066-.017.063-.052.127-.064.061-.018.044-.021.146-.018.103 0 .141-.024.214-.038.074-.016.101.022.126-.03.022-.052.08-.047.042-.087-.039-.039-.008-.039-.069-.087-.062-.05-.142-.1-.146-.175-.01-.074-.014-.087.028-.146.044-.055.162-.21.218-.266.052-.054.068-.078.114-.12.044-.044.09-.042.033-.086-.056-.042-.079-.051-.057-.085.018-.039.123-.173.199-.156.08.02.176.083.238.069.062-.02.133-.013.203-.035.074-.022.06-.012.133-.029.068-.021.099-.08.051-.105-.046-.027-.05-.039-.056-.125-.003-.09 0-.078-.003-.147-.005-.072.017-.137-.003-.177-.019-.04-.048-.149-.042-.232.004-.078.021-.069.023-.132.006-.06.01-.125-.021-.186-.027-.061-.09-.158-.086-.211.004-.052-.006-.04.041-.073.039-.034.068-.071.026-.133-.042-.061-.06-.054-.052-.094.01-.042.013-.035.021-.073s.053-.164.078-.242c.021-.076 0-.081.064-.13.062-.046.123-.095.158-.137.033-.043.031-.055.069-.086s.072-.038.028-.085c-.046-.048-.033-.048-.068-.093-.038-.042-.088-.056-.027-.088.062-.033.111-.019.16-.064.049-.047.043-.016.078-.1.033-.085.062-.139.103-.193.042-.055.061-.067.047-.125-.011-.061.025-.094 0-.137-.024-.049-.005-.148-.038-.207-.032-.056-.017-.08-.048-.092-.028-.01-.055-.046-.092-.059-.036-.016-.073-.006-.11-.055-.033-.047-.006-.106.014-.1.022.009.064.019.108.048.038.029.094.065.103.035.008-.03.001-.157-.035-.189-.034-.036-.029-.024-.051-.066-.022-.039-.033-.119-.039-.148-.006-.034.006-.054-.021-.068-.028-.018-.059-.042-.059-.042s-.025-.085-.042-.128c-.021-.042-.025-.049-.046-.085-.021-.034-.018-.055.023-.072.043-.021.047-.011.089-.047.042-.039.114-.039.08-.098-.038-.057-.008-.127-.06-.226-.057-.101-.028-.056-.066-.129-.036-.075-.082-.294-.082-.322.006-.027-.004-.099.006-.168.008-.068.034-.122.076-.169.04-.047.02 0 .068-.058.048-.06.048-.138.096-.219.046-.08-.034-.016.105-.115.143-.105.186-.086.254-.101.067-.014.086-.009.139.043.055.054.059.136.117.116.06-.02.067.024.123-.06.057-.081.057-.089.11-.16.054-.072.034-.044.076-.103.034-.062.003-.042.054-.102.055-.057.066.005.072-.087.006-.093.023-.168.049-.219.026-.053-.004-.058.09-.074.087-.018.119-.004.141.018.021.024.104.102.122.106.017.003-.009-.021.052-.021.058 0 .135.009.204-.042.071-.052.038-.048.142-.074.098-.027.072-.022.166-.058.09-.034.114-.017.149-.064.04-.049.024-.042.078-.076.057-.035.067-.046.06-.113-.008-.073.005-.087-.004-.167-.01-.081.007-.069-.031-.125-.039-.052-.057-.091-.046-.146.013-.056.08-.033.143-.076.063-.039.188-.106.236-.152.051-.053.041-.068.09-.094.047-.022.075-.042.145-.04.067.002.066-.008.119-.038.055-.031.062-.021.106-.045.043-.026.09-.072.128-.11.038-.038.057-.056.107-.093.048-.039.073-.025.083-.107.009-.08-.011-.149.001-.205.013-.057.019-.086.058-.124.04-.036.091-.026.172-.081.082-.054.053-.062.135-.082.081-.02.072-.039.133-.063.061-.026.089-.047.153-.056.065-.005.115-.137.167-.211.055-.069.104-.149.132-.177.026-.029.104-.121.117-.138.018-.017.035-.062.12-.129.085-.065.115-.062.134-.139.02-.077-.061-.106.029-.173.09-.064.125-.042.171-.147.048-.107-.001-.082.11-.142.113-.06.146-.107.199-.151.048-.042.041.029.072-.044.03-.073.047-.086.043-.134-.005-.048.03.007.089.03.062.021.083.009.146-.025.061-.033.066-.008.119-.054.052-.044.096-.095.209-.125.112-.033.116-.039.188-.074.071-.034.08-.033.157-.064.073-.035.162-.088.214-.147.052-.063.133-.107.187-.168.052-.062.117-.148.14-.201.024-.047.044-.109.03-.164-.013-.056-.022-.067 0-.086.023-.018.116-.098.153-.157.037-.062.037-.081.027-.133-.006-.053-.009-.086.001-.156.017-.069-.016-.106-.032-.121-.019-.013-.072-.013-.107-.096-.038-.083-.09-.11-.038-.139.056-.03.093-.063.137-.115.046-.056.021-.083.063-.087.045-.007.168-.026.23-.058.062-.029.017-.056.102-.057.082-.001.205-.021.294-.04.091-.021.106.004.128-.077.016-.081-.014-.083.051-.117.064-.028.094 0 .103-.069.009-.073.009-.16.041-.16.034 0 .034.03.04.08.006.048.01.174.037.164.026-.014.152-.053.228-.053.073 0 .104.007.153-.051.051-.062.062-.143.106-.12.043.026.096.055.186.057.089.001.098.009.154-.03.053-.039.043-.02.061-.152.019-.133.052-.101.034-.175-.018-.076-.054-.133-.081-.18-.026-.051-.03-.036-.04-.105-.01-.068-.037-.053-.045-.147-.006-.096.045-.012-.019-.116-.061-.101-.081-.111-.069-.192.014-.08.044-.129.021-.207-.026-.08-.064-.044-.042-.125.019-.081.055-.036.079-.116.025-.081.005-.078-.04-.149-.048-.07-.03-.081-.104-.075-.073.005-.104.018-.1-.013.001-.028.044-.176.017-.221-.027-.043-.027-.103-.1-.15-.072-.046-.095-.034-.113-.085s-.051-.043-.019-.103c.035-.06.168-.173.163-.232-.007-.063-.047-.043-.028-.159.013-.116.001-.136.005-.202.003-.063-.072-.104-.253-.102-.182.003-.203.013-.261-.07-.057-.08-.094-.09-.108-.166-.015-.078-.059-.151.025-.172.08-.021.098 0 .162-.064.062-.064.038-.16.062-.231.022-.069.031-.061.094-.08.062-.014.048-.068.15-.051.103.016.231.008.263-.052.027-.057.068-.047.05-.136-.019-.087-.005-.147-.061-.178-.053-.026-.085.004-.134-.047-.051-.048-.008-.111-.048-.143-.039-.029-.042-.051-.121-.033-.08.018-.135.065-.172.011-.034-.058-.021-.08-.061-.104-.04-.026-.036-.024-.097-.067-.062-.047.019-.008-.07-.058-.09-.051-.095.003-.119-.072-.022-.072-.022-.064.015-.127.037-.061-.003-.101.041-.149.046-.052.11-.089.146-.119.038-.03.044-.08.077-.05.028.03.08.168.131.213.052.043.131.116.18.086.051-.03.068-.048.068-.122.005-.073 0-.095.053-.1.054 0 .16.083.25.173.095.089.104.078.153.089.049.015.092.075.157.044.064-.029.122-.057.17-.098.052-.039.068-.031.091.009.021.039-.003.081-.041.145-.035.063-.034.15.008.191.035.039.114.034.069.103-.049.07-.077.082-.072.142.004.062-.035.149-.005.198.028.048.171.101.249.106.078.003.105.012.163.039.052.026.11-.033.248.028.14.06.196.057.253.022.056-.032.068-.076.126-.082.056-.005.158.039.215.042.058.004.121-.024.163-.042.043-.015.048-.038.122-.022.074.015.149.06.228.048.078-.013.106-.037.155-.01.047.026.12.035.153.014.029-.019.056-.062.129-.067.074-.006.188-.018.228.016.035.03.114.021.093.052-.025.03-.095.076-.089.114.006.039.019.067.041.107.021.04.024.068.004.076-.021.01-.054.01-.057.052-.005.04-.005.099 0 .133s.018.081-.08.07c-.091-.012-.104 0-.104.035 0 .036.008.16-.004.187-.01.026-.04-.047-.085-.021-.044.027-.205.077-.209.096-.005.02 0 .006-.005.03-.006.021 0 .067-.055.081-.056.008-.101 0-.142.034-.043.039-.112.024-.128.072-.021.047-.021.078-.033.137-.018.056-.038.069-.056.134-.027.065-.011.158-.018.186-.004.028-.024.073-.024.128 0 .052.091.188.127.25.034.063.062.07.076.139.013.067-.021.141-.015.227.006.086.021.172.077.144.058-.025.127.042.163-.048.033-.094.006.019.021.048.016.028.145.141.219.105.081-.038.03-.02.117-.077.086-.055.109-.034.102-.131-.006-.096-.007-.057-.006-.177.003-.119-.012-.137.022-.201.033-.061.08-.091.087-.16.006-.068-.015-.094.021-.151.031-.056.067-.077.081-.06.021.02-.025.064.04.099.063.036.118.044.095.134-.018.089-.018.166.011.193.025.026.134.115.134.171 0 .056-.025.064-.03.139-.008.075-.061.119-.051.18.014.057.09.105.131.153.042.051.082.113.082.162-.004.048-.028.07-.026.134.002.061.052.064.052.133 0 .068-.023.111-.021.16.004.047.059.058.065.112.007.057.031.124.027.219-.006.094-.027.125.024.171.052.043.073.087.149.051.071-.033.025-.134.063-.115.033.021.082.06.135.074.051.019.085.056.145-.005.065-.064.021-.162.08-.225.064-.067.013-.042.075-.117.06-.077.073-.205.031-.264-.044-.059-.034-.033-.026-.128.01-.093.014-.137-.033-.205-.048-.061.007-.078-.004-.137-.009-.061-.039-.086-.054-.173-.016-.085-.035-.114.007-.159.046-.048.081-.052.134-.047.048.005.107-.056.122-.157.014-.104.054-.099.021-.152-.033-.054-.082-.137-.077-.209.01-.072.09-.093.082-.172-.009-.08-.024-.055-.035-.115-.014-.064.003-.06-.009-.129-.014-.073-.011-.108.001-.162.01-.057.042-.074.1-.083.056-.012.118.094.146.094.029 0 .052.015.085-.018.028-.03.024-.055.058-.034.034.024.219.039.256.016.036-.023.036-.018.08-.072.044-.055.091-.098.069-.105-.025-.006-.021.02-.048-.021-.027-.042-.051-.02-.022-.069.027-.052.03-.086.033-.113.005-.026.048-.093.057-.157.011-.062-.032-.076.039-.116.074-.039.091-.058.097-.106.005-.047.005-.097.008-.117.001-.02.044-.12.081-.16.037-.042.054-.018.054-.105s.022-.17.026-.263c.003-.087.037-.086-.021-.127-.055-.039-.071-.033-.096-.072-.022-.04-.057-.045-.026-.105.03-.062.086-.08.118-.125.029-.044.175-.16.182-.206.008-.047-.016-.081.034-.12.052-.039.041-.111.047-.166.005-.055.01-.122.028-.166.021-.044.061-.112.061-.119 0-.008-.014-.112-.033-.152-.021-.035-.026-.055-.027-.11-.004-.055.02-.046-.004-.091-.025-.044-.044-.062-.062-.111-.021-.051-.003-.076.019-.122.023-.042.034-.048.146-.061.106-.008.158-.073.175-.125.012-.046-.004-.033.043-.093.049-.061.07-.068.113-.161.039-.09.016-.111.096-.14.08-.03.099-.012.112-.072.012-.06.089-.177.133-.219.048-.041.059-.062.125-.057.061.006.072-.055.133-.077.062-.024.042.011.067.018.032.004.12-.058.186-.081.069-.021.069-.042.1.004.032.047.11.168.185.185.073.018.107.021.155.021.047 0 .103.027.093-.064-.014-.09.021-.122-.025-.154-.049-.031-.049-.03-.118-.08-.07-.053-.1-.08-.119-.132-.022-.052-.041-.077-.038-.135 0-.057-.003-.103.042-.107.048-.008.104-.039.131-.065.026-.028.068-.091.091-.121.027-.03.083-.073.113-.111.027-.039.089-.076.044-.128-.044-.048-.018-.042-.061-.08-.049-.042-.069-.042-.052-.086.02-.049.053-.096.039-.12-.011-.021-.024-.032-.065-.019-.042.014-.012.004-.072-.014-.062-.014-.08-.039-.113-.042s-.08-.032-.134 0c-.061.03-.062.06-.144.012-.077-.048-.143-.121-.203-.103-.058.018-.23.099-.269.1-.042.003-.074-.038-.027-.085.048-.047.227-.223.247-.295.025-.073.047-.081-.017-.12-.065-.039-.053.036-.095-.075-.05-.107.018-.168-.066-.181-.083-.014-.133-.005-.136.056-.003.063.028.058-.029.087-.052.03-.095 0-.094-.036.005-.034-.044-.056.025-.118.076-.063.15-.106.14-.171-.011-.061.02-.079-.021-.1-.04-.021-.162-.022-.162-.022s-.005-.056-.071-.105c-.064-.052-.129-.091-.157-.043-.031.043-.118.1-.173.15-.056.051-.157.139-.197.195-.044.057-.031.182-.109.192-.078.01-.145.024-.212-.025-.067-.048-.067-.072-.16-.052-.091.017-.062.012-.149-.038-.087-.048-.166-.083-.183-.093-.021-.008.005-.116-.051-.091-.057.025-.053.065-.107.138-.057.072-.085.078-.163.127-.081.048-.074.031-.095.091-.025.061.009.085-.061.168-.062.085-.127.137-.158.19-.035.056-.015.083-.058.105-.047.021-.245.038-.271.06-.03.022 0 .064-.058.055-.057-.009-.107-.033-.158-.026-.05.009-.094.013-.123.066-.021.052-.013.083-.056.139-.042.056-.039.053-.026.098.012.047.016.112-.006.127-.021.013-.109.014-.184.039-.072.025-.057.025-.098.06-.037.032-.028.042-.07.07-.046.03-.036.064-.09.098-.057.031-.072.01-.078.072-.011.065.006.069.027.1.024.033.033.069.008.098-.025.027-.136.108-.177.133-.037.021 0 .007-.076-.015-.072-.025-.059-.033-.103-.013-.047.017-.067-.03-.116.021-.053.051-.072.021-.135.055-.068.035-.112.05-.137.072-.026.025-.027.018-.076-.009-.042-.026-.023-.042-.083-.071-.061-.029-.09-.057-.111-.055-.018 0-.094.044-.051.116.044.071.021.087.008.146-.019.067.042.106.047.164.005.062-.019.065.048.073.068.005.238.027.295.042.062.021.119.026.146.056.027.03.057.062.027.115-.029.055-.061.094-.045.152.015.06.013.133.006.163-.011.034-.012.063-.082.043-.074-.019-.171-.03-.209.022-.04.053.007.038-.074.064-.081.025-.052-.033-.162.013-.111.042-.035.069-.12.05-.083-.019-.196-.008-.239.016-.048.024.021.017-.091.051-.113.033-.125.033-.214.035-.091.005-.151-.021-.205-.076-.058-.052-.07-.098-.148-.091-.081.003-.116.034-.141.056-.027.024.004.012-.08.042-.083.029-.039.064-.082.089-.039.024-.091-.043-.119-.021-.027.021-.109.009-.108.066.004.054.018.08-.035.076-.051-.001-.084-.03-.134-.056-.043-.025.082-.032-.073-.047-.153-.013-.055-.05-.096-.074-.045-.023-.035-.043-.12-.014-.085.03-.061.01-.104.056-.044.044-.021.079-.067.02-.047-.062-.062-.064-.128-.108-.07-.048-.095-.048-.127-.09-.032-.043-.031-.044-.069-.101-.034-.055-.037-.042.013-.116.053-.078.062-.134.008-.187-.057-.048-.091-.024-.091-.093-.004-.069-.062-.014-.013-.109.048-.094.082-.1.078-.188-.007-.09.035-.13-.021-.194-.058-.063-.037-.061-.088-.106-.053-.049-.063-.099-.103-.099-.038 0-.072-.029-.125.025-.058.054-.019-.004-.093.09-.078.089-.062.08-.136.074-.071-.007-.1.001-.144.019-.049.017-.088-.048-.119.071-.027.119.012.111.031.141.024.025.055.04.051.103-.009.063-.051.048-.093.122-.038.072-.046.066-.054.133-.009.069-.02.185-.028.225-.016.04-.042.042-.056.111-.016.069-.02.091.015.153.03.064.077.126.132.211.056.087.047.163.047.203 0 .038.02.103.003.176-.017.076.008.125-.03.142-.038.014-.005-.012-.089-.03-.087-.02-.071 0-.187.03-.121.03-.137.034-.221.03-.081-.003-.063-.006-.166.009-.1.013-.1 0-.173-.06-.07-.057-.094-.062-.172-.09-.076-.031-.091.005-.175.06-.081.056-.064.064-.125.046-.062-.019-.089-.036-.174-.032-.087.001-.077-.029-.106-.082-.032-.051-.029-.09-.111-.078-.081.014-.073.093-.123.054-.049-.038-.074-.057-.151-.081-.075-.025-.113.072-.161.03-.049-.042-.055-.038-.076-.093-.026-.057-.042-.103-.146-.125-.104-.023-.138.085-.207.091-.062.005-.06.042-.14-.026-.082-.07-.059-.083-.182-.121-.125-.039-.106-.056-.214-.068-.103-.01-.123-.033-.119-.101.004-.061.004-.14-.042-.208-.042-.068-.082-.128-.089-.133-.005-.003-.067.006-.137.006-.068 0-.104.026-.15-.044-.047-.071-.033-.099-.132-.101-.095-.001-.107-.026-.155-.016-.051.014.021.018-.11.043-.134.029-.154.086-.18.101-.025.017-.027-.062-.103-.067-.078-.005-.143 0-.194.033-.048.033-.039.103-.061.114-.018.014-.012-.021-.07-.052-.062-.035-.106-.019-.221-.042-.11-.025-.152.029-.18-.021-.027-.046.003-.061.003-.119 0-.054-.045-.117-.12-.117-.077-.004-.168-.004-.198.025-.027.028-.061.048-.109.034-.055-.015-.021-.042-.102-.09-.082-.052-.098-.074-.184-.103-.084-.034-.086-.061-.188-.042-.099.021-.055.064-.17.036-.119-.029-.047-.08-.085-.106-.039-.026-.05-.005-.136-.049-.086-.043-.088-.009-.117-.098-.033-.092 0-.142-.076-.156-.078-.013.041.145-.086.042-.126-.102-.146-.144-.188-.202-.036-.06.01-.078-.064-.078s-.041.009-.18-.014c-.144-.026-.189-.042-.216-.042-.021 0-.009-.011-.08-.108-.073-.097-.073-.141-.115-.132-.044.009-.061.097-.078.117-.021.016-.063-.009-.118-.049-.058-.041-.058-.041-.134-.085-.078-.043-.109-.061-.144-.104-.033-.043-.02-.115.02-.117.038-.003.108-.026.108-.086 0-.059-.021-.076.009-.129.033-.055.057-.034.066-.09.011-.052.017-.08-.008-.151-.027-.069-.008-.119.012-.152.02-.032.1-.08.101-.141.003-.062.008-.112.028-.148.021-.034-.009 0 .065-.061.069-.061.06-.074.09-.125.026-.046.056-.044.109-.065.052-.021.106-.071.136-.128.029-.058-.039-.073.049-.096.086-.02.092-.013.143-.042.043-.026.051-.106.033-.139-.015-.033-.056-.056-.108-.051-.054.004-.112.028-.144-.025-.031-.053-.02-.073-.066-.134-.048-.06-.063-.069-.111-.057-.048.014-.112.036-.166-.001-.055-.035-.01-.073-.07-.057-.059.018-.076.063-.105-.018-.034-.083-.064-.232-.076-.249-.014-.018-.025.029-.09-.03-.065-.062-.044-.099-.107-.098-.062.005-.082.026-.135-.038-.057-.062-.041-.079-.113-.075-.072.003-.104.024-.158.029-.052.001-.079-.005-.137-.06-.057-.056-.057-.038-.081-.103-.026-.064-.05-.024-.044-.089.004-.063-.021-.076-.048-.124-.027-.05-.06-.047-.1-.105-.038-.058-.018-.042-.046-.068-.029-.027-.072-.043-.145.016-.073.058-.052.13-.08.16-.029.033.023.069-.041.029-.065-.039-.053-.112-.069-.151-.018-.035-.082-.044-.044-.121.036-.075.087-.039.093-.09.005-.054.009-.086-.021-.115-.034-.033-.072-.121-.063-.178.008-.06.029-.066.029-.132 0-.065.004-.064-.048-.101-.048-.035-.09-.115-.095-.158 0-.043.104-.026-.017-.072-.116-.045-.095-.013-.103-.058-.004-.048.014-.08.018-.121.006-.042-.023-.072-.008-.168.015-.097.043-.137.119-.097.08.042.095.02.098.087.001.068.035.199.081.234.043.033.097.106.177.077.078-.031.112-.042.104-.096-.009-.057-.057-.074.002-.106.052-.031.098-.029.122-.035.024-.007-.019-.048.04-.068.055-.022.062-.019.096 0 .035.016.132-.048.16-.067.027-.02.043.009.076-.069.029-.081.043-.051 0-.16-.043-.108-.069-.11-.135-.185-.066-.074-.136-.033-.119-.142.012-.108.012-.11.047-.162.038-.055.031-.109-.025-.138-.059-.026-.09-.048-.176-.056-.086-.005-.05-.032-.142-.028-.089.004-.11.031-.128-.034-.017-.063-.003-.142.002-.211.012-.07.027-.117.083-.164.058-.046.099-.06.076-.096-.023-.036 0 .033-.034-.049-.031-.082-.012-.086-.054-.086-.044 0-.048.035-.093-.01s-.059-.043-.031-.068c.021-.024 0-.03.03-.068.03-.04.018-.086.116-.056.102.03.166.078.253.099.086.018.095.043.133.008.038-.038-.011-.073.044-.11.059-.039.047-.006.076-.06.025-.055.027-.089.059-.189.03-.104-.005-.128.053-.145.057-.02.02-.018.105-.038.082-.02.114-.02.108-.082-.006-.061-.044-.096.009-.133.053-.039.155-.029.171-.026.014.004.128-.09.116-.155-.012-.067-.032-.067-.017-.15.021-.08.044-.052.059-.136.018-.085-.009-.073.044-.145.051-.074.09-.1.109-.139.017-.039.008-.149.008-.2 0-.048.008-.096-.029-.127-.04-.033-.059-.042-.113-.093-.053-.052-.041-.006-.103-.067-.067-.06-.07-.048-.108-.094-.039-.044.017-.064-.067-.067-.087-.004-.07.019-.145-.004-.073-.021-.033-.018-.094-.047-.065-.028-.042-.04-.104-.038-.061.005-.059 0-.085-.06-.024-.059-.012-.109-.062-.098-.052.009-.034.014-.089.054-.057.042-.016.021-.125.062-.113.04-.029.088-.135.077-.102-.008-.07-.014-.135-.02-.07-.005-.098-.069-.132-.029-.033.04.021.098-.051.088-.068-.011-.102-.024-.126.001-.021.026-.028.046-.05.046-.02-.003-.07-.052-.114-.032-.04.021-.01.043-.079.04-.068-.006-.08-.033-.088.01-.009.043-.043.104-.08.147-.039.044-.099.073-.145.083-.044.011-.051-.024-.105-.001-.06.022-.086.04-.107.058-.023.021-.035-.014-.097.017-.065.028-.027.057-.112.047-.081-.013-.1.007-.119-.034-.018-.038-.014-.139-.064-.21-.052-.073-.039-.021-.064-.089-.023-.071-.033-.062-.125-.061-.09.001-.202.026-.288.018-.083-.013-.129-.018-.134-.083-.006-.068.004-.074-.029-.124-.031-.049-.04-.078-.044-.155-.005-.078-.019-.08-.087-.1-.068-.018-.064.014-.113-.05-.048-.063-.018-.022-.063-.086-.05-.061.012-.069-.072-.077-.086-.006-.056-.004-.136-.024-.08-.021-.09-.031-.137-.082-.051-.052-.099-.001-.129-.064-.032-.061.006-.091-.048-.135-.058-.044.007 0-.098-.068-.095-.07-.082-.069-.12-.111-.035-.042-.033-.066-.068-.132-.035-.066-.016-.062-.051-.082-.034-.02-.108.008-.115-.083-.008-.094-.008-.094-.073-.107-.069-.019-.061-.026-.085.006-.021.036-.078.058-.125.067-.053.006-.047-.077-.09-.038-.047.038.007.024-.069.054-.074.033-.089.022-.128-.044-.04-.068-.044-.082-.106-.083-.056-.002-.09.083-.121.112-.028.029 0 .045-.056.026-.058-.017-.081-.082-.102-.084-.019-.003-.065 0-.091.029-.021.031-.059.089-.105.097-.047.005-.08-.02-.112.017-.032.037-.025.056-.052.064-.027.007-.053-.019-.125-.064-.073-.045-.089-.074-.151-.056-.062.019-.052.039-.046.094.006.057.021.064.074.095.051.028.093.05.088.078-.004.027-.109.067-.166.033-.057-.036.021-.031-.081-.048-.102-.016-.093-.078-.142-.064-.048.013-.064.005-.133.025-.068.021-.088.04-.149.031-.066-.011-.104-.045-.115.008-.013.056.034.042-.008.089-.042.044-.066.057-.07.096-.007.038-.012.052-.042.052-.03 0-.022-.033-.068.017-.048.048-.054.061-.043.1.009.039.031.077-.014.091-.044.018-.089-.011-.113.006-.024.021-.052.054-.094.089-.04.035-.019.022-.093.035-.076.012-.086.03-.074.098.013.068.013.137.036.172.021.032.025.04.021.086-.006.048-.018.052 0 .104.022.052.029.114.138.102.107-.01-.05.004.171-.004.217-.011.188.002.231.035.043.036.064.107.108.145.046.034.06.027.094.073.031.044.039.029.056.071.018.04.021.062.06.084.038.02.082.042.122-.01.042-.053.054-.082.066-.049.008.031.019.04.016.076-.001.036.013.16.033.193.017.032.054.025.078.076.021.049.06.062.085.087.021.025.052.012.115.032.063.017.08 0 .09.038.009.038.044.071-.026.106-.067.036-.063.034-.09.076-.023.043-.001.046-.042.067-.04.021-.007.005-.073.033-.072.028-.105.011-.146.035-.042.022-.056.035-.073.076-.019.04-.039.072-.073.105-.035.033.001.052-.083.072-.087.02-.154-.011-.142.036.012.043.021.024.054.072.033.048.017.075-.008.129-.022.057-.051.058-.022.099.026.039.063.065.083.095.021.025.046-.013.03.055-.016.068-.016.091-.044.121-.027.03-.062-.025-.052.058.007.083.042.132.061.16.021.028.051-.034.051.043s-.003.225.027.27c.031.042.07.058.032.08-.036.02-.062-.03-.076.086-.014.119.005.184.014.23.008.046-.063.046-.054.112.012.064-.01.131.036.167.043.038.034.047.136.099.104.052.166.091.233.085.067-.008.086-.028.144.018.061.044.082.055.142.102.058.047.06.15.149.142.088-.009.146-.001.186.003.042.004.085-.012.056.038-.034.047-.04.16.001.197.044.035.054.084.14.102.087.021.118.007.188.021.072.013.088-.008.103.02-.004-.009.001.028.067.024"/><clipPath id="4"><use xlink:href="#8"/></clipPath><clipPath id="2"><use xlink:href="#6"/></clipPath><clipPath id="3"><use xlink:href="#7"/></clipPath><clipPath id="5"><use xlink:href="#9"/></clipPath><linearGradient id="0" gradientUnits="userSpaceOnUse" y1="192.31" x2="0" y2="589.51"><stop offset=".005" stop-color="#7b7a8d"/><stop offset="1" stop-color="#2d2c3d"/></linearGradient><linearGradient id="1" gradientUnits="userSpaceOnUse" x1="24.15" x2="680.23"><stop stop-color="#bf443f"/><stop offset=".496" stop-color="#db5752"/><stop offset="1" stop-color="#bf443f"/></linearGradient></defs><path fill="#edecec" d="m680.8 293.35c-11.942 1.25-78.79 8.724-107.7 11.02-4.099.263-3.374-10.817-3.374-10.817s1.646-30.559 1.646-37.22c0-6.655-4.991-35.14-35.645-45.33-28.831-9.144-126.5-40.12-128.51-40.756-2.01-.64-.831-3.328-.831-3.328s9.685-43.842 9.98-45.746c.294-1.904.294-1.904-1.162-4.487-1.437-2.553-35.05-23.689-64.05-24.19v-.023c-.171 0-.347.009-.519.011-.17-.001-.344-.011-.514-.011v.023c-29.01.495-62.62 21.632-64.05 24.19-1.457 2.583-1.457 2.583-1.164 4.487.295 1.904 9.983 45.746 9.983 45.746s1.177 2.688-.832 3.328c-2.01.635-99.68 31.611-128.51 40.756-30.654 10.188-35.646 38.675-35.646 45.33 0 6.657 1.645 37.22 1.645 37.22s.723 11.08-3.372 10.817c-28.917-2.299-95.76-9.773-107.71-11.02-11.949-1.248-17.396 6.533-17.193 15.558 2.15 95.88 62.04 186.84 71.6 195.58 7.32 6.748 14.481 8.244 14.481 8.244s91.11 13.294 94.49 13.93c2.037.383 6.654 5.82 6.654 5.82s10.519 32.23 32.01 53.52c25.919 28.413 68.22 27.579 68.22 27.579h59.39 1.032 59.39c0 0 42.3.834 68.22-27.579 21.492-21.286 32.01-53.52 32.01-53.52s4.615-5.438 6.653-5.82c3.375-.636 94.49-13.93 94.49-13.93s7.159-1.497 14.482-8.244c9.564-8.734 69.45-99.69 71.6-195.58.206-9.02-5.241-16.806-17.193-15.558"/><path fill="url(#0)" d="m546.22 272.47c-1.681-13.916-11.957-29.84-22.353-33.17-10.05-3.217-162.79-44.12-173-46.847v-.147c0 0-.11.03-.273.074-.16-.043-.273-.074-.273-.074v.147c-10.202 2.731-162.95 43.63-173 46.847-10.395 3.326-20.672 19.251-22.353 33.17-1.678 13.915 35.32 317.83 128.27 316.9 48.752.289 65.16.043 67.35.005 2.194.038 18.602.284 67.35-.005 92.95.935 129.95-302.98 128.27-316.9"/><path fill="#343344" d="m126.87 390.91v-33.55h20.77v12.78h14.38v-8.79h5.59v-78.29h19.97v-14.37h20.77v11.18h28.76v23.97h9.59v-39.15h5.59v-17.05h7.99v7.46h23.16v55.92h12.79v-19.97h7.19v-18.37h6.39v-9.59h22.36v48.73h12.79v-51.12h23.97v32.75h14.37v-35.15h36.75v50.33h15.18v12.64h9.58v-56.58h6.4v-7.99h5.59v-9.06h18.37v9.86h7.99v34.35h27.16v39.14h11.98v-15.17h19.08l-9.06 80.86z"/><path fill="url(#1)" d="m680.23 317.58c0 0-182.93 23.887-201.77 29.378-17.848 5.204-115.98 36.756-126.27 40.07-10.293-3.309-108.43-34.864-126.28-40.07-18.842-5.492-201.76-29.378-201.76-29.378l5.493 23.297c0 0 17.65 11.677 63.05 15.871-24.928-.083-39.06 1.036-59.24-1.188.377 3.56 3.874 13.314 3.874 13.314s6.852 13.06 63.833 18.927c-36.842 1.03-59.28-.861-59.28-.861l4.791 13.04c0 0 5.887 12.4 64.856 18.529-47.992 1.586-57.754-.655-57.754-.655s.359 3.432 3.443 9.724c4.311 6.527 43.777 13.354 60.838 15.11-41.465 1.136-52.599-.098-53.704-.217 2.815 5.506 1.459 3.366 4.941 8.728 16.942 12.577 63.06 16.753 63.06 16.753s-48.752.415-53.22-.435c4.209 6.274 10.145 14.284 15.782 19.04 7.703 2.63 50.948 17.194 256.39 23.01 0 .017 0 .036 0 .052.301-.008.591-.017.887-.022.299.008.591.018.891.022 0-.016 0-.035 0-.052 205.44-5.821 248.68-20.384 256.39-23.01 5.639-4.758 11.573-12.767 15.783-19.04-4.47.85-53.22.435-53.22.435s46.12-4.178 63.06-16.753c3.481-5.361 2.126-3.222 4.942-8.728-1.106.119-12.24 1.354-53.707.217 17.06-1.755 56.53-8.583 60.841-15.11 4.312-6.531 3.442-9.724 3.442-9.724s-9.761 2.239-57.756.655c58.972-6.129 64.86-18.529 64.86-18.529l4.79-13.04c0 0-22.433 1.893-59.27.861 56.98-5.869 63.835-18.927 63.835-18.927s3.496-9.753 3.876-13.314c-20.19 2.225-34.31 1.105-59.24 1.188 45.4-4.194 63.05-15.871 63.05-15.871l5.491-23.297"/><g fill="#fff"><path d="m265.78 538.29c-.317 3.167-.636 6.333-.954 9.499 3.334.336 6.672.649 10.01.948-.734 1.471-1.784 2.717-3.215 3.67-1.431.956-3.485 1.342-6.221 1.068-3.066-.301-5.43-1.575-7.07-3.799-1.641-2.227-2.251-5.176-1.847-8.847.39-3.543 1.484-6.238 3.267-8.098 1.783-1.855 4.097-2.637 7.02-2.343 1.234.125 2.447.501 3.698 1.132 1.256.631 2.218 1.552 2.963 2.771 4.164-.661 8.319-1.347 12.459-2.063-1.523-3.95-3.873-7.079-7.04-9.462-3.169-2.389-6.858-3.751-11.03-4.104-3.083-.308-5.962-.038-8.715.748-2.752.789-5.184 2.111-7.358 3.905-2.173 1.795-3.954 4.02-5.409 6.724-1.455 2.707-2.37 5.803-2.806 9.277-.432 3.475-.299 6.7.482 9.683.781 2.98 2.023 5.566 3.735 7.755 1.709 2.188 3.886 3.975 6.46 5.346 2.58 1.309 5.49 2.194 8.661 2.513 1.822.185 3.741.053 5.752-.335 2.02-.449 3.653-1.259 4.902-2.36.046.004.09.008.133.01-.005.063-.021.258-.124.629-.101.375-.176 1.2-.277 2.337 3.574.32 7.151.622 10.733.9.804-8.559 1.604-17.12 2.403-25.671-6.875-.533-13.743-1.145-20.609-1.833"/><path d="m338.82 568.48c4.486.092 8.977.148 13.466.177-5.438-14.862-10.619-29.775-15.536-44.729-4.193-.094-8.385-.223-12.576-.38-5.838 14.624-11.935 29.19-18.292 43.701 4.482.242 8.969.456 13.454.641.686-1.862 1.367-3.727 2.045-5.592 5.245.206 10.488.366 15.733.48.566 1.902 1.133 3.803 1.706 5.702m-13.833-16.813c.89-2.517 1.768-5.03 2.644-7.553.292-.819.58-1.639.87-2.453.295-.82.512-1.58.729-2.209.217-.629.363-1.136.507-1.513.05-.187.102-.376.147-.57.043.005.089.005.132.011.038.211.074.424.111.636.121.385.236.897.415 1.543.177.642.35 1.412.588 2.246.239.836.481 1.667.72 2.503.677 2.544 1.361 5.09 2.047 7.633-2.968-.078-5.94-.17-8.91-.274"/><path d="m374.02 523.91c.268 14.852.529 29.699.794 44.554 6.114-.109 12.225-.278 18.333-.506 3.449-.129 6.609-.771 9.463-1.926 2.854-1.155 5.273-2.749 7.248-4.77 1.979-2.02 3.45-4.405 4.485-7.209 1.034-2.805 1.438-5.893 1.23-9.26-.21-3.366-.995-6.381-2.339-9.104-1.345-2.726-3.11-4.979-5.294-6.838-2.184-1.854-4.719-3.252-7.607-4.198-2.892-.951-5.939-1.33-9.228-1.209.085-.004.171-.005.258-.01-5.78.214-11.56.373-17.343.476m13.03 33.05c-.226-7.339-.454-14.681-.685-22.02 1.96-.06 3.917-.128 5.877-.201 1.368-.051 2.684.154 3.944.609 1.262.456 2.339 1.11 3.3 2.02.959.914 1.732 2.024 2.327 3.397.591 1.375.933 2.949 1.02 4.798.082 1.715-.105 3.255-.574 4.615-.467 1.36-1.145 2.542-1.969 3.468-.826.933-1.863 1.679-3.044 2.172-1.184.495-2.512.803-3.983.858-.042.026-.087.048-.129.069-2.026.076-4.055.148-6.084.21"/><path d="m454.27 563.77c-1.509-14.771-3.02-29.553-4.526-44.33-4.03.411-8.06.799-12.08 1.152 1.312 14.798 2.619 29.592 3.933 44.39 4.228-.375 8.453-.776 12.677-1.209"/><path d="m257.71 472.23c-9.326-12.262-18.478-24.586-27.451-36.975 3.981-.746 7.399-2.01 10.254-3.792 2.854-1.778 5.231-3.895 7.129-6.339 1.899-2.44 3.333-5.15 4.313-8.122.977-2.971 1.547-6.02 1.724-9.167.212-3.835-.196-7.588-1.207-11.27-1.01-3.681-2.742-7.01-5.183-9.991-2.445-2.982-5.701-5.449-9.776-7.409-4.075-1.968-9.05-3.152-14.933-3.576-14.275-1.028-28.536-2.215-42.791-3.563-.509 5.355-1.014 10.714-1.522 16.07.064.01.129.016.192.021-.066.025-.133.05-.201.078 6.448 10.02 13 20.01 19.663 29.979-.214-.02-.426-.038-.64-.056-.143-.011-.284-.021-.427-.032-7.084-.593-14.165-1.221-21.248-1.892-1.568 16.568-3.136 33.14-4.707 49.709 7.258.685 14.519 1.332 21.778 1.941.943-11.226 1.883-22.45 2.826-33.675 4.74.397 9.485.775 14.229 1.137 8.358 11.938 16.877 23.821 25.555 35.646 7.477.47 14.949.896 22.423 1.281m-58.5-82.27c5.467.457 10.938.888 16.408 1.303 2.432.182 4.752.524 6.97 1.029 2.216.508 4.137 1.316 5.768 2.44 1.629 1.122 2.895 2.623 3.803 4.513.906 1.891 1.262 4.34 1.064 7.356-.16 2.448-.652 4.479-1.47 6.099-.823 1.616-1.872 2.919-3.142 3.904-1.272.985-2.755 1.703-4.447 2.157-1.694.447-3.488.698-5.384.751-2.042-2.86-4.076-5.725-6.099-8.594-4.895-6.996-9.734-14.01-14.519-21.05.35.026.698.058 1.048.087"/><path d="m312 380.16c-13.244 31.06-27.09 61.996-41.537 92.78 7.609.343 15.219.643 22.832.9 2.929-6.922 5.834-13.848 8.71-20.783.425-.932.845-1.86 1.268-2.796 14.682 8.366 29.54 16.569 44.579 24.604.036.03.065.063.103.097 7.845.055 15.69.065 23.543.028-13.04-31.34-25.49-62.808-37.33-94.38-7.389-.105-14.779-.252-22.16-.444m10.27 23.462c.1.003.193.007.289.007 2.604 7.669 5.245 15.332 7.909 22.988 3.078 8.673 6.193 17.334 9.35 25.992-10.266-5.587-20.443-11.256-30.538-17 1.048-2.552 2.092-5.108 3.131-7.662 3.328-8.1 6.614-16.209 9.859-24.324"/><path d="m438.63 392.26c-.17-4.372-.34-8.742-.51-13.11-4.752.186-9.509.354-14.264.504-6.941.222-13.884.401-20.827.55-4.756.096-9.512.18-14.267.243.059 4.375.119 8.744.179 13.12 4.789-.065 9.578-.147 14.365-.247.473 22.647.948 45.3 1.423 67.945-4.955.104-9.909.188-14.863.253.059 4.408.122 8.81.179 13.214 4.989-.067 9.976-.155 14.962-.257 7.283-.153 14.564-.346 21.842-.574 4.986-.155 9.97-.334 14.956-.527-.172-4.402-.346-8.804-.517-13.202-4.953.189-9.907.367-14.859.521-.719-22.642-1.438-45.28-2.156-67.925 4.788-.15 9.574-.319 14.357-.505"/><path d="m455.32 378.21c1.511 31.458 3.02 62.916 4.529 94.38 26.745-1.279 53.47-3.089 80.16-5.42-.511-5.801-1.017-11.599-1.527-17.398-19.2 1.678-38.41 3.083-57.64 4.213-1.508-25.628-3.02-51.26-4.528-76.889-6.995.411-13.995.783-20.995 1.119"/></g><g stroke="#edecec" stroke-width="11.697" stroke-miterlimit="10"><g fill="#d3342e"><path d="m316.14 142.39c13.05-9.869 34.429-10.281 34.429-10.281l.395 68.41c0 0-2.342 0-5.821 0-10.01 0-13.173 4.352-13.173 4.352s-9.92-39.855-15.83-62.48z"/><path d="m385 142.39c-13.05-9.869-34.429-10.281-34.429-10.281l-.397 68.41c0 0 2.343 0 5.821 0 10 0 13.173 4.352 13.173 4.352s9.923-39.855 15.832-62.48z"/></g><path fill="#b12333" d="m338.87 180.81h24.267v24.448h-24.267v-24.448z"/><path fill="#d3342e" d="m372.79 196.98c0 0 27.19 4.059 42.22 12.226-5.646 6.693-6.14 9.07-6.14 9.07s-26.456-11.04-35.29-11.04c-8.721 0-.788 49.29-.788 49.29v-59.55z"/><path fill="#db6b67" d="m321.56 234.49c0 0-29.579 26.368-27.992 14.214 1.587-12.155-1.181-28.827-1.181-28.827s27.446-11.06 36.27-11.06c8.717 0 .789 47.777.789 47.777l-7.889-22.11z"/><path fill="#d3342e" d="m329.01 196.98c0 0-27.17 4.066-42.19 12.241 5.641 6.702 7.365 12.1 7.365 12.1s25.21-14.07 34.04-14.07c8.713 0 .786 49.36.786 49.36l.002-59.62z"/><path fill="#db6b67" d="m379.81 234.44c0 0 29.604 26.336 28.02 14.196-1.588-12.138 1.182-28.788 1.182-28.788s-27.462-11.04-36.3-11.04c-8.722 0-.788 47.715-.788 47.715l7.892-22.08z"/><circle fill="#edecec" cx="350.36" cy="167.64" r="22.454"/><path fill="#282828" d="m350.47 146.5c11.552 0 20.913 9.357 20.913 20.9s-9.362 20.901-20.913 20.901-20.914-9.357-20.914-20.901c.002-11.541 9.365-20.9 20.914-20.9z"/><g fill="#c42c26"><path d="m403.62 288.57h27.433c.479 0 .87.391.87.874v20.847c0 .482-.391.871-.87.871h-27.433c-.479 0-.874-.389-.874-.871v-20.847c.001-.484.394-.874.874-.874z"/><path d="m352 288.46h48.763c.481 0 .874.39.874.873v21.13c0 .48-.391.873-.874.873h-48.763c-.482 0-.873-.392-.873-.873v-21.12c0-.483.391-.873.873-.873z"/><path d="m271.38 288.57h27.442c.482 0 .874.391.874.874v20.847c0 .482-.39.871-.874.871h-27.442c-.48 0-.872-.389-.872-.871v-20.847c.001-.484.391-.874.872-.874z"/><path d="m301.46 288.46h48.786c.481 0 .876.39.876.873v21.13c0 .48-.393.873-.876.873h-48.786c-.48 0-.871-.392-.871-.873v-21.12c.001-.483.391-.873.871-.873z"/></g><g fill="#403f4e"><ellipse cx="446.5" cy="341.39" rx="15.695" ry="15.479"/><circle cx="257.05" cy="341.39" r="15.479"/></g><circle cx="446.28" cy="341.17" r="5.01"/><path d="m256.72 336.18c2.725 0 4.932 2.207 4.932 4.927 0 2.724-2.208 4.927-4.932 4.927-2.725 0-4.93-2.205-4.93-4.927-.001-2.721 2.204-4.927 4.93-4.927z"/><circle fill="#fff" cx="350.36" cy="167.86" r="7.848"/><path d="m350.41 223.4c19 0 34.402 15.367 34.402 34.32s-15.401 34.33-34.402 34.33-34.401-15.37-34.401-34.33c-.001-18.955 15.401-34.32 34.401-34.32z"/><path fill="#20202e" d="m442.57 333.1h-15.237v14.953l-.055 18.501v.077l-76.15 26.859-76.21-26.859-.054-9.636c0 0 .029.01.081.027v-23.922h-15.703c-.482 0-.872-.391-.872-.874v-19.11c0-.482.39-.874.872-.874h183.32c.479 0 .873.391.873.874v19.11c-.001.483-.391.874-.871.874zm-30.04 28.924v-28.922h-6.531v31.15c2.289-.782 4.481-1.531 6.531-2.229zm-10.888 3.716v-32.64h-6.093v34.728c2.057-.707 4.099-1.407 6.093-2.088zm-10.451 3.586v-36.23h-6.531v38.478c2.157-.745 4.343-1.498 6.531-2.253zm-10.885 3.764v-39.99h-6.095v42.11c1.975-.691 4.01-1.402 6.095-2.122zm-10.45 3.643v-43.633h-6.531v45.921c2.04-.715 4.231-1.485 6.531-2.288zm-10.887 3.827v-47.46h-5.659v49.46c1.619-.577 3.522-1.247 5.659-2zm-10.01 2v-49.46h-5.662v47.46c2.136.751 4.04 1.426 5.662 2zm-10.01-3.532v-45.93h-6.533v43.636c2.298.807 4.487 1.573 6.533 2.294zm-10.888-3.813v-42.12h-6.098v39.998c2.084.72 4.121 1.431 6.098 2.119zm-10.45-3.628v-38.489h-6.533v36.24c2.189.754 4.378 1.509 6.533 2.254zm-10.886-3.749v-34.74h-6.097v32.652c1.996.683 4.04 1.383 6.097 2.088zm-10.451-3.575v-31.17h-6.533v28.937c2.051.7 4.244 1.447 6.533 2.228zm-16.973-5.773c1.659.564 3.721 1.261 6.086 2.063v-27.455h-6.086v25.392zm137.59-25.392v27.441c2.373-.806 4.44-1.509 6.098-2.07v-25.371h-6.098z"/><path opacity=".6" d="m274.59 332.85h152.32v6.381h-152.32v-6.381z"/><path fill="#2d2c3d" d="m351.13 198.68c32.2 0 58.3 26.08 58.3 58.26 0 32.18-26.1 58.27-58.3 58.27-32.2 0-58.3-26.08-58.3-58.27 0-32.18 26.1-58.26 58.3-58.26z"/><path fill="#403f4d" d="m351.01 218.88c19.868 0 35.972 16.1 35.972 35.972 0 19.865-16.1 35.968-35.972 35.968-19.865 0-35.969-16.1-35.969-35.968 0-19.868 16.1-35.972 35.969-35.972z"/><circle fill="#2d2c3d" cx="351.23" cy="254.63" r="29.866"/><circle fill="#d3342e" cx="351.01" cy="255.06" r="22.02"/><g fill="#db2f43"><path d="m300.44 253.58c.759 0 1.373.616 1.373 1.373 0 .759-.616 1.373-1.373 1.373-.758 0-1.374-.614-1.374-1.373.001-.757.615-1.373 1.374-1.373z"/><path d="m401.59 253.58c.76 0 1.37.616 1.37 1.373 0 .759-.612 1.373-1.37 1.373-.759 0-1.373-.614-1.373-1.373.001-.759.614-1.373 1.373-1.373z"/><path d="m351.22 203.04c.762 0 1.376.61 1.376 1.364 0 .754-.616 1.365-1.376 1.365-.762 0-1.379-.61-1.379-1.365.002-.755.619-1.364 1.379-1.364z"/><path d="m350.81 304.12c.763 0 1.38.612 1.38 1.365 0 .755-.617 1.365-1.38 1.365-.762 0-1.377-.609-1.377-1.365-.002-.755.615-1.365 1.377-1.365z"/></g></g><use fill="#fff" xlink:href="#A"/><g clip-path="url(#2)" fill="#fff" stroke="#edecec" stroke-width="11.697" stroke-miterlimit="10"><path d="m366.74 247.84c-1.013.498-2.087.869-3.179 1.271-.154.089-.304.181-.455.282-2.673 1.863-6.52.732-8.394-1.709-4.868.71-10.05 2.062-14.876 3.4-.25.312-.518.608-.797.896v5.134c2.298-.378 4.685-.841 7.155-1.354 10.286-2.132 17.442-.348 21.93 1.84.062-.129.125-.25.191-.374.109-.215.373-.911.383-.912.073-.226.137-.455.191-.685.08-.352.344-1.941.103-.12.125-.955.276-1.81.594-2.602v-3.953c-.868-.471-1.822-.837-2.846-1.114z"/><path d="m359.52 254.28c-5.641-4.234-9.329-12.358-16.542-9.581-.159.695-.356 1.375-.617 2.034-.789 1.994-1.896 3.776-3.323 5.256v1.886c4.088-1.242 7.613-1.774 11.09.305 5.241 3.131 11.921 5.834 17.688 4.047.038-.077.08-.154.12-.229.127-.253.244-.511.378-.76.11-.211.374-.908.385-.91.073-.226.137-.455.191-.687.081-.35.344-1.941.103-.12.127-.955.278-1.811.593-2.604v-.473c-2.801 2.466-6.583 4.452-10.07 1.836z"/><path d="m351.91 253.18c-2.768-3.468-6.315-5.061-9.955-5.532-.747 1.628-1.721 3.09-2.924 4.339v4.467c13.14 1.913 22.78 3.515 28.848 1.638.018-.033.032-.064.054-.1.124-.253.241-.51.375-.759.11-.211.374-.909.385-.91.073-.227.137-.455.193-.687.08-.35.343-1.941.103-.12.125-.955.275-1.81.594-2.603v-2.487c-3.619 3.942-11.434 10.578-17.673 2.754z"/><path d="m368.99 251.66c-1.188.803-3.01.346-7.576-1.497-2.596.648-5.603-.676-7.02-2.904-5.472-2.159-8.53-2.107-12.156-.262-.777 1.887-1.846 3.577-3.212 4.992v.474c.476-.173.949-.351 1.428-.531 10.283-3.934 16.994.812 25.76 1.827 1.109.132 2.114.193 3.034.213.088-.363.194-.715.327-1.054v-1.545c-.261.109-.464.203-.588.287z"/></g><g clip-path="url(#3)" fill="#fff" stroke="#edecec" stroke-width="11.697" stroke-miterlimit="10"><path d="m353.66 242.38c-.013-.02-.03-.042-.042-.062-.304-.519-.513-1.044-.649-1.579-3.623.915-6.962 1.758-9.702 2.26-.151 1.202-.408 2.379-.829 3.499 3.405.067 7.17-.261 11.24-.835-.323-1.105-.303-2.216-.018-3.283z"/><path d="m353.62 242.32c-.357-.609-.587-1.231-.713-1.864-.473-.119-.925-.286-1.348-.503-.524-.019-1.034-.103-1.521-.242-2.29 1.431-4.579 2.643-6.799 3.504-.12.878-.3 1.741-.556 2.577 4.123-.723 7.664-1.919 10.85-2.853.035-.187.081-.373.128-.559-.016-.018-.031-.037-.041-.06z"/><path d="m353.66 242.39c-.015-.021-.03-.043-.043-.066-.357-.609-.587-1.231-.713-1.864-.473-.117-.925-.286-1.352-.503-1.278-.046-2.466-.48-3.456-1.182-.411.033-.816.077-1.226.125-.071.009-.142.019-.215.024-.105.015-.217.027-.326.042l.132-.018c-.366.04-.721.063-1.067.069-.292.077-.58.154-.87.236-.354.104-.708.206-1.062.314-.005 1.577-.099 3.174-.403 4.713 2.638-.213 5.643-.163 9.05.276.463.057.919.119 1.374.176-.098-.789-.025-1.577.177-2.342z"/><path d="m343.1 244.1c3.258-.396 6.693-1.223 10.236-2.323-.198-.434-.34-.876-.428-1.32-.399-.1-.781-.232-1.15-.402-.18.116-.357.229-.544.35-2.283 1.472-5.05 1.873-7.851 1.695-.055.675-.141 1.342-.263 2z"/></g><g clip-path="url(#4)" fill="#fff" stroke="#edecec" stroke-width="11.697" stroke-miterlimit="10"><path d="m358.19 264.01c.179-.428.337-.798.35-.833 0 .001 0 .001-.001.005.006-.009.006-.009.001-.005 1.089-2.487 3.714-3.462 6.188-3.749.774-.091 1.576.001 2.364.131.222-.382.433-.771.634-1.162-10.353.004-21.611 1.591-28.09 1.301-.202-.009-.402-.02-.597-.031v.241c.945.548 1.784 1.33 2.44 2.286.337.492.652.979.949 1.467 4.471.669 9.558.887 15.11.91.207-.196.424-.385.656-.561z"/><path d="m359.8 261.4c1.309-1.215 3.153-1.775 4.925-1.982.774-.091 1.575.001 2.364.131.296-.515.58-1.033.845-1.562.125-.253.242-.51.376-.759.031-.062.078-.166.13-.284-3.069-3.346-6.803-5.229-13.588-1.875-5.243 2.595-10.557 4.634-15.255 5.195.716.512 1.356 1.159 1.877 1.923.082.122.16.241.241.36 7.301-.166 13.175-1.805 18.09-1.147z"/><path d="m358.19 264.01c.179-.428.337-.798.35-.833 0 .001 0 .001-.001.005.006-.009.006-.009.001-.005 1.051-2.4 3.532-3.391 5.931-3.714-7.855-6.698-20.936-4.29-25.436-2.437v2.885c.502.292.978.649 1.41 1.068 3.02.222 6.438.841 10.286 2.04 2.218.691 4.341 1.362 6.381 2 .32-.371.679-.711 1.078-1.014z"/><path d="m363.21 259.69c.502-.122 1.01-.21 1.516-.268.774-.091 1.575.001 2.364.131.296-.514.58-1.033.843-1.563.127-.253.244-.51.378-.759.062-.121.179-.402.266-.622-6.451-2.986-9.87-1.574-18.02 1.853-3.586 1.505-7.732.846-11.516-.569v2.01c.423.244.827.54 1.201.876 4.739.378 10-.061 15.523-.932 2.743-.432 5.191-.436 7.449-.154z"/></g><g stroke="#edecec" stroke-width="11.697" stroke-miterlimit="10"><g clip-path="url(#5)" fill="#fff"><path d="m356.26 266.25c-3.952-.271-8.214-.189-12.422.023.177.378.35.767.514 1.167.575 1.403.878 2.895 1.355 4.331.031.097.099.271.177.478 2.416.046 4.64.235 6.677.536.756-2.156 1.91-4.165 3.405-5.917.086-.21.185-.413.294-.618z"/><path d="m344.35 267.44c.283.689.502 1.407.707 2.125 1.261.395 2.458.996 3.599 1.896 1.039.82 2.149 1.63 3.31 2.4.144-.159.282-.312.386-.428.527-1.709 1.297-3.344 2.295-4.835-3.465-4.678-6.664-9.178-13.676-7.07.177.207.349.43.503.656 1.162 1.701 2.092 3.34 2.876 5.254z"/><path d="m345.71 271.77c.129.392.846 2.122.657 1.766.163.349.34.688.533 1.018 1.215-.186 2.426-.218 3.637.175.186-.083.365-.167.541-.256.202-.106.601-.39.832-.549.167-.186.33-.369.448-.495.035-.113.069-.229.105-.343-.619-.615-1.205-1.355-1.751-2.238-1.982-3.23-4.782-5.279-7.882-6.513.568.985 1.071 1.997 1.523 3.1.576 1.407.88 2.899 1.357 4.335z"/><path d="m356.04 266.69c-.239-.141-.481-.289-.729-.433-5.793-3.435-9.129-4.164-13.27-3.202.858 1.333 1.583 2.664 2.209 4.159 3.67.157 6.818 1.091 9.842 2.276.542-.922 1.17-1.796 1.872-2.616.024-.063.051-.125.076-.184z"/></g><path fill="none" d="m347.42 246c0 0 .081-.006.12.039.036.043.033.176.004.219-.032.04-.156.036-.182.036-.023 0-.119-.039-.149-.021-.027.02-.115.118-.146.144-.034.023-.08.034-.144.044-.068.009-.091.056-.133.129-.044.073-.083.086-.106.127-.022.042.038.082.069.131.032.044.042.141.052.176.012.034.021.11.012.127-.012.016-.072.072-.102.125-.03.052-.014.077.01.124.022.046.054.055.034.078-.021.024-.059.01-.111.036-.051.025-.094.12-.116.184-.017.066-.062.129-.1.164-.04.035-.054.031-.104.107-.052.076-.083.089-.124.133-.039.042-.098.046-.103.108-.008.062.008.101.016.153.004.056.015.112-.009.135-.023.018-.06.013-.091.05s-.051.048-.086.062c-.035.019-.064.003-.09.027-.029.021-.06.021-.126.018-.069-.003-.141.036-.188.151-.043.111-.048.244-.08.33-.031.085-.051.146-.086.172-.03.026-.098.107-.122.144-.021.038-.07.107-.111.157-.039.047-.02.089-.062.141-.047.054-.12.106-.147.134-.025.03-.018.095-.095.082-.078-.013-.244-.019-.269.015-.017.03-.025.11-.062.157-.038.048-.059.047-.1.077-.042.031-.076.075-.087.12-.009.044-.025.154-.061.213-.036.059-.052.08-.15.125-.097.049-.16.082-.183.136-.022.047-.018.115-.029.149-.011.035-.016.091-.21.083-.192-.009-.266-.017-.373.008-.111.029-.247.021-.306.056-.059.036-.136.066-.164.098-.024.03-.039.039-.066-.012-.025-.055-.051-.104-.047-.155.007-.054.044-.236.031-.252-.015-.015-.083-.013-.119-.004-.034.008-.104-.009-.211.021-.106.031-.188.04-.217.076-.024.038-.145.163-.172.198-.027.036-.078.081-.096.116-.019.036-.054.102-.075.149-.025.048.012.016-.087.051-.097.036-.074.056-.166.109-.095.056-.138.102-.179.14-.045.039-.106.094-.137.144-.03.056-.047.135-.042.185.004.051.031.176.046.235.018.058.07.144.098.201.026.058.104.061.154.066.048.005.084.048.125.067.043.021.112.048.205.039.094-.006.094-.009.09.04-.003.056-.003.144-.056.194-.051.052-.098.104-.119.187-.02.081-.001.2.031.261.034.059.108.141.141.208.032.064.112.185.143.202.028.018.144.005.173.003.032-.005.155-.03.147.012-.013.042-.034.07-.047.115-.011.046.001.113.029.167.027.054.054.085.068.136.013.053.051.112.077.158.024.042.061.067.054.121-.01.052-.017.087.017.16.031.074.065.128.093.172.026.043.015.086-.014.122-.025.039-.066.071-.064.126.003.055.047.078.025.087-.021.013-.077.011-.09.056-.018.043-.018.094-.025.097-.011.001-.076-.027-.106-.02-.029.006.004-.105-.013-.154-.019-.052-.057-.116-.097-.115-.042.001-.13.068-.187.078-.061.01-.066.034-.108.039s-.173.013-.223.003c-.052-.008-.074.043-.091.116-.021.073.047.11-.055.077-.099-.037-.188-.039-.215-.033-.026.008-.021-.03-.111-.092-.087-.063-.127-.134-.184-.125-.058.014-.099.021-.151.065s-.111.04-.155.039c-.043-.003-.016-.03-.055-.069-.043-.037-.064-.004-.125.004-.06.01-.079-.044-.104-.04-.026 0-.038.038-.078.018-.041-.023-.083-.057-.128-.055-.041 0-.086.018-.105.066-.023.048-.05.1-.046.145.005.042.056.119-.017.179-.072.06-.064-.001-.158.009-.098.018-.125-.029-.161-.056-.038-.027-.068-.039-.107-.021-.042.022-.106.095-.138.146-.03.054-.023.168-.023.199 0 .029.019.035-.021.082-.038.051-.08.039-.074.107.009.07.06.072.112.135.055.063.087-.007.115.012.03.021.009.013.047.056.035.046.232.197.236.253.004.057.036.141.068.176.032.033.147.133.202.188.052.059.354.197.417.239.064.044.153.077.248.107.095.033.266.012.308.015.047.003.088-.036.082-.086-.005-.047.02-.084.062-.055.043.025.157.054.25.021.094-.029.089-.051.122-.086.035-.035.058-.01.114-.003.057.009.048.018.018.062-.033.045-.059.045-.106.097-.043.051-.09.081-.119.098-.029.02-.062.009-.129.014-.064.005-.111.023-.146.06-.034.038-.081.044-.142.046-.063.003-.097.04-.124.062-.026.021-.096.01-.142-.019-.047-.025-.098.007-.125.034-.031.027-.09.016-.129.039-.039.029-.055-.083-.081-.125-.025-.038-.038-.055-.125-.06-.089 0-.205.077-.215.094-.016.016-.061.164-.056.227.007.063.054.119.094.197.04.078.108.183.174.232.062.051.195.214.278.277.081.065.218.216.246.268.025.051.1.115.129.188.031.074.171.244.215.305.045.059.127.157.187.207.062.047.161.081.19.124.031.045.034.142.162.171.128.027.179.039.221.078s.128.115.226.054c.095-.067.095-.099.168-.069.073.031.17-.024.273-.057.104-.034.119.021.195-.047.079-.07.142-.119.186-.122.045-.004.214-.015.273-.065.062-.052-.016-.062.112-.091.125-.028.213-.061.235-.158.019-.097.094-.196.164-.242.064-.043.077-.129.063-.186-.016-.056-.023-.067-.048-.105-.025-.038-.042-.056-.031-.074.013-.021.091-.043.08-.099-.014-.056-.054-.134-.063-.191-.014-.054.01-.111.043-.147.031-.039.105-.121.086-.079-.022.046-.022.217-.015.269.009.048.063.063.111.042.047-.023.069-.01.06.008-.005.021-.052.057-.107.082-.055.027-.054.064-.042.125.012.062.064.093.105.125.042.032.076-.005.103 0 .026.004-.048.027-.062.062-.021.037.006.148-.017.146-.021-.003-.129.068-.119.17.013.103.021.175.103.22.081.044.01.066.014.118.003.052.073.093.106.147.029.054-.001.12.029.192.027.073.038.06.038.106-.003.052.029.069-.035.137-.063.069-.121.1-.133.187-.014.089.009.129-.003.187-.012.056-.062.038-.063.136-.005.099-.052.113-.074.149-.022.033-.021.071-.008.103.017.033.045.052.056.091.009.042.05.104.063.134.013.026-.01.022-.025.101-.019.08.018.091.048.106.027.018.012.053.001.068-.008.021-.008.12-.008.175-.003.059.022.045.012.138-.012.096.023.146.045.185.023.036.005.072-.012.116-.016.044-.039.078-.02.125.019.046.068.078.083.097.012.02-.02.033-.039.062-.021.028-.038.08-.026.115.005.035.051.054.093.1.043.048.062.027.07.064.002.039-.032.08-.026.125.001.042.019.055.042.09.021.031.08.025.087.062.011.039.014.104.021.151.006.046.03.005.048.036.019.034 0 .078.013.131.016.052.04.085.042.131.001.047-.016.119-.025.138-.01.02-.027.033-.005.054.02.013.063 0 .077.025.011.023.067.013.035.044-.032.032-.035-.004-.046.037-.009.042.008.096.021.111.016.014.052-.007.039.05-.014.059-.02.046-.02.089 0 .043.02.051.014.095-.008.043-.018.069-.013.106.006.041.048.014.042.077-.009.068-.009.153-.005.198.009.044.009.107.005.142 0 .033.013.046.021.121.007.07.021.058.024.104.005.042.021.089.047.111.024.021.051.021.061.085.013.062.022.102.022.154 0 .056.026.118.044.138.021.02.057.025.069.052.015.025.022.087.032.122.01.036.05 0 .06.064.015.063.02.068.037.128.019.059.011.105.051.126.042.019.104.004.12.021.015.021-.026.03-.082.03-.055 0-.055.025-.042.052.014.029.073.068.073.086 0 .022.042.019.056.059s.033.014.043.08c.015.062.024.103.04.138.017.036.049.086.078.107.028.021.057-.013.072.023.017.036.01.119.01.15 0 .034.007.026.085.043.079.021.104.003.106.039.003.039-.028.056-.043.103-.018.048.038.077.074.102.035.021.039-.019.056.034.019.052.019.125.026.18.006.057.054.036.064.07.013.034-.039.043-.043.069 0 .023.004.091.042.146.039.055.058.074.086.111.029.034.022.133.019.146-.003.014-.001.043.012.064.018.02.066.076.076.095.013.017.021.017.006.042-.016.02-.03.047-.026.081.005.033.043.044.026.094-.016.05-.005.098.008.149.01.048.031.098.031.144s.002.134.003.187c.003.054.009.043.03.078.02.033.061.039.081.087.02.048.003.121.008.16.003.042.056.032.064.064.013.036.027.044.051.125.025.085.052.152.063.197.01.048.055.132.062.167.004.034.058.143.08.172.025.033.073.094.133.107.06.014.071-.007.099.038.025.04.083.121.103.141.02.023.07.094.097.121.026.03.078.044.085.093.008.049.025.104.036.135.008.033.038.055.042.11.003.057.051.069.091.117.038.046.047.082.043.144-.003.06.039.08.062.114.021.038.036.067.042.138.008.067.005.12.035.144.033.03.046.046.047.133.001.082-.001.142.015.167.017.025.025.062.046.095.018.029.051.055.057.081.009.023.05 0 .056.08.005.081-.003.109.026.09.032-.02.038-.051.062-.015.026.038.011.047.076.106.062.06.081.081.089.106.01.025.026.102-.037.042-.064-.063-.077-.084-.102-.106-.025-.021-.062-.018-.082-.001-.02.013.022.052.03.117.005.064.02.093.045.129.023.038.058.082.061.131.007.048.021.237.04.305.02.063.033.188.06.224.026.034.056.034.069.084.012.048-.002.113-.014.159-.006.042.025.075.038.089.01.015.062.039.067.074.009.034.045.042.053.112.004.067.042.12.069.145.028.026.095.038.167.113.074.076.153.21.221.218.074.008.111-.042.117.015.011.054.025.133.069.161.046.029.081.073.108.104.025.03.104.035.111.025.008-.012 0-.035.073 0 .076.037.08.063.112.098.03.036.051.062.096.077.043.016.068.031.118.024.046-.005.05.005.11-.063.062-.071.089-.124.149-.158.062-.031.06-.018.124-.06.07-.042.031-.065.111-.09.078-.024.072-.024.16-.047.086-.02.088-.016.111-.087.021-.078.059-.241.053-.304-.009-.063-.01-.015-.005-.132.005-.119-.006-.133.049-.174.054-.042.14-.133.198-.118.055.017.115.034.186.017.066-.017.063-.052.127-.064.061-.018.044-.021.146-.018.103 0 .141-.024.214-.038.074-.016.101.022.126-.03.022-.052.08-.047.042-.087-.039-.039-.008-.039-.069-.087-.062-.05-.142-.1-.146-.175-.01-.074-.014-.087.028-.146.044-.055.162-.21.218-.266.052-.054.068-.078.114-.12.044-.044.09-.042.033-.086-.056-.042-.079-.051-.057-.085.018-.039.123-.173.199-.156.08.02.176.083.238.069.062-.02.133-.013.203-.035.074-.022.06-.012.133-.029.068-.021.099-.08.051-.105-.046-.027-.05-.039-.056-.125-.003-.09 0-.078-.003-.147-.005-.072.017-.137-.003-.177-.019-.04-.048-.149-.042-.232.004-.078.021-.069.023-.132.006-.06.01-.125-.021-.186-.027-.061-.09-.158-.086-.211.004-.052-.006-.04.041-.073.039-.034.068-.071.026-.133-.042-.061-.06-.054-.052-.094.01-.042.013-.035.021-.073s.053-.164.078-.242c.021-.076 0-.081.064-.13.062-.046.123-.095.158-.137.033-.043.031-.055.069-.086s.072-.038.028-.085c-.046-.048-.033-.048-.068-.093-.038-.042-.088-.056-.027-.088.062-.033.111-.019.16-.064.049-.047.043-.016.078-.1.033-.085.062-.139.103-.193.042-.055.061-.067.047-.125-.011-.061.025-.094 0-.137-.024-.049-.005-.148-.038-.207-.032-.056-.017-.08-.048-.092-.028-.01-.055-.046-.092-.059-.036-.016-.073-.006-.11-.055-.033-.047-.006-.106.014-.1.022.009.064.019.108.048.038.029.094.065.103.035.008-.03.001-.157-.035-.189-.034-.036-.029-.024-.051-.066-.022-.039-.033-.119-.039-.148-.006-.034.006-.054-.021-.068-.028-.018-.059-.042-.059-.042s-.025-.085-.042-.128c-.021-.042-.025-.049-.046-.085-.021-.034-.018-.055.023-.072.043-.021.047-.011.089-.047.042-.039.114-.039.08-.098-.038-.057-.008-.127-.06-.226-.057-.101-.028-.056-.066-.129-.036-.075-.082-.294-.082-.322.006-.027-.004-.099.006-.168.008-.068.034-.122.076-.169.04-.047.02 0 .068-.058.048-.06.048-.138.096-.219.046-.08-.034-.016.105-.115.143-.105.186-.086.254-.101.067-.014.086-.009.139.043.055.054.059.136.117.116.06-.02.067.024.123-.06.057-.081.057-.089.11-.16.054-.072.034-.044.076-.103.034-.062.003-.042.054-.102.055-.057.066.005.072-.087.006-.093.023-.168.049-.219.026-.053-.004-.058.09-.074.087-.018.119-.004.141.018.021.024.104.102.122.106.017.003-.009-.021.052-.021.058 0 .135.009.204-.042.071-.052.038-.048.142-.074.098-.027.072-.022.166-.058.09-.034.114-.017.149-.064.04-.049.024-.042.078-.076.057-.035.067-.046.06-.113-.008-.073.005-.087-.004-.167-.01-.081.007-.069-.031-.125-.039-.052-.057-.091-.046-.146.013-.056.08-.033.143-.076.063-.039.188-.106.236-.152.051-.053.041-.068.09-.094.047-.022.075-.042.145-.04.067.002.066-.008.119-.038.055-.031.062-.021.106-.045.043-.026.09-.072.128-.11.038-.038.057-.056.107-.093.048-.039.073-.025.083-.107.009-.08-.011-.149.001-.205.013-.057.019-.086.058-.124.04-.036.091-.026.172-.081.082-.054.053-.062.135-.082.081-.02.072-.039.133-.063.061-.026.089-.047.153-.056.065-.005.115-.137.167-.211.055-.069.104-.149.132-.177.026-.029.104-.121.117-.138.018-.017.035-.062.12-.129.085-.065.115-.062.134-.139.02-.077-.061-.106.029-.173.09-.064.125-.042.171-.147.048-.107-.001-.082.11-.142.113-.06.146-.107.199-.151.048-.042.041.029.072-.044.03-.073.047-.086.043-.134-.005-.048.03.007.089.03.062.021.083.009.146-.025.061-.033.066-.008.119-.054.052-.044.096-.095.209-.125.112-.033.116-.039.188-.074.071-.034.08-.033.157-.064.073-.035.162-.088.214-.147.052-.063.133-.107.187-.168.052-.062.117-.148.14-.201.024-.047.044-.109.03-.164-.013-.056-.022-.067 0-.086.023-.018.116-.098.153-.157.037-.062.037-.081.027-.133-.006-.053-.009-.086.001-.156.017-.069-.016-.106-.032-.121-.019-.013-.072-.013-.107-.096-.038-.083-.09-.11-.038-.139.056-.03.093-.063.137-.115.046-.056.021-.083.063-.087.045-.007.168-.026.23-.058.062-.029.017-.056.102-.057.082-.001.205-.021.294-.04.091-.021.106.004.128-.077.016-.081-.014-.083.051-.117.064-.028.094 0 .103-.069.009-.073.009-.16.041-.16.034 0 .034.03.04.08.006.048.01.174.037.164.026-.014.152-.053.228-.053.073 0 .104.007.153-.051.051-.062.062-.143.106-.12.043.026.096.055.186.057.089.001.098.009.154-.03.053-.039.043-.02.061-.152.019-.133.052-.101.034-.175-.018-.076-.054-.133-.081-.18-.026-.051-.03-.036-.04-.105-.01-.068-.037-.053-.045-.147-.006-.096.045-.012-.019-.116-.061-.101-.081-.111-.069-.192.014-.08.044-.129.021-.207-.026-.08-.064-.044-.042-.125.019-.081.055-.036.079-.116.025-.081.005-.078-.04-.149-.048-.07-.03-.081-.104-.075-.073.005-.104.018-.1-.013.001-.028.044-.176.017-.221-.027-.043-.027-.103-.1-.15-.072-.046-.095-.034-.113-.085s-.051-.043-.019-.103c.035-.06.168-.173.163-.232-.007-.063-.047-.043-.028-.159.013-.116.001-.136.005-.202.003-.063-.072-.104-.253-.102-.182.003-.203.013-.261-.07-.057-.08-.094-.09-.108-.166-.015-.078-.059-.151.025-.172.08-.021.098 0 .162-.064.062-.064.038-.16.062-.231.022-.069.031-.061.094-.08.062-.014.048-.068.15-.051.103.016.231.008.263-.052.027-.057.068-.047.05-.136-.019-.087-.005-.147-.061-.178-.053-.026-.085.004-.134-.047-.051-.048-.008-.111-.048-.143-.039-.029-.042-.051-.121-.033-.08.018-.135.065-.172.011-.034-.058-.021-.08-.061-.104-.04-.026-.036-.024-.097-.067-.062-.047.019-.008-.07-.058-.09-.051-.095.003-.119-.072-.022-.072-.022-.064.015-.127.037-.061-.003-.101.041-.149.046-.052.11-.089.146-.119.038-.03.044-.08.077-.05.028.03.08.168.131.213.052.043.131.116.18.086.051-.03.068-.048.068-.122.005-.073 0-.095.053-.1.054 0 .16.083.25.173.095.089.104.078.153.089.049.015.092.075.157.044.064-.029.122-.057.17-.098.052-.039.068-.031.091.009.021.039-.003.081-.041.145-.035.063-.034.15.008.191.035.039.114.034.069.103-.049.07-.077.082-.072.142.004.062-.035.149-.005.198.028.048.171.101.249.106.078.003.105.012.163.039.052.026.11-.033.248.028.14.06.196.057.253.022.056-.032.068-.076.126-.082.056-.005.158.039.215.042.058.004.121-.024.163-.042.043-.015.048-.038.122-.022.074.015.149.06.228.048.078-.013.106-.037.155-.01.047.026.12.035.153.014.029-.019.056-.062.129-.067.074-.006.188-.018.228.016.035.03.114.021.093.052-.025.03-.095.076-.089.114.006.039.019.067.041.107.021.04.024.068.004.076-.021.01-.054.01-.057.052-.005.04-.005.099 0 .133s.018.081-.08.07c-.091-.012-.104 0-.104.035 0 .036.008.16-.004.187-.01.026-.04-.047-.085-.021-.044.027-.205.077-.209.096-.005.02 0 .006-.005.03-.006.021 0 .067-.055.081-.056.008-.101 0-.142.034-.043.039-.112.024-.128.072-.021.047-.021.078-.033.137-.018.056-.038.069-.056.134-.027.065-.011.158-.018.186-.004.028-.024.073-.024.128 0 .052.091.188.127.25.034.063.062.07.076.139.013.067-.021.141-.015.227.006.086.021.172.077.144.058-.025.127.042.163-.048.033-.094.006.019.021.048.016.028.145.141.219.105.081-.038.03-.02.117-.077.086-.055.109-.034.102-.131-.006-.096-.007-.057-.006-.177.003-.119-.012-.137.022-.201.033-.061.08-.091.087-.16.006-.068-.015-.094.021-.151.031-.056.067-.077.081-.06.021.02-.025.064.04.099.063.036.118.044.095.134-.018.089-.018.166.011.193.025.026.134.115.134.171 0 .056-.025.064-.03.139-.008.075-.061.119-.051.18.014.057.09.105.131.153.042.051.082.113.082.162-.004.048-.028.07-.026.134.002.061.052.064.052.133 0 .068-.023.111-.021.16.004.047.059.058.065.112.007.057.031.124.027.219-.006.094-.027.125.024.171.052.043.073.087.149.051.071-.033.025-.134.063-.115.033.021.082.06.135.074.051.019.085.056.145-.005.065-.064.021-.162.08-.225.064-.067.013-.042.075-.117.06-.077.073-.205.031-.264-.044-.059-.034-.033-.026-.128.01-.093.014-.137-.033-.205-.048-.061.007-.078-.004-.137-.009-.061-.039-.086-.054-.173-.016-.085-.035-.114.007-.159.046-.048.081-.052.134-.047.048.005.107-.056.122-.157.014-.104.054-.099.021-.152-.033-.054-.082-.137-.077-.209.01-.072.09-.093.082-.172-.009-.08-.024-.055-.035-.115-.014-.064.003-.06-.009-.129-.014-.073-.011-.108.001-.162.01-.057.042-.074.1-.083.056-.012.118.094.146.094.029 0 .052.015.085-.018.028-.03.024-.055.058-.034.034.024.219.039.256.016.036-.023.036-.018.08-.072.044-.055.091-.098.069-.105-.025-.006-.021.02-.048-.021-.027-.042-.051-.02-.022-.069.027-.052.03-.086.033-.113.005-.026.048-.093.057-.157.011-.062-.032-.076.039-.116.074-.039.091-.058.097-.106.005-.047.005-.097.008-.117.001-.02.044-.12.081-.16.037-.042.054-.018.054-.105s.022-.17.026-.263c.003-.087.037-.086-.021-.127-.055-.039-.071-.033-.096-.072-.022-.04-.057-.045-.026-.105.03-.062.086-.08.118-.125.029-.044.175-.16.182-.206.008-.047-.016-.081.034-.12.052-.039.041-.111.047-.166.005-.055.01-.122.028-.166.021-.044.061-.112.061-.119 0-.008-.014-.112-.033-.152-.021-.035-.026-.055-.027-.11-.004-.055.02-.046-.004-.091-.025-.044-.044-.062-.062-.111-.021-.051-.003-.076.019-.122.023-.042.034-.048.146-.061.106-.008.158-.073.175-.125.012-.046-.004-.033.043-.093.049-.061.07-.068.113-.161.039-.09.016-.111.096-.14.08-.03.099-.012.112-.072.012-.06.089-.177.133-.219.048-.041.059-.062.125-.057.061.006.072-.055.133-.077.062-.024.042.011.067.018.032.004.12-.058.186-.081.069-.021.069-.042.1.004.032.047.11.168.185.185.073.018.107.021.155.021.047 0 .103.027.093-.064-.014-.09.021-.122-.025-.154-.049-.031-.049-.03-.118-.08-.07-.053-.1-.08-.119-.132-.022-.052-.041-.077-.038-.135 0-.057-.003-.103.042-.107.048-.008.104-.039.131-.065.026-.028.068-.091.091-.121.027-.03.083-.073.113-.111.027-.039.089-.076.044-.128-.044-.048-.018-.042-.061-.08-.049-.042-.069-.042-.052-.086.02-.049.053-.096.039-.12-.011-.021-.024-.032-.065-.019-.042.014-.012.004-.072-.014-.062-.014-.08-.039-.113-.042s-.08-.032-.134 0c-.061.03-.062.06-.144.012-.077-.048-.143-.121-.203-.103-.058.018-.23.099-.269.1-.042.003-.074-.038-.027-.085.048-.047.227-.223.247-.295.025-.073.047-.081-.017-.12-.065-.039-.053.036-.095-.075-.05-.107.018-.168-.066-.181-.083-.014-.133-.005-.136.056-.003.063.028.058-.029.087-.052.03-.095 0-.094-.036.005-.034-.044-.056.025-.118.076-.063.15-.106.14-.171-.011-.061.02-.079-.021-.1-.04-.021-.162-.022-.162-.022s-.005-.056-.071-.105c-.064-.052-.129-.091-.157-.043-.031.043-.118.1-.173.15-.056.051-.157.139-.197.195-.044.057-.031.182-.109.192-.078.01-.145.024-.212-.025-.067-.048-.067-.072-.16-.052-.091.017-.062.012-.149-.038-.087-.048-.166-.083-.183-.093-.021-.008.005-.116-.051-.091-.057.025-.053.065-.107.138-.057.072-.085.078-.163.127-.081.048-.074.031-.095.091-.025.061.009.085-.061.168-.062.085-.127.137-.158.19-.035.056-.015.083-.058.105-.047.021-.245.038-.271.06-.03.022 0 .064-.058.055-.057-.009-.107-.033-.158-.026-.05.009-.094.013-.123.066-.021.052-.013.083-.056.139-.042.056-.039.053-.026.098.012.047.016.112-.006.127-.021.013-.109.014-.184.039-.072.025-.057.025-.098.06-.037.032-.028.042-.07.07-.046.03-.036.064-.09.098-.057.031-.072.01-.078.072-.011.065.006.069.027.1.024.033.033.069.008.098-.025.027-.136.108-.177.133-.037.021 0 .007-.076-.015-.072-.025-.059-.033-.103-.013-.047.017-.067-.03-.116.021-.053.051-.072.021-.135.055-.068.035-.112.05-.137.072-.026.025-.027.018-.076-.009-.042-.026-.023-.042-.083-.071-.061-.029-.09-.057-.111-.055-.018 0-.094.044-.051.116.044.071.021.087.008.146-.019.067.042.106.047.164.005.062-.019.065.048.073.068.005.238.027.295.042.062.021.119.026.146.056.027.03.057.062.027.115-.029.055-.061.094-.045.152.015.06.013.133.006.163-.011.034-.012.063-.082.043-.074-.019-.171-.03-.209.022-.04.053.007.038-.074.064-.081.025-.052-.033-.162.013-.111.042-.035.069-.12.05-.083-.019-.196-.008-.239.016-.048.024.021.017-.091.051-.113.033-.125.033-.214.035-.091.005-.151-.021-.205-.076-.058-.052-.07-.098-.148-.091-.081.003-.116.034-.141.056-.027.024.004.012-.08.042-.083.029-.039.064-.082.089-.039.024-.091-.043-.119-.021-.027.021-.109.009-.108.066.004.054.018.08-.035.076-.051-.001-.084-.03-.134-.056-.043-.025.082-.032-.073-.047-.153-.013-.055-.05-.096-.074-.045-.023-.035-.043-.12-.014-.085.03-.061.01-.104.056-.044.044-.021.079-.067.02-.047-.062-.062-.064-.128-.108-.07-.048-.095-.048-.127-.09-.032-.043-.031-.044-.069-.101-.034-.055-.037-.042.013-.116.053-.078.062-.134.008-.187-.057-.048-.091-.024-.091-.093-.004-.069-.062-.014-.013-.109.048-.094.082-.1.078-.188-.007-.09.035-.13-.021-.194-.058-.063-.037-.061-.088-.106-.053-.049-.063-.099-.103-.099-.038 0-.072-.029-.125.025-.058.054-.019-.004-.093.09-.078.089-.062.08-.136.074-.071-.007-.1.001-.144.019-.049.017-.088-.048-.119.071-.027.119.012.111.031.141.024.025.055.04.051.103-.009.063-.051.048-.093.122-.038.072-.046.066-.054.133-.009.069-.02.185-.028.225-.016.04-.042.042-.056.111-.016.069-.02.091.015.153.03.064.077.126.132.211.056.087.047.163.047.203 0 .038.02.103.003.176-.017.076.008.125-.03.142-.038.014-.005-.012-.089-.03-.087-.02-.071 0-.187.03-.121.03-.137.034-.221.03-.081-.003-.063-.006-.166.009-.1.013-.1 0-.173-.06-.07-.057-.094-.062-.172-.09-.076-.031-.091.005-.175.06-.081.056-.064.064-.125.046-.062-.019-.089-.036-.174-.032-.087.001-.077-.029-.106-.082-.032-.051-.029-.09-.111-.078-.081.014-.073.093-.123.054-.049-.038-.074-.057-.151-.081-.075-.025-.113.072-.161.03-.049-.042-.055-.038-.076-.093-.026-.057-.042-.103-.146-.125-.104-.023-.138.085-.207.091-.062.005-.06.042-.14-.026-.082-.07-.059-.083-.182-.121-.125-.039-.106-.056-.214-.068-.103-.01-.123-.033-.119-.101.004-.061.004-.14-.042-.208-.042-.068-.082-.128-.089-.133-.005-.003-.067.006-.137.006-.068 0-.104.026-.15-.044-.047-.071-.033-.099-.132-.101-.095-.001-.107-.026-.155-.016-.051.014.021.018-.11.043-.134.029-.154.086-.18.101-.025.017-.027-.062-.103-.067-.078-.005-.143 0-.194.033-.048.033-.039.103-.061.114-.018.014-.012-.021-.07-.052-.062-.035-.106-.019-.221-.042-.11-.025-.152.029-.18-.021-.027-.046.003-.061.003-.119 0-.054-.045-.117-.12-.117-.077-.004-.168-.004-.198.025-.027.028-.061.048-.109.034-.055-.015-.021-.042-.102-.09-.082-.052-.098-.074-.184-.103-.084-.034-.086-.061-.188-.042-.099.021-.055.064-.17.036-.119-.029-.047-.08-.085-.106-.039-.026-.05-.005-.136-.049-.086-.043-.088-.009-.117-.098-.033-.092 0-.142-.076-.156-.078-.013.041.145-.086.042-.126-.102-.146-.144-.188-.202-.036-.06.01-.078-.064-.078s-.041.009-.18-.014c-.144-.026-.189-.042-.216-.042-.021 0-.009-.011-.08-.108-.073-.097-.073-.141-.115-.132-.044.009-.061.097-.078.117-.021.016-.063-.009-.118-.049-.058-.041-.058-.041-.134-.085-.078-.043-.109-.061-.144-.104-.033-.043-.02-.115.02-.117.038-.003.108-.026.108-.086 0-.059-.021-.076.009-.129.033-.055.057-.034.066-.09.011-.052.017-.08-.008-.151-.027-.069-.008-.119.012-.152.02-.032.1-.08.101-.141.003-.062.008-.112.028-.148.021-.034-.009 0 .065-.061.069-.061.06-.074.09-.125.026-.046.056-.044.109-.065.052-.021.106-.071.136-.128.029-.058-.039-.073.049-.096.086-.02.092-.013.143-.042.043-.026.051-.106.033-.139-.015-.033-.056-.056-.108-.051-.054.004-.112.028-.144-.025-.031-.053-.02-.073-.066-.134-.048-.06-.063-.069-.111-.057-.048.014-.112.036-.166-.001-.055-.035-.01-.073-.07-.057-.059.018-.076.063-.105-.018-.034-.083-.064-.232-.076-.249-.014-.018-.025.029-.09-.03-.065-.062-.044-.099-.107-.098-.062.005-.082.026-.135-.038-.057-.062-.041-.079-.113-.075-.072.003-.104.024-.158.029-.052.001-.079-.005-.137-.06-.057-.056-.057-.038-.081-.103-.026-.064-.05-.024-.044-.089.004-.063-.021-.076-.048-.124-.027-.05-.06-.047-.1-.105-.038-.058-.018-.042-.046-.068-.029-.027-.072-.043-.145.016-.073.058-.052.13-.08.16-.029.033.023.069-.041.029-.065-.039-.053-.112-.069-.151-.018-.035-.082-.044-.044-.121.036-.075.087-.039.093-.09.005-.054.009-.086-.021-.115-.034-.033-.072-.121-.063-.178.008-.06.029-.066.029-.132 0-.065.004-.064-.048-.101-.048-.035-.09-.115-.095-.158 0-.043.104-.026-.017-.072-.116-.045-.095-.013-.103-.058-.004-.048.014-.08.018-.121.006-.042-.023-.072-.008-.168.015-.097.043-.137.119-.097.08.042.095.02.098.087.001.068.035.199.081.234.043.033.097.106.177.077.078-.031.112-.042.104-.096-.009-.057-.057-.074.002-.106.052-.031.098-.029.122-.035.024-.007-.019-.048.04-.068.055-.022.062-.019.096 0 .035.016.132-.048.16-.067.027-.02.043.009.076-.069.029-.081.043-.051 0-.16-.043-.108-.069-.11-.135-.185-.066-.074-.136-.033-.119-.142.012-.108.012-.11.047-.162.038-.055.031-.109-.025-.138-.059-.026-.09-.048-.176-.056-.086-.005-.05-.032-.142-.028-.089.004-.11.031-.128-.034-.017-.063-.003-.142.002-.211.012-.07.027-.117.083-.164.058-.046.099-.06.076-.096-.023-.036 0 .033-.034-.049-.031-.082-.012-.086-.054-.086-.044 0-.048.035-.093-.01s-.059-.043-.031-.068c.021-.024 0-.03.03-.068.03-.04.018-.086.116-.056.102.03.166.078.253.099.086.018.095.043.133.008.038-.038-.011-.073.044-.11.059-.039.047-.006.076-.06.025-.055.027-.089.059-.189.03-.104-.005-.128.053-.145.057-.02.02-.018.105-.038.082-.02.114-.02.108-.082-.006-.061-.044-.096.009-.133.053-.039.155-.029.171-.026.014.004.128-.09.116-.155-.012-.067-.032-.067-.017-.15.021-.08.044-.052.059-.136.018-.085-.009-.073.044-.145.051-.074.09-.1.109-.139.017-.039.008-.149.008-.2 0-.048.008-.096-.029-.127-.04-.033-.059-.042-.113-.093-.053-.052-.041-.006-.103-.067-.067-.06-.07-.048-.108-.094-.039-.044.017-.064-.067-.067-.087-.004-.07.019-.145-.004-.073-.021-.033-.018-.094-.047-.065-.028-.042-.04-.104-.038-.061.005-.059 0-.085-.06-.024-.059-.012-.109-.062-.098-.052.009-.034.014-.089.054-.057.042-.016.021-.125.062-.113.04-.029.088-.135.077-.102-.008-.07-.014-.135-.02-.07-.005-.098-.069-.132-.029-.033.04.021.098-.051.088-.068-.011-.102-.024-.126.001-.021.026-.028.046-.05.046-.02-.003-.07-.052-.114-.032-.04.021-.01.043-.079.04-.068-.006-.08-.033-.088.01-.009.043-.043.104-.08.147-.039.044-.099.073-.145.083-.044.011-.051-.024-.105-.001-.06.022-.086.04-.107.058-.023.021-.035-.014-.097.017-.065.028-.027.057-.112.047-.081-.013-.1.007-.119-.034-.018-.038-.014-.139-.064-.21-.052-.073-.039-.021-.064-.089-.023-.071-.033-.062-.125-.061-.09.001-.202.026-.288.018-.083-.013-.129-.018-.134-.083-.006-.068.004-.074-.029-.124-.031-.049-.04-.078-.044-.155-.005-.078-.019-.08-.087-.1-.068-.018-.064.014-.113-.05-.048-.063-.018-.022-.063-.086-.05-.061.012-.069-.072-.077-.086-.006-.056-.004-.136-.024-.08-.021-.09-.031-.137-.082-.051-.052-.099-.001-.129-.064-.032-.061.006-.091-.048-.135-.058-.044.007 0-.098-.068-.095-.07-.082-.069-.12-.111-.035-.042-.033-.066-.068-.132-.035-.066-.016-.062-.051-.082-.034-.02-.108.008-.115-.083-.008-.094-.008-.094-.073-.107-.069-.019-.061-.026-.085.006-.021.036-.078.058-.125.067-.053.006-.047-.077-.09-.038-.047.038.007.024-.069.054-.074.033-.089.022-.128-.044-.04-.068-.044-.082-.106-.083-.056-.002-.09.083-.121.112-.028.029 0 .045-.056.026-.058-.017-.081-.082-.102-.084-.019-.003-.065 0-.091.029-.021.031-.059.089-.105.097-.047.005-.08-.02-.112.017-.032.037-.025.056-.052.064-.027.007-.053-.019-.125-.064-.073-.045-.089-.074-.151-.056-.062.019-.052.039-.046.094.006.057.021.064.074.095.051.028.093.05.088.078-.004.027-.109.067-.166.033-.057-.036.021-.031-.081-.048-.102-.016-.093-.078-.142-.064-.048.013-.064.005-.133.025-.068.021-.088.04-.149.031-.066-.011-.104-.045-.115.008-.013.056.034.042-.008.089-.042.044-.066.057-.07.096-.007.038-.012.052-.042.052-.03 0-.022-.033-.068.017-.048.048-.054.061-.043.1.009.039.031.077-.014.091-.044.018-.089-.011-.113.006-.024.021-.052.054-.094.089-.04.035-.019.022-.093.035-.076.012-.086.03-.074.098.013.068.013.137.036.172.021.032.025.04.021.086-.006.048-.018.052 0 .104.022.052.029.114.138.102.107-.01-.05.004.171-.004.217-.011.188.002.231.035.043.036.064.107.108.145.046.034.06.027.094.073.031.044.039.029.056.071.018.04.021.062.06.084.038.02.082.042.122-.01.042-.053.054-.082.066-.049.008.031.019.04.016.076-.001.036.013.16.033.193.017.032.054.025.078.076.021.049.06.062.085.087.021.025.052.012.115.032.063.017.08 0 .09.038.009.038.044.071-.026.106-.067.036-.063.034-.09.076-.023.043-.001.046-.042.067-.04.021-.007.005-.073.033-.072.028-.105.011-.146.035-.042.022-.056.035-.073.076-.019.04-.039.072-.073.105-.035.033.001.052-.083.072-.087.02-.154-.011-.142.036.012.043.021.024.054.072.033.048.017.075-.008.129-.022.057-.051.058-.022.099.026.039.063.065.083.095.021.025.046-.013.03.055-.016.068-.016.091-.044.121-.027.03-.062-.025-.052.058.007.083.042.132.061.16.021.028.051-.034.051.043s-.003.225.027.27c.031.042.07.058.032.08-.036.02-.062-.03-.076.086-.014.119.005.184.014.23.008.046-.063.046-.054.112.012.064-.01.131.036.167.043.038.034.047.136.099.104.052.166.091.233.085.067-.008.086-.028.144.018.061.044.082.055.142.102.058.047.06.15.149.142.088-.009.146-.001.186.003.042.004.085-.012.056.038-.034.047-.04.16.001.197.044.035.054.084.14.102.087.021.118.007.188.021.072.013.088-.008.103.02-.004-.009.001.028.067.024z"/></g><g fill="#d3342e"><path d="m316.14 142.39c13.05-9.869 34.429-10.281 34.429-10.281l.395 68.41c0 0-2.342 0-5.821 0-10.01 0-13.173 4.352-13.173 4.352s-9.92-39.855-15.83-62.48"/><path d="m385 142.39c-13.05-9.869-34.429-10.281-34.429-10.281l-.397 68.41c0 0 2.343 0 5.821 0 10 0 13.173 4.352 13.173 4.352s9.923-39.855 15.832-62.48"/></g><path fill="#b12333" d="m338.87 180.81h24.267v24.448h-24.267v-24.448"/><path fill="#d3342e" d="m372.79 196.98c0 0 27.19 4.059 42.22 12.226-5.646 6.693-5.131 9.07-5.131 9.07s-27.465-11.04-36.3-11.04c-8.721 0-.788 49.29-.788 49.29v-59.55"/><path fill="#db6b67" d="m321.56 234.49c0 0-29.579 26.368-27.992 14.214 1.587-12.155-1.183-28.826-1.183-28.826s27.446-11.06 36.27-11.06c8.717 0 .789 47.777.789 47.777l-7.889-22.11"/><path fill="#d3342e" d="m329.01 196.98c0 0-27.16 4.066-42.19 12.241 5.641 6.702 5.125 9.08 5.125 9.08s27.445-11.06 36.28-11.06c8.712 0 .786 49.36.786 49.36v-59.62"/><path fill="#db6b67" d="m379.81 234.44c0 0 29.604 26.336 28.02 14.196-1.588-12.138 1.182-28.788 1.182-28.788s-27.462-11.04-36.3-11.04c-8.722 0-.788 47.714-.788 47.714l7.892-22.08"/><circle fill="#edecec" cx="350.36" cy="167.64" r="22.454"/><path fill="#282828" d="m350.47 146.5c11.552 0 20.913 9.357 20.913 20.9s-9.362 20.901-20.913 20.901-20.914-9.357-20.914-20.901c.002-11.541 9.365-20.9 20.914-20.9"/><g fill="#c42c26"><path d="m403.62 288.57h27.433c.479 0 .87.391.87.874v20.847c0 .482-.391.871-.87.871h-27.433c-.479 0-.874-.389-.874-.871v-20.847c.001-.484.394-.874.874-.874"/><path d="m352 288.46h48.763c.481 0 .874.39.874.873v21.13c0 .48-.391.873-.874.873h-48.763c-.482 0-.873-.392-.873-.873v-21.12c0-.483.391-.873.873-.873"/><path d="m271.38 288.57h27.442c.482 0 .874.391.874.874v20.847c0 .482-.39.871-.874.871h-27.442c-.48 0-.872-.389-.872-.871v-20.847c0-.484.391-.874.872-.874"/><path d="m301.46 288.46h48.787c.482 0 .876.39.876.873v21.13c0 .48-.392.873-.876.873h-48.787c-.479 0-.87-.392-.87-.873v-21.12c0-.483.39-.873.87-.873"/></g><g fill="#403f4e"><ellipse cx="446.5" cy="341.39" rx="15.695" ry="15.479"/><circle cx="257.05" cy="341.39" r="15.479"/></g><circle cx="446.28" cy="341.17" r="5.01"/><path d="m256.72 336.18c2.725 0 4.931 2.207 4.931 4.927 0 2.724-2.207 4.927-4.931 4.927-2.725 0-4.93-2.205-4.93-4.927-.001-2.721 2.204-4.927 4.93-4.927"/><circle fill="#fff" cx="350.36" cy="167.86" r="7.848"/><path d="m350.41 223.4c19 0 34.402 15.367 34.402 34.32s-15.401 34.33-34.402 34.33-34.401-15.37-34.401-34.33c-.001-18.955 15.401-34.32 34.401-34.32"/><path fill="#20202e" d="m442.57 333.1h-15.237v33.454h-.055v.077l-76.15 26.859-76.21-26.859-.054-9.636c0 0 .029.01.081.027v-23.922h-15.699c-.482 0-.872-.391-.872-.874v-19.11c0-.482.389-.874.872-.874h183.32c.479 0 .871.391.871.874v19.11c-.004.483-.394.874-.874.874m-30.04 28.924v-28.922h-6.531v31.15c2.289-.782 4.481-1.531 6.531-2.229m-10.888 3.716v-32.64h-6.093v34.728c2.057-.707 4.099-1.407 6.093-2.088m-10.451 3.586v-36.23h-6.531v38.478c2.157-.745 4.343-1.498 6.531-2.253m-10.885 3.764v-39.99h-6.095v42.11c1.975-.691 4.01-1.402 6.095-2.122m-10.45 3.643v-43.633h-6.531v45.921c2.04-.715 4.231-1.485 6.531-2.288m-10.887 3.827v-47.46h-5.659v49.46c1.619-.577 3.522-1.247 5.659-2m-10.01 2v-49.46h-5.662v47.46c2.136.751 4.04 1.426 5.662 2m-10.01-3.532v-45.93h-6.533v43.636c2.298.807 4.487 1.573 6.533 2.294m-10.888-3.813v-42.12h-6.098v39.998c2.084.72 4.121 1.431 6.098 2.119m-10.45-3.628v-38.489h-6.533v36.24c2.19.754 4.378 1.509 6.533 2.254m-10.889-3.749v-34.74h-6.094v32.652c1.996.683 4.04 1.383 6.094 2.088m-10.448-3.575v-31.17h-6.533v28.937c2.052.7 4.244 1.447 6.533 2.228m-16.973-5.773c1.656.564 3.721 1.261 6.086 2.063v-27.455h-6.086v25.392m137.59-25.392v27.441c2.373-.806 4.44-1.509 6.098-2.07v-25.371h-6.098"/><path opacity=".6" d="m274.59 332.85h152.32v6.381h-152.32v-6.381"/><path fill="#2d2c3d" stroke="#edecec" stroke-width="2.599" stroke-miterlimit="10" d="m351.13 198.68c32.2 0 58.3 26.08 58.3 58.26 0 32.18-26.1 58.26-58.3 58.26-32.2 0-58.3-26.08-58.3-58.26 0-32.18 26.1-58.26 58.3-58.26z"/><path fill="#403f4d" d="m351.01 218.88c19.868 0 35.972 16.1 35.972 35.972 0 19.865-16.1 35.968-35.972 35.968-19.865 0-35.971-16.1-35.971-35.968.001-19.868 16.11-35.972 35.971-35.972"/><circle fill="#2d2c3d" cx="351.23" cy="254.63" r="29.866"/><circle fill="#d3342e" cx="351.01" cy="255.06" r="22.02"/><g fill="#db2f43"><path d="m300.44 253.58c.759 0 1.373.616 1.373 1.373 0 .757-.614 1.373-1.373 1.373-.759 0-1.374-.616-1.374-1.373.001-.756.615-1.373 1.374-1.373"/><path d="m401.59 253.58c.76 0 1.37.616 1.37 1.373 0 .757-.612 1.373-1.37 1.373-.759 0-1.373-.616-1.373-1.373.001-.757.614-1.373 1.373-1.373"/><path d="m351.22 203.04c.762 0 1.376.61 1.376 1.364 0 .754-.616 1.365-1.376 1.365-.762 0-1.379-.61-1.379-1.365.002-.755.619-1.364 1.379-1.364"/><path d="m350.81 304.12c.763 0 1.38.612 1.38 1.365 0 .755-.617 1.365-1.38 1.365-.762 0-1.377-.609-1.377-1.365-.002-.755.615-1.365 1.377-1.365"/></g><path fill="#fff" d="m368.97 255.14c0-10.02-8.154-18.18-18.18-18.18-10.02 0-18.18 8.153-18.18 18.18 0 10.02 8.155 18.18 18.18 18.18 10.02-.002 18.18-8.156 18.18-18.18m-18.822 15.866c-.011-.001-.023-.001-.035-.003-.117-.728-.554-1.229-1.137-1.275-.563-.053-1.245.173-1.481.943-.088-.021-.17-.037-.26-.057.614-2.302 1.407-4.804 2.358-7.437.102-.281.18-.535.236-.763.008.257.029.533.064.84.303 2.51.48 5.188.516 7.768-.088-.002-.171-.009-.261-.016m-4.855-2.231c-.531-.197-1.247-.153-1.675.527-.08-.039-.153-.079-.234-.123 1.187-2.064 2.601-4.273 4.2-6.573.169-.246.308-.469.424-.677-.056.241-.107.514-.155.829-.356 2.504-.877 5.137-1.508 7.638-.087-.026-.164-.054-.249-.084-.013-.004-.021-.007-.033-.012.076-.741-.227-1.331-.77-1.525m-8.03-19.05c.048-.129.106-.329.106-.563 0-.287-.091-.774-.626-1.114.041-.08.078-.154.124-.235 2.058 1.197 4.262 2.619 6.555 4.229.244.17.467.31.675.428-.24-.057-.515-.11-.829-.161-2.5-.367-5.133-.898-7.631-1.542.026-.085.055-.165.085-.25.005-.01.008-.022.012-.032.735.08 1.331-.209 1.529-.76m1.895-3.311c.109-.154.295-.469.295-.865 0-.24-.069-.569-.363-.886.061-.066.119-.128.182-.196 1.679 1.69 3.439 3.635 5.235 5.783.193.229.371.425.542.592-.218-.119-.468-.24-.758-.369-2.322-1-4.725-2.199-6.972-3.467.051-.075.097-.145.147-.22.007-.009.013-.019.021-.027.685.261 1.336.137 1.671-.345m2.692-2.71c.352-.286.553-.68.553-1.08 0-.212-.054-.424-.162-.631.075-.048.146-.094.225-.142 1.182 2.069 2.377 4.401 3.555 6.944.125.271.25.504.37.711-.181-.17-.391-.352-.638-.554-1.98-1.57-3.992-3.352-5.831-5.158.065-.061.13-.114.196-.174.011-.008.021-.016.028-.021.595.433 1.258.483 1.704.105m3.332-1.929c.643-.289.97-.887.824-1.55.084-.027.166-.051.254-.078.601 2.305 1.144 4.87 1.616 7.631.05.294.106.555.17.782-.128-.21-.283-.443-.471-.7-1.5-2.034-2.975-4.277-4.277-6.505.079-.04.153-.073.234-.113.013-.006.022-.01.033-.016.46.576 1.085.797 1.617.549m3.702-.987c.562-.092 1.16-.474 1.198-1.283.089-.005.174-.007.269-.009-.021 2.382-.164 5-.43 7.788-.024.283-.041.553-.039.801-.067-.237-.157-.501-.27-.8-.919-2.355-1.76-4.905-2.438-7.395.088-.021.17-.034.259-.049.01-.002.021-.005.035-.009.291.68.839 1.056 1.416.956m2.675-1.283c.012.002.023.004.035.004.109.729.541 1.234 1.123 1.289.563.059 1.246-.161 1.49-.927.086.021.17.039.26.062-.64 2.294-1.461 4.784-2.443 7.407-.104.277-.184.529-.246.759-.004-.257-.021-.533-.054-.839-.274-2.511-.423-5.194-.427-7.774.09.006.173.012.262.019m4.798 2.275c.528.201 1.247.165 1.68-.514.079.042.154.08.235.125-1.206 2.053-2.639 4.249-4.261 6.534-.174.243-.314.467-.434.672.06-.241.115-.513.166-.828.379-2.499.923-5.127 1.578-7.625.084.028.163.056.247.086.013.004.023.008.034.011-.084.744.212 1.341.755 1.539m7.895 19.03c-.049.127-.105.33-.105.564 0 .286.089.772.623 1.113-.039.079-.08.154-.122.235-2.059-1.201-4.261-2.627-6.547-4.244-.244-.171-.471-.312-.676-.431.24.058.515.111.827.16 2.501.375 5.132.914 7.631 1.559-.028.085-.058.164-.087.248-.007.014-.009.022-.013.035-.735-.079-1.331.21-1.531.761m-1.894 3.295c-.11.152-.295.47-.295.867 0 .238.068.566.362.885-.062.066-.119.128-.184.196-1.675-1.692-3.433-3.641-5.225-5.792-.191-.227-.371-.423-.543-.59.221.12.47.242.761.37 2.319 1 4.72 2.204 6.966 3.476-.049.075-.096.145-.148.22-.006.009-.012.018-.02.028-.687-.265-1.339-.14-1.674.34m-2.661 2.68c-.351.287-.551.68-.551 1.079 0 .213.054.426.163.633-.075.047-.146.093-.225.144-1.187-2.069-2.384-4.399-3.565-6.939-.126-.269-.251-.505-.37-.71.182.17.391.354.639.551 1.984 1.567 3.997 3.345 5.839 5.149-.064.062-.129.115-.195.173-.011.01-.021.017-.027.022-.599-.433-1.262-.48-1.708-.102m-3.346 1.943c-.64.289-.967.886-.823 1.548-.084.028-.166.054-.254.078-.601-2.304-1.145-4.869-1.616-7.629-.05-.294-.108-.552-.17-.783.128.211.282.444.468.7 1.504 2.035 2.978 4.277 4.282 6.503-.08.04-.156.076-.237.115-.011.005-.021.01-.029.015-.464-.575-1.09-.794-1.621-.547m-3.617.979c-.561.093-1.16.48-1.19 1.289-.089.005-.177.008-.268.011.006-2.384.134-5 .381-7.791.022-.257.034-.503.034-.733 0-.021 0-.045-.002-.066.072.235.162.5.277.797.934 2.349 1.789 4.894 2.482 7.379-.086.019-.168.035-.256.05-.012.002-.023.005-.036.007-.297-.677-.845-1.048-1.422-.943m-15.184-5.861c-.049-.074-.094-.146-.142-.224 2.06-1.192 4.387-2.399 6.923-3.591.269-.126.503-.252.708-.373-.169.179-.352.39-.551.638-1.558 1.988-3.326 4.01-5.126 5.859-.06-.063-.116-.13-.174-.195-.007-.01-.017-.02-.022-.027.231-.319.354-.658.354-.982 0-.275-.09-.526-.258-.722-.36-.439-1-.76-1.712-.383m-1.785-3.746c-.028-.084-.054-.166-.08-.253 2.301-.615 4.864-1.173 7.622-1.66.293-.052.552-.112.781-.176-.209.13-.442.286-.698.473-2.025 1.515-4.261 3-6.477 4.319-.042-.08-.078-.155-.116-.236-.006-.011-.011-.021-.019-.031.411-.333.641-.744.641-1.162 0-.163-.036-.317-.103-.459-.231-.516-.767-.992-1.551-.815m28.34-13.246c.048.075.094.146.14.225-2.081 1.166-4.424 2.336-6.978 3.488-.271.124-.509.245-.714.364.171-.181.357-.387.559-.632 1.59-1.966 3.388-3.961 5.213-5.784.062.067.113.131.17.2.009.008.017.018.022.027-.239.321-.369.667-.369.995 0 .268.087.514.248.71.356.443.991.772 1.709.407m1.708 3.704c.027.086.051.167.075.254-2.307.59-4.875 1.122-7.639 1.58-.296.051-.554.106-.784.167.213-.126.444-.279.703-.467 2.041-1.491 4.292-2.957 6.523-4.251.04.08.076.156.115.238.004.011.009.021.014.03-.418.33-.653.745-.653 1.167 0 .157.034.309.098.449.231.521.762 1 1.548.833m-7.128 5.916c-.28-.102-.533-.181-.763-.24.247-.007.524-.024.842-.059 2.512-.286 5.193-.446 7.773-.464-.007.088-.015.172-.021.262-.002.014-.002.023-.003.036-.729.112-1.232.545-1.282 1.131-.005.053-.008.108-.008.167 0 .517.254 1.099.941 1.318-.021.087-.038.171-.062.26-2.297-.631-4.79-1.441-7.417-2.411m.047-2.066c-.297-.026-.56-.039-.799-.039.237-.067.502-.156.799-.269 2.354-.919 4.904-1.758 7.396-2.436.018.087.031.17.049.257.003.011.005.021.007.036-.604.262-.966.719-.966 1.238 0 .061.005.124.015.181.089.559.476 1.161 1.281 1.198.005.094.007.179.009.269-2.381-.023-5-.167-7.791-.435m.927-10.721c.459.333 1.159.483 1.753-.059.064.059.127.118.193.182-1.697 1.671-3.65 3.42-5.809 5.206-.229.191-.425.369-.593.541.119-.219.242-.47.374-.759 1.013-2.316 2.22-4.714 3.502-6.953.073.051.143.098.216.147.01.007.02.014.03.021-.095.238-.144.474-.144.694.004.416.173.767.478.98m-16.818 10.358c.281.103.534.182.765.24-.247.006-.526.025-.842.061-2.511.292-5.19.457-7.771.479.005-.09.011-.172.019-.262.003-.012.003-.024.005-.036.727-.114 1.231-.547 1.279-1.131.006-.053.008-.108.008-.165 0-.521-.255-1.102-.943-1.319.018-.088.038-.171.059-.261 2.298.625 4.793 1.43 7.421 2.394m-.041 2.105c.298.024.562.035.801.032-.237.072-.5.163-.796.277-2.35.937-4.893 1.794-7.379 2.49-.018-.088-.033-.17-.052-.259-.001-.011-.003-.021-.006-.034.599-.265.958-.721.958-1.237 0-.063-.007-.128-.017-.188-.093-.559-.487-1.157-1.29-1.188-.007-.089-.01-.174-.011-.266 2.384.003 5 .129 7.792.373m-.82 10.748c-.464-.327-1.167-.469-1.754.078-.067-.06-.129-.118-.196-.18 1.682-1.688 3.618-3.456 5.758-5.263.228-.193.421-.373.587-.543-.117.218-.239.467-.366.759-.992 2.327-2.175 4.734-3.435 6.988-.075-.048-.145-.096-.219-.147-.009-.006-.02-.012-.028-.018.089-.234.135-.463.135-.68.001-.426-.17-.78-.482-.994"/></svg>