<svg xmlns="http://www.w3.org/2000/svg" viewBox="0 0 700 700" enable-background="new 0 0 700 700"><g opacity=".8"><circle fill="#fff" cx="343.92" cy="337.81" r="321"/></g><circle fill="#c32d28" cx="342.96" cy="338.83" r="297"/><path fill="#fff" d="m446.14 396.21c-3.364-5.571-8.711-10.69-15.77-12.845-.811-.247-3.449-.836-3.449-5.414v-187.19c0-2.651-2.175-4.82-4.833-4.82h-159.26c-2.658 0-4.833 2.169-4.833 4.82v220.14c0 2.651 2.175 4.82 4.833 4.82h4.341c4.994 0 4.229 2.887 4.243 4.371.016 1.43.145 2.881.39 4.348 1.88 11.22 9.815 29.25 23.534 48.43.988 1.38 4.055 4.157-3.354 4.157h-36.689c-10.66 0-19.333-8.648-19.333-19.278v-289.64c0-10.631 8.673-19.279 19.333-19.279h174.33c10.66 0 19.333 8.648 19.333 19.279v227.56c-.001 3.492-1.63 2.518-2.821.545m-88.84-232.48h-29.684c-2.669 0-4.833 2.158-4.833 4.82 0 2.661 2.164 4.818 4.833 4.818h29.684c2.669 0 4.833-2.158 4.833-4.818 0-2.66-2.163-4.82-4.833-4.82m-52.15 169.21c2.32 2.919 1.833 7.163-1.097 9.479-1.242.984-2.729 1.464-4.2 1.464-1.993 0-3.97-.876-5.307-2.556-8.553-10.746-13.07-23.678-13.07-37.4 0-13.669 4.729-27.06 13.316-37.707 2.342-2.904 6.603-3.363 9.514-1.029 2.912 2.336 3.375 6.583 1.033 9.487-6.758 8.378-10.33 18.492-10.33 29.25.002 10.642 3.509 20.673 10.145 29.01m11.772-3.431c-4.405-6.78-8.673-13.974-8.673-22.666 0-18.812 15.346-34.11 34.21-34.11s34.21 15.304 34.21 34.11c0 6.874-2.05 13.276-5.571 18.639-.687 1.045-2.595 4.533-2.514 1.144-.326-2.725-.324-3.229-.551-5.05l-.273-2.508c-1.293-11.83-10.835-20.09-23.21-20.09-6.731 0-13.188 2.592-17.711 7.109-4.216 4.216-6.53 9.869-6.518 15.909l-.006 5.714c.193 2.548-.278 6.598-3.396 1.801m62.846-54.86c-2.322-2.919-1.834-7.163 1.095-9.479 2.929-2.316 7.183-1.826 9.507 1.091 8.553 10.747 13.07 23.679 13.07 37.4 0 13.668-4.729 27.06-13.315 37.706-1.337 1.657-3.298 2.521-5.276 2.521-1.486 0-2.985-.488-4.235-1.491-2.912-2.335-3.375-6.582-1.033-9.486 6.758-8.378 10.33-18.492 10.33-29.25-.002-10.643-3.509-20.675-10.145-29.01m-99.84 148.44c-.889-5.312.38-10.31 3.576-14.07 3.034-3.572 7.485-5.621 12.211-5.621 5.666 0 10.973 2.955 14.562 8.109.753 1.094 1.555 2.243 2.424 3.493l.66.949c4.937 7.117 11.619 9.373 15.15 10.09l.054-104.03c-.011-3.913 1.412-7.415 4.109-10.11 2.988-2.986 7.318-4.698 11.88-4.698 8.02 0 14.197 5.25 15.02 12.768l-.027.005c.729 5.502 4.909 41.37 6.65 56.37 3.189-.718 6.917-.742 10.562-.025 3.772.746 9.229 2.479 14.506 4.154 3.985 1.266 8.104 2.572 10.1 2.971 3.859.76 9.176 2.506 14.313 4.195 4.109 1.349 8.359 2.742 10.618 3.186 9.306 1.798 15.653 12.232 15.764 18.34v45.592c0 7.589-2.06 15.03-5.955 21.526l-8.957 15.01.076 26.463c0 5.569-4.529 10.09-10.1 10.09h-84.988c-5.57 0-10.1-4.521-10.1-10.07l-.05-25.825c-27.01-27.782-39.942-56.28-42.05-68.849"/></svg>