<?xml version="1.0" encoding="utf-8"?>
<!-- Generator: Adobe Illustrator 17.0.0, SVG Export Plug-In . SVG Version: 6.00 Build 0)  -->
<!DOCTYPE svg PUBLIC "-//W3C//DTD SVG 1.1//EN" "http://www.w3.org/Graphics/SVG/1.1/DTD/svg11.dtd">
<svg version="1.1" id="Layer_1" xmlns="http://www.w3.org/2000/svg" xmlns:xlink="http://www.w3.org/1999/xlink" x="0px" y="0px"
	 width="80px" height="80px" viewBox="0 0 80 80" enable-background="new 0 0 80 80" xml:space="preserve">
<g display="none">
	<path display="inline" fill="#8F8F8F" d="M59.867,40.748v-0.546c0-0.511-0.208-0.974-0.508-1.345
		c-0.119-0.614-0.187-1.265-0.339-1.844c-0.033-0.14-0.116-0.243-0.172-0.359c0.392-0.439,0.615-0.822,0.615-1.066
		c0,0-5.985-2.865-18.894-2.865c-12.918,0-18.903,2.865-18.903,2.865c0,0.244,0.22,0.615,0.591,1.054
		c-0.021,0.068-0.068,0.116-0.092,0.187c-0.16,0.623-0.243,1.333-0.371,1.992c-0.312,0.383-0.531,0.849-0.531,1.381v0.511
		c-2.506,1.101-4.21,4.047-4.21,7.725c0,3.999,3.827,7.434,6.796,8.536c2.782,9.242,12.918,13.185,16.721,13.185
		c3.782,0,13.871-3.919,16.691-13.117c3.293-1.042,6.817-4.789,6.817-8.604C64.077,44.91,62.316,41.897,59.867,40.748L59.867,40.748
		z M55.529,53.063c-1.007,0-1.876,0.71-2.099,1.695C51.785,62.54,43.098,65.88,40.569,65.88c-2.538,0-11.226-3.34-12.87-11.134
		c-0.199-0.917-1.137-1.612-2.078-1.695c-0.962-0.08-4.29-2.423-4.29-4.614c0-0.998,0.196-1.832,0.511-2.494
		c0.395,0.428,0.938,0.695,1.565,0.695c1.185,0,2.146-0.95,2.146-2.135v-1.82c0.012-0.068,0.045-0.128,0.045-0.196
		c0.059-1.009,0.199-1.971,0.362-2.901c3.524,2.203,8.847,4.421,14.61,4.421c5.754,0,11.089-2.218,14.613-4.421
		c0.163,0.929,0.303,1.891,0.347,2.901c0.012,0.068,0.047,0.116,0.059,0.184v1.823c0,1.194,0.95,2.144,2.135,2.144
		c0.615,0,1.149-0.255,1.541-0.65c0.315,0.65,0.546,1.476,0.546,2.449C59.798,50.593,56.77,53.063,55.529,53.063L55.529,53.063z"/>
	<path display="inline" fill="#8F8F8F" d="M52.352,47.903c0,1.915-1.553,3.48-3.48,3.48c-1.912,0-3.468-1.565-3.468-3.48
		s1.556-3.48,3.468-3.48C50.8,44.423,52.352,45.988,52.352,47.903L52.352,47.903z"/>
	<g display="inline">
		<path fill="#8F8F8F" d="M35.723,47.903c0,1.915-1.556,3.468-3.468,3.468c-1.927,0-3.48-1.553-3.48-3.468s1.553-3.468,3.48-3.468
			C34.167,44.435,35.723,45.988,35.723,47.903L35.723,47.903z"/>
		<path fill="#8F8F8F" d="M40.684,29.754c13.236,0,18.883,2.331,18.883,2.331c0-4.234,9.334-11.341,6.425-11.341
			c-16.261,0-19.645-11.632-25.432-11.632c-5.789,0-7.146,11.632-25.307,11.632c-2.945,0,3.931,7.027,3.931,11.341
			C19.183,32.085,27.443,29.754,40.684,29.754L40.684,29.754z M35.815,18.214h9.498v4.756c0,2.363-4.744,4.741-4.744,4.741
			s-4.753-2.378-4.753-4.741v-4.756H35.815z"/>
	</g>
</g>
<path fill-rule="evenodd" clip-rule="evenodd" fill="none" stroke="#8F8F8F" stroke-width="0.9838" stroke-miterlimit="10" d="
	M19.34,56.872v-2.41l4.861-4.821V36.384c0-7.472,5.104-13.498,12.153-15.185v-1.687c0-1.928,1.701-3.616,3.646-3.616
	s3.646,1.687,3.646,3.616v1.687c7.049,1.687,12.153,7.713,12.153,15.185v13.257l4.861,4.821v2.41H19.34z M40,64.104
	c-2.674,0-4.861-2.169-4.861-4.821h9.722C44.861,61.934,42.674,64.104,40,64.104z"/>
</svg>
