<?xml version="1.0" encoding="utf-8"?>
<!-- Generator: Adobe Illustrator 17.0.0, SVG Export Plug-In . SVG Version: 6.00 Build 0)  -->
<!DOCTYPE svg PUBLIC "-//W3C//DTD SVG 1.1//EN" "http://www.w3.org/Graphics/SVG/1.1/DTD/svg11.dtd">
<svg version="1.1" id="Layer_1" xmlns="http://www.w3.org/2000/svg" xmlns:xlink="http://www.w3.org/1999/xlink" x="0px" y="0px"
	 width="80px" height="80px" viewBox="0 0 80 80" enable-background="new 0 0 80 80" xml:space="preserve">
<path fill-rule="evenodd" clip-rule="evenodd" fill="#8F8F8F" d="M66.418,68.666c-30.821,0-55.74-24.466-55.74-54.726
	c0-1.931,1.312-3.219,3.279-3.219h11.476c1.967,0,3.279,1.288,3.279,3.219c0,3.863,0.656,7.726,1.967,11.589
	c0.328,0.966,0,2.253-0.656,3.219l-7.541,7.082c4.59,9.014,12.459,16.418,21.64,21.247l7.213-7.082
	c0.984-0.966,2.295-1.288,3.279-0.644c3.607,1.288,7.541,1.931,11.804,1.931c1.967,0,3.279,1.288,3.279,3.219v10.945
	C69.697,67.378,68.385,68.666,66.418,68.666z"/>
</svg>
