<?xml version="1.0" encoding="utf-8"?>
<!-- Generator: Adobe Illustrator 17.0.0, SVG Export Plug-In . SVG Version: 6.00 Build 0)  -->
<!DOCTYPE svg PUBLIC "-//W3C//DTD SVG 1.1//EN" "http://www.w3.org/Graphics/SVG/1.1/DTD/svg11.dtd">
<svg version="1.1" id="Layer_1" xmlns="http://www.w3.org/2000/svg" xmlns:xlink="http://www.w3.org/1999/xlink" x="0px" y="0px"
	 width="80px" height="80px" viewBox="0 0 80 80" enable-background="new 0 0 80 80" xml:space="preserve">
<path fill-rule="evenodd" clip-rule="evenodd" fill="none" stroke="#8F8F8F" stroke-width="2.1228" stroke-miterlimit="10" d="
	M19.992,40.584h13.815v10.047H19.992V40.584z"/>
<path fill-rule="evenodd" clip-rule="evenodd" fill="none" stroke="#8F8F8F" stroke-width="2.1228" stroke-miterlimit="10" d="
	M42.599,40.584h13.815v10.047H42.599V40.584z"/>
<path fill-rule="evenodd" clip-rule="evenodd" fill="none" stroke="#8F8F8F" stroke-width="2.1228" stroke-miterlimit="10" d="
	M42.599,23.001h13.815v10.047H42.599V23.001z"/>
<path fill-rule="evenodd" clip-rule="evenodd" fill="#8F8F8F" d="M18.736,21.745h16.327v12.559H18.736V21.745z"/>
<path fill-rule="evenodd" clip-rule="evenodd" fill="#8F8F8F" d="M12.22,14.21h51.967c0.563,0,1.019,0.456,1.019,1.019v1.73
	c0,0.563-0.456,1.019-1.019,1.019H12.22c-0.563,0-1.019-0.456-1.019-1.019v-1.73C11.201,14.666,11.657,14.21,12.22,14.21z"/>
<path fill-rule="evenodd" clip-rule="evenodd" fill="#8F8F8F" d="M62.456,14.21h1.73c0.563,0,1.019,0.456,1.019,1.019v51.967
	c0,0.563-0.456,1.019-1.019,1.019h-1.73c-0.563,0-1.019-0.456-1.019-1.019V15.229C61.438,14.666,61.894,14.21,62.456,14.21z"/>
<path fill-rule="evenodd" clip-rule="evenodd" fill="#8F8F8F" d="M12.22,14.21h1.73c0.563,0,1.019,0.456,1.019,1.019v51.967
	c0,0.563-0.456,1.019-1.019,1.019h-1.73c-0.563,0-1.019-0.456-1.019-1.019V15.229C11.201,14.666,11.657,14.21,12.22,14.21z"/>
</svg>
