<?xml version="1.0" encoding="utf-8"?>
<!-- Generator: Adobe Illustrator 16.0.0, SVG Export Plug-In . SVG Version: 6.00 Build 0)  -->
<!DOCTYPE svg PUBLIC "-//W3C//DTD SVG 1.1//EN" "http://www.w3.org/Graphics/SVG/1.1/DTD/svg11.dtd">
<svg version="1.1" id="Layer_1" xmlns="http://www.w3.org/2000/svg" xmlns:xlink="http://www.w3.org/1999/xlink" x="0px" y="0px"
	 width="80px" height="80px" viewBox="0 0 80 80" enable-background="new 0 0 80 80" xml:space="preserve">
<g enable-background="new    ">
	<path fill="#8F8F8F" d="M20.667,22.999c0.162,0.198,0.252,0.468,0.252,0.702c0,0.647-0.558,1.151-1.223,1.151
		c-0.342,0-0.684-0.145-0.936-0.414c-0.684-0.72-1.565-1.151-2.465-1.151c-2.177,0-3.76,1.673-3.76,3.94
		c0,2.267,1.583,3.939,3.76,3.939c0.899,0,1.799-0.396,2.465-1.134c0.252-0.27,0.611-0.413,0.971-0.413
		c0.648,0,1.169,0.503,1.169,1.115c0,0.252-0.072,0.504-0.252,0.701c-0.899,1.098-2.285,1.997-4.354,1.997
		c-3.598,0-6.386-2.519-6.386-6.206c0-3.688,2.788-6.207,6.386-6.207C18.364,21.021,19.749,21.902,20.667,22.999z"/>
	<path fill="#8F8F8F" d="M32.34,33.326c-0.702,0-1.277-0.576-1.277-1.277v-3.868h-5.667v3.886c0,0.684-0.575,1.26-1.295,1.26
		c-0.684,0-1.259-0.576-1.259-1.26V22.37c0-0.684,0.576-1.26,1.295-1.26c0.684,0,1.259,0.576,1.259,1.26v3.562h5.667V22.37
		c0-0.684,0.576-1.26,1.313-1.26c0.684,0,1.259,0.576,1.259,1.26v9.679C33.635,32.75,33.06,33.326,32.34,33.326z"/>
	<path fill="#8F8F8F" d="M45.236,33.326c-0.539,0-1.043-0.324-1.241-0.846l-0.468-1.296h-5.145l-0.486,1.296
		c-0.198,0.521-0.702,0.846-1.259,0.846c-0.81,0-1.349-0.685-1.349-1.368c0-0.161,0.018-0.323,0.09-0.485l3.508-9.013
		c0.306-0.81,1.115-1.35,1.96-1.35c0.918-0.072,1.835,0.468,2.177,1.35l3.49,9.013c0.055,0.162,0.09,0.324,0.09,0.485
		C46.604,32.624,46.064,33.326,45.236,33.326z M40.955,23.773l-1.871,5.163h3.742L40.955,23.773z"/>
	<path fill="#8F8F8F" d="M55.309,28.648l1.655,2.807c0.108,0.197,0.162,0.413,0.162,0.611c0,0.611-0.504,1.26-1.259,1.26
		c-0.45,0-0.864-0.234-1.098-0.648l-2.051-3.724h-1.871v3.112c0,0.684-0.576,1.26-1.295,1.26c-0.684,0-1.26-0.576-1.26-1.26v-9.409
		c0-0.791,0.647-1.438,1.439-1.438h4.174c2.5,0,4.029,1.637,4.029,3.867C57.936,27.209,56.604,28.343,55.309,28.648z M50.848,23.467
		v3.238h2.68c1.025,0,1.8-0.611,1.8-1.619c0-1.007-0.774-1.619-1.8-1.619H50.848z"/>
	<path fill="#8F8F8F" d="M67.522,23.467h-2.501v8.582c0,0.701-0.576,1.277-1.295,1.277c-0.701,0-1.277-0.576-1.277-1.277v-8.582
		h-2.501c-0.611,0-1.115-0.503-1.115-1.151c0-0.594,0.504-1.097,1.115-1.097h7.574c0.593,0,1.097,0.503,1.097,1.133
		C68.619,22.964,68.115,23.467,67.522,23.467z"/>
</g>
<g enable-background="new    ">
	<path fill="#8F8F8F" d="M20,54.803h-3.292c-0.792,0-1.439-0.647-1.439-1.439v-9.121c0-0.791,0.647-1.438,1.439-1.438H20
		c3.76,0,6.368,2.393,6.368,6.009C26.368,52.428,23.76,54.803,20,54.803z M20,45.052h-2.177v7.502H20c2.375,0,3.76-1.709,3.76-3.741
		C23.76,46.689,22.464,45.052,20,45.052z"/>
	<path fill="#8F8F8F" d="M33.868,55.019c-3.616,0-6.26-2.591-6.26-6.206c0-3.616,2.645-6.207,6.26-6.207
		c3.634,0,6.279,2.591,6.279,6.207C40.146,52.428,37.502,55.019,33.868,55.019z M33.868,44.872c-2.212,0-3.634,1.691-3.634,3.94
		c0,2.23,1.421,3.939,3.634,3.939c2.213,0,3.652-1.709,3.652-3.939C37.52,46.563,36.081,44.872,33.868,44.872z"/>
	<path fill="#8F8F8F" d="M51.1,54.911c-0.485,0-0.971-0.234-1.277-0.648l-5.324-7.286v6.675c0,0.684-0.576,1.26-1.295,1.26
		c-0.684,0-1.26-0.576-1.26-1.26v-9.319c0-0.845,0.719-1.637,1.673-1.637c0.54,0,1.079,0.252,1.403,0.702l5.109,6.943v-6.386
		c0-0.684,0.576-1.26,1.295-1.26c0.684,0,1.26,0.576,1.26,1.26v9.408C52.684,54.173,52.018,54.911,51.1,54.911z"/>
	<path fill="#8F8F8F" d="M62.558,54.803h-6.063c-0.791,0-1.438-0.647-1.438-1.439v-9.121c0-0.791,0.647-1.438,1.438-1.438h6.063
		c0.593,0,1.097,0.503,1.097,1.133c0,0.612-0.504,1.115-1.097,1.115H57.61v2.537h4.821c0.594,0,1.098,0.504,1.098,1.133
		c0,0.612-0.504,1.116-1.098,1.116H57.61v2.716h4.947c0.593,0,1.097,0.504,1.097,1.098C63.654,54.299,63.15,54.803,62.558,54.803z"
		/>
</g>
</svg>
