<?xml version="1.0" encoding="utf-8"?>
<!-- Generator: Adobe Illustrator 17.0.0, SVG Export Plug-In . SVG Version: 6.00 Build 0)  -->
<!DOCTYPE svg PUBLIC "-//W3C//DTD SVG 1.1//EN" "http://www.w3.org/Graphics/SVG/1.1/DTD/svg11.dtd">
<svg version="1.1" id="Layer_1" xmlns="http://www.w3.org/2000/svg" xmlns:xlink="http://www.w3.org/1999/xlink" x="0px" y="0px"
	 width="612px" height="792px" viewBox="0 0 612 792" enable-background="new 0 0 612 792" xml:space="preserve">
<g>
	<path fill="none" d="M560.205,837.633H53.663V59.585c-0.174-2.876-0.335-5.737,2.027-6.078h504.515V837.633z"/>
	<path fill="#FFFFFF" d="M353.537,79.847c-0.76,6.67-10.773,4.086-10.132,12.157c10.115,5.418,19.648,11.418,26.34,20.262
		c11.307-10.08-6.201-22.46-2.025-38.497c-15.439-3.282-18.37,5.945-30.393,6.078c0.299-5.025,0.378-9.833-4.052-10.132
		c-1.888,4.868-8.143,5.366-6.079,14.184C337.271,90.909,344.583,80.425,353.537,79.847z M363.667,98.082
		c-6.36,0.957-5.351-5.454-10.13-6.078c1.187-4.216,4.258-6.548,6.078-10.132C362.622,85.618,363.497,91.499,363.667,98.082z"/>
	<path fill="#FFFFFF" d="M240.072,144.684c0.03-5.372-1.124-11.931,4.051-12.158c2.827,10.007,8.256,17.411,16.211,22.288
		c2.23-7.301,16.392-10.934,12.157-18.235c-3.592-5.864-14.281-4.63-18.235-10.132c8.283-26.2,59.213-19.573,42.549,14.183
		c5.456,5.293,18.858,5.293,24.314,0c1.748-9.853-5.802-10.409-4.054-20.262c3.089-18.5,37.606-18.443,38.498,2.026
		c0.511,9.29-9.169,8.392-8.105,18.235c0.026,4.027,5.529,2.576,4.052,8.105c16.492,0.817,15.775-16.514,16.211-26.341
		c13.075,14.491-1.006,37.306-2.026,54.707c-0.716,12.236,8.044,29.758-10.131,30.393c-0.996,9.099,1.026,15.182,2.025,22.288
		c19.063-10.373,19.933-24.778,18.236-48.628c6.465,1.736,6.266-3.189,10.131-4.053c-4.377-22.639,8.276-62.308-22.289-58.758
		c-7.437-16.2-23.991-23.285-42.548-28.367c-0.992-6.395,3.65-7.155,2.025-14.183c-12.238-1.004,0.649,10.521-6.079,14.183
		c-3.551-1.852-10.108-0.696-12.156-4.052c3.118-3.087,3.609-13.893-4.053-12.157c-2.339,6.583,6.189,12.463,0,16.209
		c-12.998,5.136-10.92-10.859-14.183-12.157c1.662,22.259-27.487,29.526-38.496,16.21c7.616-5.491,50.448-2.659,28.366-18.236
		c-5.642-0.913,1.588,11.044-4.052,10.132c-6.937-7.618-23.337-15.33-36.471-10.132c7.829,16.636-3.504,18.413,8.103,32.42
		c-6.381-0.979-1.517,9.289-6.078,10.131c-3.194-0.184-1.586-5.168-6.078-4.053C222.476,121.599,224.504,145.285,240.072,144.684z
		 M254.256,108.213c1.712-3.445-6.315,15.979-10.133,20.261C241.476,123.71,249.033,111.839,254.256,108.213z"/>
	<path fill="#FFFFFF" d="M296.805,85.925c-0.032-5.372,1.123-11.931-4.052-12.157C293.978,77.945,289.483,87.844,296.805,85.925z"/>
	<path display="none" d="M363.667,98.082c-0.17-6.583-1.044-12.464-4.052-16.21c-1.82,3.583-4.891,5.916-6.078,10.132
		C358.315,92.628,357.307,99.039,363.667,98.082z"/>
	<path fill="#FFFFFF" d="M345.432,114.291c-7.351-10.704-24.031,2.474-20.261,16.21c9.794,4.26,22.335-0.454,26.339-8.105
		c-7.749-6.466-18.14,3.825-22.287,0C332.015,117.084,336.661,113.623,345.432,114.291z"/>
	<path fill="#FFFFFF" d="M264.385,122.396c1.237,11.822,18.649,11.511,26.34,6.078c2.339-13.705-12.496-19.153-22.287-14.183
		c-2.39,8.417,16.013-4.108,16.208,6.078C277.769,120.92,268.22,118.801,264.385,122.396z"/>
	<path fill="#FFFFFF" d="M148.894,166.971c13.963,3.157,7.364-14.248,12.157-20.262c4.163,3.266,4.699,10.16,4.052,18.235
		c-3.147,2.929-7.896,4.261-12.156,6.078c-0.557,7.311,8.013,5.496,8.104,12.157c-5.032-0.303-8.409,1.047-10.132,4.052
		c6.391,5.093,14.714,8.251,20.262,14.184c5.28-6.293,0.072-15.075-2.026-20.262c13.551-1.088,3.877-13.066,6.078-24.314
		c7.238-8.636,4.433-29.527-2.025-36.472c-17.323-1.806-40.876,4.094-46.603,20.262C134.478,148.97,153.826,145.829,148.894,166.971
		z"/>
	<path fill="#FFFFFF" d="M195.495,134.553c1.859-8.612-4.855-8.653-12.156-8.105C183.607,132.933,187.933,135.363,195.495,134.553z"
		/>
	<path fill="#FFFFFF" d="M211.705,166.971c-0.172,8.952,0.342,17.218,10.132,16.209c-1.702-13.833-9.823-21.245-12.157-34.444
		c4.237,1.258,7.615,10.393,10.13,2.025c-6.863-9.514-26.072-17.076-36.47-6.077C187.879,156.508,206.661,162.081,211.705,166.971z"
		/>
	<path fill="#FFFFFF" d="M227.914,173.05c6.385,1.562,17.626-7.479,16.209-20.262c-11.836,3.056-12.486-5.074-18.235-8.104
		C220.12,153.519,229.906,161.527,227.914,173.05z"/>
	<path fill="#FFFFFF" d="M424.453,146.71c-11.005,5.88-29.35,4.418-30.393,20.262C408.714,164.741,420.87,160.014,424.453,146.71z"
		/>
	<path fill="#FFFFFF" d="M106.344,160.893c2.036,4.043,8.959,3.198,8.105,10.13c-13.22,7.718-14.767,27.108-24.314,38.496
		c11.355,5.746,26.596-10.244,16.209-20.261c10.036-2.86,19.932,1.783,30.393,4.052c-3.369,5.411-13.98,3.58-18.235,8.106
		c-1.006,12.486,5.737,17.225,12.156,22.287c3.471-10.257-9.446-10.22-4.053-16.21c5.906,2.876,9.025,8.536,8.105,18.236
		c-2.589,11.345-26.331,8.598-18.236,24.313c29.684-3.204,32.638-42.361,26.341-74.967c-3.19-3.565-10.852-2.658-14.183-6.078
		c5.077-3.702,13.343-4.217,16.209-10.132c-15.449-15.402-45.451-9.414-52.681,10.132C99.2,168.607,99.854,161.831,106.344,160.893z
		"/>
	<path fill="#FFFFFF" d="M258.306,158.867c-6.391,4.415-3.428,18.183-4.051,28.366c6.919,3.888,12.152,9.46,22.287,10.131
		c0.998-10.589-27.218-16.969-12.157-36.471C261.795,160.782,261.58,158.296,258.306,158.867z"/>
	<path fill="#FFFFFF" d="M207.653,187.233c4.262-13.479-8.223-26.576-24.314-26.339
		C184.802,176.315,199.508,178.492,207.653,187.233z"/>
	<path fill="#FFFFFF" d="M448.767,187.233c-2.373-14.529,11.764-12.55,14.183-22.288c-0.428-2.274-2.249-3.154-4.053-4.052
		C451.386,165.264,429.863,181.107,448.767,187.233z"/>
	<path fill="#FFFFFF" d="M280.595,177.102c11.184,0.378,16.157-5.452,22.288-10.131c-12.323,2.805-25.524-4.112-30.392-2.026
		C275.793,168.397,275.834,175.11,280.595,177.102z"/>
	<path fill="#FFFFFF" d="M422.426,164.945c-13.115,1.068-18.914,9.452-30.393,12.157
		C399.907,189.949,426.61,175.852,422.426,164.945z"/>
	<path fill="#FFFFFF" d="M100.265,177.102c-12.122-3.579-27.182,14.749-22.286,28.367C90.477,201.083,96.719,190.44,100.265,177.102
		z"/>
	<path fill="#FFFFFF" d="M244.123,175.077c-7.752,1.024-15.722,1.837-16.209,10.13c4.8,5.331,8.048,12.215,16.209,14.183
		c4.604-1.476,6.06-6.097,8.105-10.131C246.581,187.478,245.509,181.12,244.123,175.077z"/>
	<path fill="#FFFFFF" d="M442.688,213.573c-2.821-17.005,14.883-13.483,20.262-22.288c0.323-6.402,0.071-12.228-4.053-14.183
		c-4.929,3.852-3.652,13.907-10.131,16.209c-7.159-3.903-11.092,0.661-16.21,4.053C431.391,207.311,435.185,212.296,442.688,213.573
		z"/>
	<path fill="#FFFFFF" d="M323.144,189.259c-1.997-12.229-19.255-11.657-28.366-6.078
		C294.565,195.687,317.695,200.281,323.144,189.259z"/>
	<path fill="#FFFFFF" d="M205.626,205.469c4.387-11.686-11.14-19.526-20.26-24.314c-1.701,2.352-2.671,5.432-2.026,10.13
		C191.681,195.1,196.956,201.984,205.626,205.469z"/>
	<path fill="#FFFFFF" d="M402.165,203.443c7.362-7.496,23.801-5.917,26.34-18.236C415.775,179.278,400.09,187.827,402.165,203.443z"
		/>
	<path fill="#FFFFFF" d="M282.62,185.207c-5.748,9.971-0.012,23.711,6.079,28.366c11.223-10.486,30.501,0.325,46.603-4.053
		c-1.434-10.887,1.602-17.309,4.052-24.313c-14.931,7.1-20.42,19.135-36.471,14.183C294.358,196.76,294.201,184.664,282.62,185.207z
		"/>
	<path fill="#FFFFFF" d="M394.06,193.311c0.573-5.299-0.74-8.715-6.078-8.104C387.41,190.506,388.721,193.922,394.06,193.311z"/>
	<path fill="#FFFFFF" d="M211.705,189.259c-0.801,8.907,2.489,13.72,10.132,14.183C220.662,196.512,220.385,188.686,211.705,189.259
		z"/>
	<path fill="#FFFFFF" d="M148.894,197.364c6.184,12.051,13.62,22.851,22.288,32.419
		C175.809,214.644,161.663,201.759,148.894,197.364z"/>
	<path fill="#FFFFFF" d="M394.06,201.417c-3.193-0.184-1.588-5.168-6.078-4.053c-4.729,10.04-5.477,28.219-2.026,40.523
		c12.733-0.099,12.156-13.508,14.183-24.314c-6.716-1.828-8.789,11.257-12.157,6.079C387.768,211.333,396.08,211.54,394.06,201.417z
		"/>
	<path fill="#FFFFFF" d="M177.261,201.417c-8.036,22.298,12.46,31.566,24.313,40.523c3.855-5.601,0.175-18.737,8.105-20.262
		c5.01,2.418,7.921,6.938,10.13,12.156c-4.698-0.645-7.778,0.326-10.13,2.027c-1.194,7.271,2.355,9.802,4.052,14.183
		c15.873-5.449,13.705-32.923,2.027-40.524C198.291,217.149,194.805,199.749,177.261,201.417z M199.548,225.731
		c-8.906-1.225-15.883-4.378-18.236-12.158C191.216,213.799,197.376,217.771,199.548,225.731z"/>
	<path fill="#FFFFFF" d="M252.228,201.417c-6.754,7.201-15.836,0.034-20.261,2.025c7.261,8.271,12.8,18.269,20.261,26.34
		c5.961-5.521,11.915-11.049,16.211-18.235C262.408,208.796,252.353,210.069,252.228,201.417z"/>
	<path fill="#FFFFFF" d="M497.395,245.992c6.278-15.496-20.34-14.459-24.314-26.339c2.611-7.52,12.739-7.524,12.156-18.236
		c-7.513-1.436-8.696,3.461-16.209,2.025c-1.376,7.404-2.828,14.734-2.026,24.314C480.271,230.697,480.776,246.402,497.395,245.992z
		"/>
	<path fill="#FFFFFF" d="M424.453,205.469c-9.106-5.471-17.025,5.259-16.209,16.209
		C417.327,219.955,422.728,214.551,424.453,205.469z"/>
	<path fill="#FFFFFF" d="M440.661,235.861c8.726-9.512,20.158-16.315,22.289-32.419C451.78,209.439,437.694,222.381,440.661,235.861
		z"/>
	<path fill="#8F8F8F" d="M199.548,225.731c-2.171-7.96-8.331-11.932-18.236-12.158C183.664,221.353,190.642,224.507,199.548,225.731
		z"/>
	<path fill="#FFFFFF" d="M505.499,233.834c0.441-7.41,2.784-7.771,0-14.181c-8.63,1.773-17.974-6.206-24.314,0
		C489.63,224.04,495.058,231.444,505.499,233.834z"/>
	<path fill="#FFFFFF" d="M108.37,235.861c4.162-0.566,4.044-5.412,6.079-8.105c-6.851-0.579-8.552-6.308-14.184-8.104
		C100.071,227.951,100.545,235.582,108.37,235.861z"/>
	<path fill="#FFFFFF" d="M163.077,254.096c14.583-16.618,19.79-1.853,30.392,10.132c3.595-3.835,1.475-13.383,2.025-20.262
		c-14.548-9.09-33.208-14.067-46.601-24.313C150.6,234.154,167.047,233.916,163.077,254.096z"/>
	<path fill="#FFFFFF" d="M410.269,239.914c12.713,6.198,7.212,30.608,22.288,34.444c0.931-10.551,10.367-12.596,14.183-20.262
		c-9.078-2.883-17.341,5.466-22.288,0c2.6-6.179,12.139-5.421,12.157-14.182c-4.844-1.234-14.7,2.543-16.209-2.026
		c1.417-8.712,15.468-4.791,12.156-18.234C419.521,220.798,414.24,229.7,410.269,239.914z"/>
	<path fill="#FFFFFF" d="M262.359,223.704c5.575,8.608,8.439,19.927,20.261,22.288c2.961-3.795,0.079-13.427,4.053-16.209
		c0.915,9.83,11.655,18.568,20.261,14.183C300.563,229.87,276.994,222.858,262.359,223.704z"/>
	<path fill="#FFFFFF" d="M341.38,245.992c7.344-4.138,9.6-13.363,10.13-24.314C336.524,219.782,331.748,240.454,341.38,245.992z"/>
	<path fill="#FFFFFF" d="M333.276,235.861c-3.156-4.273-7.512-7.348-16.211-6.078c-2.978,2.948-2.978,13.262,0,16.209
		C326.828,246.975,331.041,242.404,333.276,235.861z"/>
	<path fill="#FFFFFF" d="M454.846,256.122c1.311-6.204,5.949-19.596,2.025-24.314C452.291,235.205,446.031,252.034,454.846,256.122z
		"/>
	<path fill="#FFFFFF" d="M231.967,245.992c5.694,4.681,13.324-1.678,12.156-10.131C236.467,235.633,233.229,239.826,231.967,245.992
		z"/>
	<path fill="#FFFFFF" d="M406.217,235.861c-8.927,1.204-13.093,7.167-16.21,14.183c6.969,3.838,4.526,17.087,12.158,20.262
		c4.457-4.997,8.544-10.367,10.131-18.236c-7.114-1.189-6.665,9.577-12.157,4.052C399.302,246.506,407.054,245.478,406.217,235.861z
		"/>
	<path fill="#FFFFFF" d="M373.798,239.914c-4.325,7.453,10.316,9.14,8.105,2.026C381.527,238.939,377.006,240.081,373.798,239.914z"
		/>
	<path fill="#FFFFFF" d="M146.868,325.012c8.455-20.583,9.732-39.215,20.262-54.706c-6.563-8.298-10.075-19.643-16.211-28.366
		c-12.423,12.413,5.933,20.063,6.078,32.418c-8.884,2.133-6.654-6.853-14.181-6.078c-2.232,11.689,7.948,10.962,6.078,22.288
		c-5.883-1.546-5.256-9.602-14.183-8.103c-0.508,13.339,9.959,15.706,12.157,26.339c-8.887,2.133-6.657-6.854-14.183-6.078
		C132.325,315.242,137.9,321.825,146.868,325.012z"/>
	<path fill="#FFFFFF" d="M242.098,260.175c8.316,4.679,17.907-4.378,20.261-12.157C255.032,244.327,243.798,251.741,242.098,260.175
		z"/>
	<path fill="#FFFFFF" d="M359.615,245.992c-0.615,4.727-4.325,8.73,2.026,10.13c0.027-4.027,5.528-2.576,4.053-8.104
		C363.104,247.907,362.889,245.422,359.615,245.992z"/>
	<path fill="#FFFFFF" d="M203.6,250.044c-2.43,18.566-0.763,31.811-8.105,42.549c2.938,3.816,2.98,10.53,8.105,12.157
		c3.687-15.9,8.092-31.079,10.131-48.628C208.952,255.499,209.962,249.087,203.6,250.044z"/>
	<path fill="#FFFFFF" d="M270.464,278.41c-0.345-13.175,11.619-14.044,14.182-24.314
		C273.641,247.138,252.388,274.733,270.464,278.41z"/>
	<path fill="#FFFFFF" d="M467.002,268.279c2.724-2.961,4.143-16.047-2.026-16.209C462.253,255.033,460.832,268.119,467.002,268.279z
		"/>
	<path fill="#FFFFFF" d="M363.667,274.358c-2.531-12.327-14.182-15.534-24.313-20.262
		C340.301,268.007,353.39,269.776,363.667,274.358z"/>
	<path fill="#FFFFFF" d="M375.825,254.096c1.262,6.167,4.499,10.359,12.157,10.132C387.467,257.313,383.646,253.704,375.825,254.096
		z"/>
	<path fill="#FFFFFF" d="M173.208,341.221c12.117-11.436-1.448-32.815,14.182-44.575c0.091-6.168-4.276-7.879-6.079-12.157
		c6.607,0.527,9.754-2.405,10.133-8.105c-0.286-9.17-9.016-9.896-8.105-20.262h-10.131c-3.639,12.486,11.048,17.226,8.103,22.288
		c-4.421-1.074-13.106-4.902-14.181,2.026c2.033,5.483,12.466,13.08,10.131,16.21c-8.143-0.714-14.826,0.032-16.21,6.078
		c4.687,4.092,10.828,6.733,12.157,14.182c-6.099,5.503-9.042-4.434-18.236-2.025C153.677,331.035,174.912,324.659,173.208,341.221z
		"/>
	<path fill="#FFFFFF" d="M304.909,256.122c-17.553-1.043-28.372,14.446-24.314,28.367
		C291.136,278.519,305.55,266.628,304.909,256.122z"/>
	<path fill="#FFFFFF" d="M315.04,256.122c3.227,11.262,20.4,29.165,26.34,24.314C342.277,270.723,332.257,254.47,315.04,256.122z"/>
	<path fill="#FFFFFF" d="M375.825,272.332c4.083-5.098-1.122-13.881-8.104-14.183C363.635,263.246,368.842,272.03,375.825,272.332z"
		/>
	<path fill="#FFFFFF" d="M225.888,274.358c9.025,2.272,7.286-6.221,10.132-10.13C228.802,263.765,225.425,267.141,225.888,274.358z"
		/>
	<path fill="#FFFFFF" d="M446.74,286.515c-5.754-8.819,11.054-9.807,8.105-22.287c-44.991,7.838,12.774,52.927,8.104,10.13
		C453.113,273.977,456.576,286.897,446.74,286.515z"/>
	<path fill="#FFFFFF" d="M408.244,278.41c6.165-1.262,10.358-4.5,10.13-12.156C412.208,267.516,408.016,270.754,408.244,278.41z"/>
	<path fill="#FFFFFF" d="M242.098,290.567c5.382-4.749,11.682-8.579,14.183-16.209C248.292,267.732,232.748,286.263,242.098,290.567
		z"/>
	<path fill="#FFFFFF" d="M341.38,294.62c-11.839-5.721-11.862-23.26-30.393-22.288c0.045,4.773-3.49,5.966-2.025,12.157
		c6.709,6.121,22.524,3.139,22.289,16.209c-6.515-2.267-12.016-5.546-20.263-6.078c3.059,15.176,20.394,16.078,26.34,28.366
		C346.286,314.195,328.555,304.375,341.38,294.62z"/>
	<path fill="#FFFFFF" d="M385.955,272.332c-0.041,6.794,0,13.508,8.104,12.157C394.101,277.694,394.06,270.981,385.955,272.332z"/>
	<path fill="#FFFFFF" d="M349.484,276.385c0.925,11.233,7.003,17.312,18.236,18.236C365.739,284.444,359.66,278.365,349.484,276.385
		z"/>
	<path fill="#FFFFFF" d="M304.909,280.436c-13.759-7.713-14.199,13.698-26.339,14.184c0.36,6.395,1.423,12.084,8.103,12.156
		C286.987,292.23,305.271,295.658,304.909,280.436z"/>
	<path fill="#FFFFFF" d="M369.746,278.41c-0.227,7.658,3.966,10.895,10.132,12.157C384.559,284.873,378.199,277.244,369.746,278.41z
		"/>
	<path fill="#FFFFFF" d="M260.334,298.672c7.468-1.311,10.628-6.932,12.157-14.182C264.346,278.326,257.863,287.833,260.334,298.672
		z"/>
	<path fill="#FFFFFF" d="M418.374,282.464c-2.922,4.505-5.087,9.77-4.052,18.235C421.463,302.085,426.795,283.526,418.374,282.464z"
		/>
	<path fill="#FFFFFF" d="M223.863,296.646c6.092,1.204,11.494-8.552,6.079-12.157C228.812,289.437,222.102,288.807,223.863,296.646z
		"/>
	<path fill="#FFFFFF" d="M406.217,284.489c-2.786,2.599-3.529,12.115,2.027,12.157C409.9,295.176,413.679,282.623,406.217,284.489z"
		/>
	<path fill="#FFFFFF" d="M345.432,292.593c3.396,10.112,8.883,18.133,20.262,20.262
		C362.856,303.065,353.037,291.035,345.432,292.593z"/>
	<path fill="#FFFFFF" d="M432.557,290.567c-5.588,5.896-9.511,13.451-8.104,26.34C431.997,314.266,437.952,299.412,432.557,290.567z
		"/>
	<path fill="#FFFFFF" d="M387.982,292.593c-0.147,6.073,5.96,10.282,10.13,6.079C399.04,292.342,393.784,292.194,387.982,292.593z"
		/>
	<path fill="#FFFFFF" d="M240.072,316.907c8.725-2.082,11.334-10.277,14.183-18.235
		C242.275,297.499,239.664,305.694,240.072,316.907z"/>
	<path fill="#FFFFFF" d="M371.772,298.672c-0.692,8.796,5.578,10.632,12.157,12.156
		C384.251,302.403,380.198,298.351,371.772,298.672z"/>
	<path fill="#FFFFFF" d="M302.883,310.828c9.798,11.815,22.127,21.099,36.471,28.368c0.118-15.892-27.894-20.558-32.419-38.497
		c-15.053,3.182-22.123,14.347-22.288,32.418C294.11,329.07,297.782,319.237,302.883,310.828z"/>
	<path fill="#FFFFFF" d="M444.713,300.699c-2.935,7.872-7.947,13.664-8.103,24.313C445.181,324.868,454.887,306.303,444.713,300.699
		z"/>
	<path fill="#FFFFFF" d="M266.412,329.065c2.512-7.621,15.346-13.435,8.104-24.315C262.811,302.389,253.687,326.159,266.412,329.065
		z"/>
	<path fill="#FFFFFF" d="M209.679,353.379c-9.012-5.266-8.059-12.717-4.054-22.289c-6.577-1.174-9.425,1.38-14.181,2.026
		c2.344-5.084,8.072-6.785,8.103-14.183c-0.742-6.011-3.512-9.995-8.103-12.157c-1.424,6.007,4.233,19.094-6.079,16.21
		C185.367,339.893,198.545,354.351,209.679,353.379z"/>
	<path fill="#FFFFFF" d="M398.111,314.882c-0.247-5.156-2.947-7.858-8.104-8.105c-0.113,1.236-0.302,2.398-2.025,2.026
		C387.835,314.875,393.941,319.085,398.111,314.882z"/>
	<path fill="#FFFFFF" d="M231.967,308.803h-6.079c-1.701,2.353-2.671,5.433-2.025,10.131
		C229.561,318.555,232.493,315.409,231.967,308.803z"/>
	<path fill="#FFFFFF" d="M412.296,308.803c-1.999,8.604,0.654,18.725-4.052,28.367C419.617,338.254,423.266,311.448,412.296,308.803
		z"/>
	<path fill="#FFFFFF" d="M347.458,310.828c1.104,13.079,5.981,22.385,18.236,24.314C363.994,322.66,354.951,317.52,347.458,310.828z
		"/>
	<path fill="#FFFFFF" d="M379.877,333.117c4.342-6.323-2.874-15.096-10.132-16.21C368.578,326.854,372.374,331.84,379.877,333.117z"
		/>
	<path fill="#FFFFFF" d="M456.871,318.934c-2.588,5.78-13.753,10.606-8.104,18.236C456.654,337.54,462.672,325.528,456.871,318.934z
		"/>
	<path fill="#FFFFFF" d="M132.684,325.012c2.318,7.139,4.452,14.459,10.132,18.236C147.397,336.156,140.136,326.506,132.684,325.012
		z"/>
	<path fill="#FFFFFF" d="M236.02,325.012c-6.752,1.354-11,5.21-10.132,14.184C232.641,337.842,236.889,333.987,236.02,325.012z"/>
	<path fill="#FFFFFF" d="M246.15,357.431c15.183-4,0.485-24.647,6.078-32.419C237.416,326.628,247.363,345.891,246.15,357.431z"/>
	<path fill="#FFFFFF" d="M394.06,329.065h-6.078c-0.566,4.618,0.488,7.616,4.052,8.104C392.67,334.43,394.919,333.3,394.06,329.065z
		"/>
	<path fill="#FFFFFF" d="M464.976,353.379c-3.157-13.965,7.414-14.198,8.105-24.314C464.342,329.67,451.57,349.794,464.976,353.379z
		"/>
	<path fill="#FFFFFF" d="M262.359,349.326c9.786-1.02,16.85-4.761,16.211-16.209C270.311,328.496,263.668,340.502,262.359,349.326z"
		/>
	<path fill="#FFFFFF" d="M152.947,333.117c-1.641,11.097,6.767,12.143,6.078,22.288c-6.347,0.405-11.189-11.037-14.183-2.025
		c3.848,4.932,9.054,8.506,8.105,18.235C170.257,364.778,174.103,338.347,152.947,333.117z"/>
	<path fill="#FFFFFF" d="M300.856,333.117c-4.793,6.013-14.16,7.455-14.183,18.236C295.743,351.707,310.979,338.674,300.856,333.117
		z"/>
	<path fill="#FFFFFF" d="M329.223,347.3c-0.033-10.097-9.02-11.241-16.21-14.183C311.469,344.793,320.681,345.711,329.223,347.3z"/>
	<path fill="#FFFFFF" d="M363.667,351.353c-2.245-9.235-7.71-15.253-16.209-18.236C348.396,343.662,354.961,348.579,363.667,351.353
		z"/>
	<path fill="#FFFFFF" d="M420.401,353.379c3.253-4.724,14.552-16.513,6.078-20.262C421.137,335.29,414.385,346.57,420.401,353.379z"
		/>
	<path fill="#FFFFFF" d="M381.904,345.275c-3.604-1.801-5.151-5.658-12.158-4.054C367.097,349.814,381.034,352.16,381.904,345.275z"
		/>
	<path fill="#FFFFFF" d="M402.165,377.693c0.546-8.793,7.978-30.433,0-34.446C399.45,356.276,388.373,369.498,402.165,377.693z"/>
	<path fill="#FFFFFF" d="M442.688,345.275c-0.448-1.58-1.696-2.357-4.053-2.027c-4.143,7.338-10.356,12.608-12.156,22.289
		C437.617,364.517,440.52,355.262,442.688,345.275z"/>
	<path fill="#FFFFFF" d="M392.033,353.379c0.115-1.237,0.305-2.398,2.026-2.026V347.3c-1.236-0.114-2.398-0.302-2.026-2.025h-4.052
		c-0.115,1.235-0.303,2.398-2.026,2.025v4.053c1.236,0.114,2.398,0.303,2.026,2.026H392.033z"/>
	<path fill="#FFFFFF" d="M193.469,367.562c-1.887-10.27-4.79-19.525-16.209-20.261C179.429,357.289,182.331,366.544,193.469,367.562
		z"/>
	<path fill="#FFFFFF" d="M238.045,347.3c-3.529-0.152-6.301,0.452-8.103,2.025C228.584,358.107,240.131,355.57,238.045,347.3z"/>
	<path fill="#FFFFFF" d="M217.784,349.326c-3.848,3.818-0.245,10.531,4.053,12.158C227.645,357.076,224.615,351.272,217.784,349.326
		z"/>
	<path fill="#FFFFFF" d="M294.778,371.614c7.52-5.99,14.01-13.006,18.235-22.289C301.882,350.82,290.542,361.331,294.778,371.614z"
		/>
	<path fill="#FFFFFF" d="M280.595,351.353c-10.176,1.981-16.255,8.058-18.236,18.235
		C271.449,366.522,276.317,359.232,280.595,351.353z"/>
	<path fill="#FFFFFF" d="M333.276,351.353c-0.319,9.819,8.274,4.325,12.156,2.026c0.811,9.996,4.421,17.192,12.157,20.26
		C357.089,358.606,351.027,349.133,333.276,351.353z"/>
	<path fill="#FFFFFF" d="M317.065,353.379c1.806,6.296,2.086,14.123,10.132,14.182C332.891,360.387,326.324,351.937,317.065,353.379
		z"/>
	<path fill="#FFFFFF" d="M450.792,353.379c-3.078,6.377-6.755,12.156-8.104,20.26c9.314-1.493,10.47-11.142,14.183-18.235
		C454.281,355.293,454.065,352.808,450.792,353.379z"/>
	<path fill="#FFFFFF" d="M365.694,357.431c-0.146,6.072,5.959,10.281,10.131,6.079c-0.247-5.156-2.947-7.858-8.104-8.105
		C367.605,356.64,367.417,357.803,365.694,357.431z"/>
	<path fill="#FFFFFF" d="M416.348,357.431c-8.372-3.483-10.861,9.184-6.079,12.157C409.173,362.413,417.444,364.606,416.348,357.431
		z"/>
	<path fill="#FFFFFF" d="M199.548,375.667c4.274-3.157,7.346-7.513,6.078-16.209C198.601,358.626,195.321,371.961,199.548,375.667z"
		/>
	<path fill="#FFFFFF" d="M193.469,381.745c-13.097,2.24-10.169-22.183-20.261-16.209
		C175.409,373.301,184.604,393.964,193.469,381.745z"/>
	<path fill="#FFFFFF" d="M240.072,363.51c-5.7,0.379-8.633,3.523-8.105,10.13C237.666,373.261,240.599,370.116,240.072,363.51z"/>
	<path fill="#FFFFFF" d="M280.595,365.536c-6.119,5.362-13.923,9.04-12.156,22.287C276.724,385.997,289.258,371.343,280.595,365.536
		z"/>
	<path fill="#FFFFFF" d="M195.495,553.97c4.893-30.066,33.95-65.662,36.472-93.205c1.784-19.487-12.004-81.741-20.262-93.203
		c-1.411,14.461-20.648,16.954-24.314,34.446c-3.217,15.355,4.12,37.09,2.026,56.732c-2.608,24.48-11.726,45.383-6.078,64.838
		c1.527,5.227,14.987-1.479,14.183,6.078c-3.732,7.074-12.668,8.944-24.314,8.104c-2.559,5.547-1.996,14.213-6.078,18.236
		C173.654,566.322,186.443,557.899,195.495,553.97z M215.758,442.53c5.504,7.894-0.566,38.34-6.079,48.628
		C205.028,476.344,217.147,460.827,215.758,442.53z"/>
	<path fill="#FFFFFF" d="M254.256,367.562c-6.344-0.941-9.046,1.761-8.105,8.105C252.5,376.616,251.861,370.573,254.256,367.562z"/>
	<path fill="#FFFFFF" d="M331.25,379.719c6.342,0.94,9.044-1.761,8.103-8.104C333.77,365.308,324.943,374.135,331.25,379.719z"/>
	<path fill="#FFFFFF" d="M296.805,393.902c-3.296-11.274,16.155-14.909,6.078-20.262
		C296.37,375.572,278.351,391.698,296.805,393.902z"/>
	<path fill="#FFFFFF" d="M313.013,375.667c4.477,0.252,0.861,8.594,2.026,12.156c-6.365,0.389-9.744,3.766-10.131,10.131
		c8.277,5.212,8.751-12.109,20.261-10.131C328.091,378.049,319.43,369.388,313.013,375.667z"/>
	<path fill="#FFFFFF" d="M418.374,383.772c7.448,1.95,8.056-9.954,2.027-10.133C418.701,375.992,417.727,379.073,418.374,383.772z"
		/>
	<path fill="#FFFFFF" d="M390.007,377.693c-9.281,85.013,8.159,142.571,46.603,180.329c5.938-0.815,1.62-11.888,6.078-14.184
		c6.995,1.786,1.805,15.757,12.158,14.184c3.309-13.824-13.672-23.871-24.315-30.393
		C410.535,480.336,441.53,397.618,390.007,377.693z"/>
	<path fill="#FFFFFF" d="M387.982,549.916c-4.649-10.207-10.563-19.155-16.21-28.366c-1.862-36.189-16.611-71.924,4.053-99.28
		c-1.326,14.879-9.028,38.047-2.026,48.627c9.473-20.247,10.643-48.793,10.131-79.021c-8.532-0.427-3.09,13.119-8.104,16.209
		c0.224-11.03-3.087-18.523-6.079-26.339c-23.823,0.891-27.723,21.694-26.34,42.55c-5.793-5.688-2.998-19.967-12.155-22.288
		c-5.425,13.792-8.223,48.493,6.077,54.706c2.62-8.186,4.466-17.148,8.104-24.315c4.524,32.225-12.933,53.243-6.078,81.047
		c3.231-1.496-0.463-9.918,6.078-8.104c3.322,17.469,1.278,31.113-4.052,44.574c8.307-0.2,16.606-0.396,22.287,2.027
		c1.705-5.049,2.652-10.855,2.027-18.236c-6.273-2.03-7.87,10.781-12.157,4.053c7.088-28.189-14.702-46.266-4.053-64.838
		C355.537,504.086,364.888,542.522,387.982,549.916z"/>
	<path fill="#FFFFFF" d="M432.557,381.745c-2.332,2.394-2.293,7.163-2.026,12.157c7.217,0.462,10.594-2.913,10.131-10.13
		C437.922,383.134,436.792,380.887,432.557,381.745z"/>
	<path fill="#FFFFFF" d="M233.993,424.295c2.521-9.061,5.03-30.759-4.052-34.445C231.853,400.77,225.652,419.802,233.993,424.295z"
		/>
	<path fill="#FFFFFF" d="M183.339,446.582c-0.74-17.497,3.332-39.803-8.105-46.601C176.073,417.377,172.783,438.903,183.339,446.582
		z"/>
	<path fill="#FFFFFF" d="M436.61,523.578c-1.641-36.419,5.354-86.339-6.079-119.545C432.186,443.524,412.542,498.146,436.61,523.578
		z"/>
	<path fill="#FFFFFF" d="M300.856,553.97c6.593,2.349,22.05,3.805,28.367,0c4.137-44.004-0.776-97.911-12.158-137.78
		c-5.33-2.098-12.433-2.424-20.26-2.026C300.334,465.443,285.141,513.275,300.856,553.97z"/>
	<path fill="#8F8F8F" d="M215.758,442.53c1.388,18.297-10.73,33.814-6.079,48.628C215.192,480.87,221.262,450.424,215.758,442.53z"
		/>
	<path fill="#FFFFFF" d="M238.045,462.791c-5.027,19.287-3.535,45.094-12.157,60.786c5.107,3.626,13.491-3.009,18.235-6.079
		C241.955,499.408,245.237,475.861,238.045,462.791z"/>
	<path fill="#FFFFFF" d="M379.877,483.054c-2.298,14.309-4.901,37.784,8.104,42.55C391.408,512.96,393.027,485.758,379.877,483.054z
		"/>
	<path fill="#FFFFFF" d="M238.045,558.022c2.972-14.811-2.866-14.566,0-28.367c-9.878,0.926-7.332,14.28-12.157,20.26
		C237.533,544.38,230.74,555.234,238.045,558.022z"/>
	<path fill="#FFFFFF" d="M387.982,531.682c1.73,6.374,3.759,12.45,10.13,14.183C397.731,538.141,395.236,532.533,387.982,531.682z"
		/>
	<path fill="#FFFFFF" d="M464.976,549.916c0.279-3.772,1.334-6.77,4.053-8.104c4.134,3.97,4.244,11.966,12.157,12.158
		c-2.115-18.883-14.241-18.333-28.366-22.288C454.171,540.459,456.419,548.343,464.976,549.916z"/>
	<path fill="#FFFFFF" d="M163.077,535.734c-4.124,1.954-4.377,7.781-4.053,14.182C165.483,551.675,171.782,536.154,163.077,535.734z
		"/>
	<path fill="#FFFFFF" d="M213.731,545.865c6.011-0.743,9.996-3.513,12.157-8.105C221.529,533.997,212.11,537.455,213.731,545.865z"
		/>
	<path fill="#FFFFFF" d="M412.296,543.838c-0.879,4.505-4.656,10.989,2.026,12.158C415.2,551.49,418.977,545.007,412.296,543.838z"
		/>
	<path fill="#FFFFFF" d="M159.025,564.1c0.398-5.802,0.252-11.059-6.078-10.131C152.548,559.771,152.694,565.028,159.025,564.1z"/>
	<path fill="#FFFFFF" d="M394.06,580.309c-3.562,1.166-11.904-2.449-12.156,2.026c7.077,4.405,9.335,13.627,12.156,22.289
		c5.373,0.031,11.931-1.124,12.157,4.052c-4.771,15.333,5.26,21.508,0,34.446c3.944,9.565,17.166,9.85,20.262,20.261
		c2.219,7.431-8.155,19.949,0,20.26c12.113-27.477,17.228-53.186,22.288-79.019c-12.706-1.9-15.407,6.205-24.314,8.104
		c-3.579,9.869,3.915,19.67-4.052,26.34c-12.812-14.23,1.155-31.099,12.156-38.497c-4.688-4.768-5.547-13.362-12.156-16.21
		c-4.144,6.663-12.783,8.831-22.29,10.131C396.644,589.882,396.305,584.142,394.06,580.309z M408.244,594.492
		c2.393-2.333,7.163-2.295,12.157-2.025c7.639,11.63-2.25,17.841-12.157,10.131V594.492z"/>
	<path fill="#8F8F8F" d="M150.919,586.388c15.361,8.437,8.284,49.586,34.446,40.523
		C173.704,614.773,172.942,581.468,150.919,586.388z"/>
	<path fill="#8F8F8F" d="M420.401,592.467c-4.994-0.269-9.764-0.308-12.157,2.025v8.105
		C418.151,610.308,428.04,604.097,420.401,592.467z"/>
	<path fill="#FFFFFF" d="M120.527,653.252c2.426-16.147,4.924-45.68-2.025-58.76C117.64,614.085,113.613,637.034,120.527,653.252z"
		/>
	<path fill="#FFFFFF" d="M507.526,598.546c-6.506,13.526-4.458,40.253-2.026,56.731C516.487,647.741,512.694,609.42,507.526,598.546
		z"/>
	<path fill="#FFFFFF" d="M128.633,600.571c-3.688,16.155-7.719,43.95,2.025,56.732C136.135,643.922,138.095,611.079,128.633,600.571
		z"/>
	<path fill="#FFFFFF" d="M493.342,602.598c-5.203,13.574-8.024,48.298,2.027,58.758
		C499.852,645.026,502.618,615.895,493.342,602.598z"/>
	<path fill="#FFFFFF" d="M385.955,651.225c4.558-3.547,11.393-4.816,16.21-8.103c2.32-12.453-7.046-13.217-4.054-26.34
		c-4.736-0.668-8.371-2.437-12.156-4.053C392.247,625.21,382.394,642.299,385.955,651.225z"/>
	<path fill="#8F8F8F" d="M313.013,622.859c-0.647,4.698,0.326,7.778,2.026,10.131c5.156-0.247,7.857-2.947,8.104-8.104
		C320.791,623.185,317.713,622.212,313.013,622.859z"/>
	<path fill="#FFFFFF" d="M229.942,641.095c4.423,5.703,11.992,8.267,20.26,10.13c-3.007-6.45-0.012-18.898-4.052-24.314
		C242.271,633.162,232.476,633.497,229.942,641.095z"/>
	<path fill="#FFFFFF" d="M450.792,628.937c-3.916,7.567-2.704,20.259-8.104,26.34c15.23,3.748,14.876-8.089,24.314-10.13
		c1.444,15.929-20.811,28.754-12.156,38.495c6.334-17.293,25.16-28.329,20.261-50.653
		C468.476,630.677,459.54,622.702,450.792,628.937z"/>
	<path fill="#FFFFFF" d="M148.894,645.148c-5.018,8.056-24.503,20.146-14.183,30.391
		C131.279,658.567,154.533,657.587,148.894,645.148z"/>
	<path fill="#FFFFFF" d="M414.322,659.33c-1.089,12.418-8.41,18.607-14.183,26.34C415.058,689.348,421.673,664.572,414.322,659.33z"
		/>
	<path fill="#FFFFFF" d="M469.028,665.409c0.968,7.257,3.295,11.707,0,18.234C478.035,683.723,475.726,666.578,469.028,665.409z"/>
	<path fill="#FFFFFF" d="M183.339,722.14v-8.104C175.537,712.439,175.537,723.738,183.339,722.14z"/>
	<path fill="#FFFFFF" d="M191.444,714.036h-4.054c-0.113,1.238-0.302,2.4-2.025,2.026v4.053c1.235,0.114,2.398,0.303,2.025,2.025
		h4.054c0.113-1.236,0.302-2.398,2.025-2.025v-4.053C192.234,715.948,191.071,715.76,191.444,714.036z"/>
	<path fill="#FFFFFF" d="M195.495,714.036v8.104C203.297,723.738,203.297,712.439,195.495,714.036z"/>
	<path fill="#FFFFFF" d="M203.6,714.036v8.104c5.339,0.611,6.65-2.805,6.079-8.104H203.6z"/>
	<path fill="#FFFFFF" d="M217.784,722.14v-8.104h-6.079C211.14,719.33,211.019,724.175,217.784,722.14z"/>
	<path fill="#FFFFFF" d="M221.836,714.036c-0.637,2.738-2.885,3.871-2.027,8.104h6.079
		C225.426,718.55,227.93,711.994,221.836,714.036z"/>
	<path fill="#FFFFFF" d="M233.993,722.14v-8.104h-6.079C227.342,719.335,228.655,722.752,233.993,722.14z"/>
	<path fill="#FFFFFF" d="M242.098,722.14v-8.104C234.296,712.439,234.296,723.738,242.098,722.14z"/>
	<path fill="#FFFFFF" d="M246.15,714.036c-3.374,4.026,0.182,2.577,0,8.104C253.952,723.738,253.952,712.439,246.15,714.036z"/>
	<path fill="#FFFFFF" d="M254.256,714.036v8.104c5.337,0.611,6.648-2.805,6.078-8.104H254.256z"/>
	<path fill="#FFFFFF" d="M262.359,714.036c-0.566,4.618,0.487,7.615,4.053,8.104c0.637-2.739,2.884-3.869,2.027-8.104H262.359z"/>
	<path fill="#FFFFFF" d="M276.542,722.14v-8.104h-6.078C269.892,719.335,271.204,722.752,276.542,722.14z"/>
	<path fill="#FFFFFF" d="M284.647,714.036h-4.052c-0.114,1.238-0.302,2.4-2.025,2.026v4.053c1.233,0.114,2.396,0.303,2.025,2.025
		h4.052c0.115-1.236,0.304-2.398,2.026-2.025v-4.053C285.438,715.948,284.275,715.76,284.647,714.036z"/>
	<path fill="#FFFFFF" d="M288.699,714.036v8.104c5.339,0.611,6.648-2.805,6.079-8.104H288.699z"/>
	<path fill="#FFFFFF" d="M296.805,714.036v8.104c5.337,0.611,6.648-2.805,6.078-8.104H296.805z"/>
	<path fill="#FFFFFF" d="M310.987,722.14v-8.104h-6.078C304.343,719.33,304.224,724.175,310.987,722.14z"/>
	<path fill="#FFFFFF" d="M319.092,722.14v-8.104h-6.079C312.441,719.335,313.754,722.752,319.092,722.14z"/>
	<path fill="#FFFFFF" d="M327.197,714.036h-4.053c-0.114,1.238-0.302,2.4-2.025,2.026v4.053c1.236,0.114,2.398,0.303,2.025,2.025
		h4.053c0.114-1.236,0.303-2.398,2.026-2.025v-4.053C327.986,715.948,326.825,715.76,327.197,714.036z"/>
	<path fill="#FFFFFF" d="M337.327,722.14v-8.104h-6.077C330.683,719.33,330.564,724.175,337.327,722.14z"/>
	<path display="none" fill="#FFFFFF" d="M345.432,722.14v-8.104h-6.078C338.783,719.335,340.093,722.752,345.432,722.14z"/>
	<path fill="#FFFFFF" d="M353.537,722.14v-8.104h-6.079C346.887,719.335,348.199,722.752,353.537,722.14z"/>
	<path fill="#FFFFFF" d="M361.641,722.14v-8.104C353.84,712.439,353.84,723.738,361.641,722.14z"/>
	<path fill="#FFFFFF" d="M369.746,722.14v-8.104C361.944,712.439,361.944,723.738,369.746,722.14z"/>
	<path fill="#FFFFFF" d="M377.851,722.14v-8.104C370.048,712.439,370.048,723.738,377.851,722.14z"/>
	<path fill="#FFFFFF" d="M381.904,714.036v8.104C389.705,723.738,389.705,712.439,381.904,714.036z"/>
	<path fill="#FFFFFF" d="M390.007,714.036v8.104c5.339,0.611,6.651-2.805,6.079-8.104H390.007z"/>
	<path fill="#FFFFFF" d="M398.111,714.036v8.104c5.339,0.611,6.651-2.805,6.079-8.104H398.111z"/>
	<path fill="#FFFFFF" d="M406.217,714.036v8.104c5.338,0.611,6.651-2.805,6.079-8.104H406.217z"/>
	<path fill="#FFFFFF" d="M414.322,714.036v8.104c5.338,0.611,6.65-2.805,6.079-8.104H414.322z"/>
	<path fill="#FFFFFF" d="M428.505,722.14v-8.104h-6.079C421.86,719.33,421.741,724.175,428.505,722.14z"/>
	<path fill="#FFFFFF" d="M436.61,722.14v-8.104h-6.079C429.966,719.33,429.846,724.175,436.61,722.14z"/>
	<path display="none" fill="#8F8F8F" d="M444.713,722.14v-8.104h-6.078C438.071,719.33,437.952,724.175,444.713,722.14z"/>
	<path fill="#FFFFFF" d="M154.972,768.742V780.9h14.183v-10.132C166.543,767.977,160.354,768.765,154.972,768.742z"/>
	<path fill="#FFFFFF" d="M219.809,786.979c3.286,3.045,14.951,3.045,18.236,0v-18.237h-10.131
		C232.693,777.417,225.262,782.77,219.809,786.979z"/>
	<rect x="268.439" y="768.742" fill="#FFFFFF" width="12.156" height="12.158"/>
	<path fill="#FFFFFF" d="M420.401,770.768c6.71,6.192-2.055,14.038-6.079,16.211c2.945,2.978,13.262,2.978,16.209,0v-18.237
		C427.587,769.85,420.059,766.374,420.401,770.768z"/>
	<path fill="#FFFFFF" d="M256.281,786.979c-2.634,10.387,9.918,9.428,8.104,0H256.281z"/>
	<path fill="#8F8F8F" d="M126.649,579.188c-1.481,1.377-2.875,2.584-4.095,3.147C123.887,582.432,125.255,581.24,126.649,579.188z"
		/>
	<path fill="#8F8F8F" d="M96.214,225.731c3.229,16.355,15.784,23.387,28.366,30.391c6.171-1.933,4.658-11.55,14.183-10.13
		c1.387,23.976-16.187,45.86-14.183,72.942c2.146,29.017,21.52,46.804,36.471,64.839c6.51,1.246,2.776-7.294,8.104-2.027
		c-2.55,51.626,24.795,108.103-2.025,147.91c-2.613,2.792-8.801,2.005-14.183,2.026c0.053,12.887-2.126,23.538-14.183,24.314
		c-0.609-7.464,12.499-11.68,6.078-18.236c-6.222,9.696-12.441,32.968-18.193,41.428c4.747-4.41,10.397-10.566,14.14-2.93
		c-19.365-1.199-35.451,33.56-34.445,52.68c0.305,5.77,6.271,10.643,8.105,16.211c7.908,23.991,10.568,59.534,46.602,50.654
		c6.907,8,2.425,16.05,8.104,26.339c83.808,3.169,197.341,3.518,287.716,0c6.243-9.404,6.649-18.458,0-26.339
		c8.349,5.036,14.246-2.436,30.392,0c9.678-8.755,21.439-20.222,12.158-12.158c-2.632,2.288-15.862,17.034-24.314,8.106
		c37.116-16.943,33.051-30.051,50.653-68.89c-14.86-16.884-9.078-54.407-34.446-60.785c1.535-34.393-32.822-24.9-44.574-42.55
		c-4.934-7.411-7.347-23.855-8.105-30.392c-9.392-80.978,36.567-128.837,48.628-184.382c-9.356,0.1-7.366,11.545-18.235,10.132
		c-13.975-6.197-7.192-28.689,8.104-28.367c-0.354,9.777-9.777,10.486-10.131,20.262c7.957-3.465,16.155-5.894,18.235-10.13
		c1-23.977-17.884-38.829-16.209-56.733c11.528,0.629,11.387,12.925,20.261,16.209c16.526-23.281,77.734-54.881,34.446-83.072
		c1.466,10.527,19.273,13.791,12.156,26.34c-8.911-3.245-17.096-7.218-20.261-16.209c2.767-8.041,9.416-12.196,8.105-24.314
		c-4.913-7.957-19.186-17.235-30.393-12.157c10.504,1.653,22.405,1.909,24.314,12.157c-3.703,0.542-13.13,5.115-16.209,12.157
		c3.551,0.56,10.108-5.705,12.156,0c0.24,8.344-15.849,0.361-18.234,6.079c12.36,8.578,20.971,20.902,34.444,28.367
		c-24.797-0.752-34.652-19.07-60.785-8.105c0.493-8.288-1.973-19.533,4.053-22.287c5.227-6.733,16.733,4.857,18.234-4.053
		c-5.426-4.703-19.236-1.024-22.287-8.105c-0.406-14.59,17.615-10.751,20.261-22.288c-3.69-13.87-12.47-22.65-26.339-26.34
		c4.159,14.478,15.542,9.251,18.235,24.314c-18.159,11.557-36.149,23.286-50.654,38.497c-9.016-11.187,9.942-20.497,4.053-28.366
		c-7.302,3.042-5.43-5.158-12.157-6.078c-9.834-1.345-19.108,10.797-30.393,10.13c4.77-13.466,17.464-19.007,36.472-18.236
		c2.209-14.675,16.528-17.242,30.392-20.262c-27.369-7.501-31.98,22.712-62.811,18.236c-14.023-15.018-18.653-39.431-24.314-62.811
		c-42.694-1.328-107.649-7.814-143.858,4.053c5.711,30.885-13.465,50.966-12.156,64.837c-10.085-11.773-17.368-12.433-34.447-18.236
		c-7.376-2.506-12.108-7.71-16.209-8.104c-29.549-2.839-34.784,17.85-50.653,32.419c-9.191,8.436-21.21,11.056-26.341,18.235
		c-9.019,12.623-11.631,29.643-18.234,36.471C75.652,211.172,83.442,220.942,96.214,225.731z M120.527,653.252
		c-6.914-16.218-2.887-39.167-2.025-58.76C125.452,607.572,122.953,637.105,120.527,653.252z M507.526,598.546
		c5.169,10.874,8.961,49.195-2.026,56.731C503.068,638.799,501.02,612.072,507.526,598.546z M493.342,602.598
		c9.276,13.298,6.51,42.429,2.027,58.758C485.318,650.895,488.139,616.172,493.342,602.598z M108.37,235.861
		c-7.825-0.28-8.3-7.91-8.105-16.209c5.632,1.796,7.333,7.525,14.184,8.104C112.414,230.449,112.533,235.296,108.37,235.861z
		 M146.868,308.803c-2.198-10.633-12.665-13-12.157-26.339c8.928-1.499,8.301,6.557,14.183,8.103
		c1.869-11.326-8.31-10.599-6.078-22.288c7.528-0.774,5.297,8.211,14.181,6.078c-0.145-12.355-18.501-20.004-6.078-32.418
		c6.135,8.723,9.648,20.068,16.211,28.366c-10.53,15.491-11.807,34.122-20.262,54.706c-8.968-3.187-14.543-9.77-14.183-22.287
		C140.211,301.949,137.981,310.936,146.868,308.803z M195.495,243.966c-0.55,6.879,1.57,16.427-2.025,20.262
		c-10.602-11.985-15.809-26.75-30.392-10.132c3.97-20.18-12.477-19.942-14.183-34.443
		C162.287,229.899,180.947,234.876,195.495,243.966z M148.894,197.364c12.769,4.395,26.915,17.28,22.288,32.419
		C162.514,220.215,155.078,209.415,148.894,197.364z M185.365,322.986c10.312,2.884,4.655-10.203,6.079-16.21
		c4.591,2.162,7.362,6.146,8.103,12.157c-0.032,7.398-5.76,9.099-8.103,14.183c4.757-0.646,7.604-3.201,14.181-2.026
		c-4.005,9.572-4.958,17.022,4.054,22.289C198.545,354.351,185.367,339.893,185.365,322.986z M199.548,375.667
		c-4.226-3.706-0.947-17.041,6.078-16.209C206.894,368.154,203.821,372.51,199.548,375.667z M193.469,367.562
		c-11.138-1.018-14.04-10.273-16.209-20.261C188.679,348.037,191.582,357.292,193.469,367.562z M203.6,304.75
		c-5.125-1.627-5.167-8.341-8.105-12.157c7.342-10.738,5.676-23.983,8.105-42.549c6.362-0.958,5.352,5.454,10.131,6.078
		C211.692,273.671,207.287,288.85,203.6,304.75z M142.816,343.248c-5.68-3.777-7.813-11.097-10.132-18.236
		C140.136,326.506,147.397,336.156,142.816,343.248z M152.947,371.614c0.949-9.729-4.258-13.303-8.105-18.235
		c2.995-9.011,7.836,2.431,14.183,2.025c0.689-10.145-7.719-11.191-6.078-22.288C174.103,338.347,170.257,364.778,152.947,371.614z
		 M154.972,314.882c9.194-2.409,12.137,7.528,18.236,2.025c-1.329-7.45-7.47-10.09-12.157-14.182
		c1.383-6.046,8.067-6.792,16.21-6.078c2.335-3.13-8.097-10.727-10.131-16.21c1.076-6.928,9.76-3.101,14.181-2.026
		c2.944-5.062-11.742-9.801-8.103-22.288h10.131c-0.911,10.367,7.819,11.092,8.105,20.262c-0.379,5.7-3.526,8.632-10.133,8.105
		c1.803,4.278,6.17,5.989,6.079,12.157c-15.63,11.76-2.066,33.139-14.182,44.575C174.912,324.659,153.677,331.035,154.972,314.882z
		 M193.469,381.745c-8.865,12.219-18.06-8.445-20.261-16.209C183.3,359.562,180.373,383.985,193.469,381.745z M175.234,399.981
		c11.437,6.798,7.366,29.104,8.105,46.601C172.783,438.903,176.073,417.377,175.234,399.981z M197.522,529.656
		c0.804-7.557-12.657-0.851-14.183-6.078c-5.648-19.455,3.47-40.358,6.078-64.838c2.093-19.642-5.244-41.378-2.026-56.732
		c3.666-17.492,22.903-19.984,24.314-34.446c8.258,11.462,22.046,73.716,20.262,93.203c-2.522,27.542-31.579,63.139-36.472,93.205
		c-9.052,3.929-21.841,12.352-28.365,2.026c4.082-4.023,3.519-12.689,6.078-18.236C184.854,538.6,193.79,536.729,197.522,529.656z
		 M276.542,197.364c-10.135-0.671-15.368-6.243-22.287-10.131c0.622-10.183-2.34-23.951,4.051-28.366
		c3.274-0.57,3.489,1.915,6.079,2.027C249.324,180.395,277.54,186.775,276.542,197.364z M268.439,114.291
		c9.79-4.97,24.626,0.479,22.287,14.183c-7.691,5.433-25.103,5.743-26.34-6.078c3.835-3.595,13.384-1.476,20.261-2.026
		C284.452,110.182,266.049,122.708,268.439,114.291z M351.51,122.396c-4.004,7.652-16.545,12.365-26.339,8.105
		c-3.77-13.736,12.91-26.914,20.261-16.21c-8.771-0.668-13.417,2.793-16.209,8.105C333.369,126.221,343.76,115.93,351.51,122.396z
		 M327.197,140.631c5.474,3.032-3.51,8.455-6.078,10.131c2.853,8.567,14.729,1.101,16.209-4.052
		c4.351,7.135-11.995,10.907-20.262,12.157c8.661,4.542,22.137-3.478,26.34-10.13c6.262,8.38-8.313,13.228-18.235,12.157
		c4.461,5.631,14.438-0.284,20.261,0c-4.781,7.486-16.843,8.734-26.339,6.078c16.132,13.046,29.959-1.148,42.549-8.105
		c-7.062,8.346,2.512,38.705-18.236,34.445c-0.212-11.018,12.115-9.499,10.132-22.288c-23.733,16.868-44.887-10.242-70.917-10.13
		c6.301-4.846,16.133,4.052,26.341,2.025c-3.995-2.248-9.46-5.054,0-6.078c-4.378-4.402-11.829-5.732-18.236-8.105
		c5.782,8.893-1.861-1.058-4.053-4.052C294.279,146.388,321.011,157.528,327.197,140.631z M400.139,213.573
		c-2.027,10.806-1.45,24.215-14.183,24.314c-3.45-12.304-2.703-30.484,2.026-40.523c4.49-1.115,2.885,3.869,6.078,4.053
		c2.02,10.123-6.292,9.916-6.078,18.236C391.35,224.83,393.423,211.746,400.139,213.573z M400.139,256.122
		c5.492,5.525,5.043-5.24,12.157-4.052c-1.586,7.869-5.674,13.238-10.131,18.236c-7.632-3.175-5.189-16.424-12.158-20.262
		c3.117-7.016,7.283-12.979,16.21-14.183C407.054,245.478,399.302,246.506,400.139,256.122z M424.453,205.469
		c-1.725,9.082-7.126,14.487-16.209,16.209C407.428,210.727,415.347,199.998,424.453,205.469z M436.61,325.012
		c0.157-10.649,5.168-16.441,8.103-24.313C454.887,306.303,445.181,324.868,436.61,325.012z M456.871,318.934
		c5.801,6.595-0.217,18.607-8.104,18.236C443.118,329.54,454.283,324.714,456.871,318.934z M438.635,343.248
		c2.357-0.329,3.605,0.448,4.053,2.027c-2.168,9.987-5.071,19.242-16.209,20.261C428.28,355.855,434.492,350.586,438.635,343.248z
		 M430.531,404.033c11.433,33.206,4.438,83.126,6.079,119.545C412.542,498.146,432.186,443.524,430.531,404.033z M426.479,333.117
		c8.474,3.749-2.825,15.538-6.078,20.262C414.385,346.57,421.137,335.29,426.479,333.117z M432.557,290.567
		c5.395,8.845-0.56,23.699-8.104,26.34C423.046,304.018,426.969,296.463,432.557,290.567z M418.374,383.772
		c-0.647-4.7,0.327-7.78,2.027-10.133C426.43,373.818,425.821,385.723,418.374,383.772z M410.269,369.588
		c-4.782-2.973-2.293-15.64,6.079-12.157C417.444,364.606,409.173,362.413,410.269,369.588z M385.955,351.353V347.3
		c1.724,0.373,1.911-0.791,2.026-2.025h4.052c-0.372,1.724,0.79,1.911,2.026,2.025v4.053c-1.722-0.372-1.911,0.789-2.026,2.026
		h-4.052C388.353,351.656,387.192,351.467,385.955,351.353z M420.401,584.362c6.608,2.848,7.468,11.442,12.156,16.21
		c-11.001,7.398-24.968,24.268-12.156,38.497c7.966-6.671,0.472-16.471,4.052-26.34c8.907-1.899,11.608-10.004,24.314-8.104
		c-5.059,25.833-10.175,51.542-22.288,79.019c-8.155-0.312,2.219-12.829,0-20.26c-3.096-10.412-16.318-10.697-20.262-20.261
		c5.26-12.938-4.771-19.113,0-34.446c-0.226-5.176-6.784-4.02-12.157-4.052c-2.821-8.662-5.079-17.884-12.156-22.289
		c0.252-4.476,8.595-0.861,12.156-2.026c2.245,3.833,2.584,9.574,4.052,14.183C407.618,593.193,416.257,591.024,420.401,584.362z
		 M412.296,543.838c6.681,1.169,2.904,7.652,2.026,12.158C407.64,554.826,411.417,548.343,412.296,543.838z M385.955,612.728
		c3.786,1.616,7.42,3.385,12.156,4.053c-2.993,13.123,6.374,13.888,4.054,26.34c-4.817,3.288-11.652,4.557-16.21,8.103
		C382.394,642.299,392.247,625.21,385.955,612.728z M414.322,659.33c7.351,5.242,0.736,30.018-14.183,26.34
		C405.912,677.937,413.234,671.748,414.322,659.33z M325.17,616.781c3.231,1.496-0.462,9.917,6.08,8.104
		c-3.334,7.472-11.114,10.5-10.132,22.288c-2.792,6.448-2.005-7.159-2.026-10.132c-2.75,0.629-1.682,5.074-2.027,8.106
		c-3.533,0.082-6.246-18.012-16.209-18.237c10.483-6.895,8.955-6.338,14.183-14.182c14.952,13.021,22.11-20.184,30.392-32.419
		c-8.405,8.481-14.46,19.308-20.261,30.393c-2.508,0.226,6.289-21.607,6.08-32.418c-4.733,6.074-5.084,16.53-10.132,22.288
		c-2.5,24.571-2.179-22.633-2.026-32.419c-4.237,7.962-1.235,33.83-6.079,34.446c0.1-9.553-6.539-12.373-6.079-22.289
		c-4.604,8.056,3.187,21.074,4.053,30.393c-6.631-10.929-13.89-21.23-20.261-32.418c1.023,8.599,10.093,23.544,12.157,28.366
		c7.157,16.723-3.012-1.891-12.157-10.131c-5.774-5.2-12.521-7.587-16.21-12.157c2.752,3.92,38.553,42.787,24.314,28.367
		c-11.512-3.348-20.015-9.704-30.391-14.182c3.035,2.526,34.339,26.444,36.47,24.313c-3.248,3.247-28.856-13.241-40.524-10.131
		c8.84,4.67,18.996,8.019,30.393,10.131c-10.887,3.298-24.243,4.124-38.497,4.052c4.611-20.769,7.306-25.707,18.235-44.575
		c18.089-9.555,31.111-17.098,62.811-14.183c-1.963,9.815,5.866,4.69,10.131,4.054c2.764,6.015,6.18,11.378,14.183,12.156
		c2.864,3.43-3.282,11.697,8.104,10.131c-9.669,10.592-26.863,13.662-38.495,22.289c0.471-0.618,18.161-18.004,24.313-26.341
		C342.905,596.693,335.216,607.914,325.17,616.781z M298.83,635.015c-9.319,6.216-18.3,12.767-28.366,18.237
		c8.149,0.676,22.03-10.358,32.418-14.183c-2.73,1.626-18.466,24.534-30.392,30.392c-3.005-9.569-3.357-14.763-10.132-12.157
		c0.256-12.008-4.167-17.256-6.078-26.34c11.504-4.706,31.725-0.692,46.602-2.026c-7.672,2.493-28.598,9.202-42.549,12.158
		C269.871,643.831,287.113,636.841,298.83,635.015z M242.098,533.707c5.878-2.9,12.694-4.865,14.183-12.157
		c-12.756-34.522-9.726-84.827-16.209-125.622c7.79-15.426,30.492-3.83,32.418,10.131c6.381-0.373,2.594-10.914,10.13-10.131
		c16.7,10.024,5.945,53.464,4.053,70.916c-10.277-7.958-2.027-34.442-12.157-42.549c-7.384,25.081,4.847,61.627,12.157,85.098
		c-13.831,1.703-24.48,6.59-26.339,20.262c10.367,2.264,8.139-8.069,16.209-8.105c3.047,10.46,12.13,14.888,12.157,28.366
		c-9.687,0.233-13.405-5.505-16.209-12.156c-5.177,0.226-4.022,6.785-4.052,12.156c-11.099-1.641-12.144,6.768-22.289,6.08
		C250.55,545.451,245.623,541.227,242.098,533.707z M238.045,529.656c-2.866,13.801,2.972,13.555,0,28.367
		c-7.305-2.789-0.512-13.642-12.157-8.106C230.713,543.936,228.167,530.581,238.045,529.656z M213.731,545.865
		c-1.621-8.41,7.798-11.868,12.157-8.105C223.727,542.352,219.742,545.123,213.731,545.865z M225.888,523.578
		c8.622-15.692,7.13-41.499,12.157-60.786c7.192,13.069,3.91,36.616,6.078,54.707C239.379,520.568,230.995,527.203,225.888,523.578z
		 M236.02,325.012c0.87,8.975-3.378,12.83-10.132,14.184C225.019,330.222,229.267,326.366,236.02,325.012z M223.863,318.934
		c-0.646-4.698,0.324-7.778,2.025-10.131h6.079C232.493,315.409,229.561,318.555,223.863,318.934z M302.883,199.39
		c16.051,4.952,21.54-7.082,36.471-14.183c-2.449,7.004-5.485,13.426-4.052,24.313c-16.101,4.378-35.38-6.433-46.603,4.053
		c-6.091-4.655-11.827-18.395-6.079-28.366C294.201,184.664,294.358,196.76,302.883,199.39z M294.778,183.181
		c9.111-5.579,26.369-6.151,28.366,6.078C317.695,200.281,294.565,195.687,294.778,183.181z M379.877,290.567
		c-6.166-1.262-10.358-4.499-10.132-12.157C378.199,277.244,384.559,284.873,379.877,290.567z M383.929,310.828
		c-6.579-1.524-12.849-3.36-12.157-12.156C380.198,298.351,384.251,302.403,383.929,310.828z M379.877,333.117
		c-7.504-1.277-11.299-6.263-10.132-16.21C377.003,318.021,384.219,326.794,379.877,333.117z M369.746,341.221
		c7.007-1.604,8.554,2.253,12.158,4.054C381.034,352.16,367.097,349.814,369.746,341.221z M375.825,363.51
		c-4.172,4.202-10.277-0.007-10.131-6.079c1.723,0.372,1.911-0.791,2.026-2.026C372.877,355.652,375.577,358.354,375.825,363.51z
		 M347.458,310.828c7.493,6.691,16.536,11.832,18.236,24.314C353.439,333.214,348.562,323.907,347.458,310.828z M363.667,351.353
		c-8.706-2.774-15.271-7.691-16.209-18.236C355.957,336.1,361.422,342.118,363.667,351.353z M345.432,292.593
		c7.605-1.558,17.425,10.472,20.262,20.262C354.315,310.727,348.828,302.706,345.432,292.593z M357.589,373.64
		c-7.737-3.069-11.346-10.265-12.157-20.26c-3.882,2.299-12.475,7.793-12.156-2.026C351.027,349.133,357.089,358.606,357.589,373.64
		z M270.464,278.41c-18.076-3.677,3.177-31.272,14.182-24.314C282.083,264.366,270.119,265.235,270.464,278.41z M304.909,256.122
		c0.641,10.505-13.773,22.397-24.314,28.367C276.537,270.568,287.356,255.079,304.909,256.122z M266.412,329.065
		c-12.725-2.906-3.6-26.677,8.104-24.315C281.758,315.63,268.924,321.444,266.412,329.065z M278.57,333.117
		c0.639,11.448-6.425,15.189-16.211,16.209C263.668,340.502,270.311,328.496,278.57,333.117z M280.595,351.353
		c-4.277,7.879-9.146,15.169-18.236,18.235C264.34,359.411,270.419,353.334,280.595,351.353z M280.595,365.536
		c8.663,5.807-3.871,20.461-12.156,22.287C266.672,374.576,274.476,370.898,280.595,365.536z M278.57,294.62
		c12.14-0.486,12.58-21.897,26.339-14.184c0.362,15.222-17.922,11.794-18.236,26.34C279.993,306.704,278.93,301.016,278.57,294.62z
		 M306.934,300.699c4.525,17.939,32.538,22.605,32.419,38.497c-14.344-7.269-26.673-16.553-36.471-28.368
		c-5.101,8.409-8.773,18.242-18.236,22.289C284.811,315.046,291.881,303.881,306.934,300.699z M337.327,322.986
		c-5.946-12.288-23.282-13.19-26.34-28.366c8.247,0.533,13.749,3.812,20.263,6.078c0.236-13.07-15.58-10.088-22.289-16.209
		c-1.464-6.191,2.071-7.384,2.025-12.157c18.531-0.972,18.554,16.567,30.393,22.288
		C328.555,304.375,346.286,314.195,337.327,322.986z M313.013,333.117c7.189,2.942,16.177,4.086,16.21,14.183
		C320.681,345.711,311.469,344.793,313.013,333.117z M313.013,349.326c-4.225,9.283-10.715,16.298-18.235,22.289
		C290.542,361.331,301.882,350.82,313.013,349.326z M300.856,333.117c10.123,5.557-5.114,18.59-14.183,18.236
		C286.697,340.572,296.063,339.13,300.856,333.117z M302.883,373.64c10.077,5.353-9.374,8.988-6.078,20.262
		C278.351,391.698,296.37,375.572,302.883,373.64z M296.805,414.163c7.827-0.397,14.931-0.072,20.26,2.026
		c11.382,39.869,16.294,93.776,12.158,137.78c-6.317,3.805-21.774,2.349-28.367,0C285.141,513.275,300.334,465.443,296.805,414.163z
		 M325.17,387.823c-11.51-1.978-11.984,15.343-20.261,10.131c0.387-6.365,3.766-9.742,10.131-10.131
		c-1.166-3.562,2.45-11.904-2.026-12.156C319.43,369.388,328.091,378.049,325.17,387.823z M317.065,353.379
		c9.259-1.443,15.826,7.008,10.132,14.182C319.151,367.503,318.872,359.675,317.065,353.379z M339.354,371.614
		c0.941,6.343-1.761,9.044-8.103,8.104C324.943,374.135,333.77,365.308,339.354,371.614z M341.38,280.436
		c-5.94,4.851-23.113-13.052-26.34-24.314C332.257,254.47,342.277,270.723,341.38,280.436z M317.065,229.783
		c8.699-1.269,13.054,1.805,16.211,6.078c-2.234,6.543-6.448,11.113-16.211,10.131C314.087,243.045,314.087,232.731,317.065,229.783
		z M351.51,221.678c-0.53,10.951-2.786,20.176-10.13,24.314C331.748,240.454,336.524,219.782,351.51,221.678z M306.934,243.966
		c-8.606,4.385-19.346-4.353-20.261-14.183c-3.974,2.782-1.092,12.414-4.053,16.209c-11.823-2.361-14.686-13.679-20.261-22.288
		C276.994,222.858,300.563,229.87,306.934,243.966z M272.491,284.489c-1.529,7.25-4.689,12.872-12.157,14.182
		C257.863,287.833,264.346,278.326,272.491,284.489z M242.098,260.175c1.7-8.434,12.934-15.848,20.261-12.157
		C260.004,255.797,250.414,264.855,242.098,260.175z M246.15,357.431c1.213-11.54-8.734-30.803,6.078-32.419
		C246.635,332.784,261.333,353.431,246.15,357.431z M254.256,367.562c-2.394,3.011-1.755,9.054-8.105,8.105
		C245.21,369.323,247.911,366.621,254.256,367.562z M240.072,316.907c-0.408-11.213,2.203-19.408,14.183-18.235
		C251.406,306.631,248.797,314.826,240.072,316.907z M240.072,363.51c0.527,6.606-2.406,9.751-8.105,10.13
		C231.439,367.033,234.372,363.889,240.072,363.51z M229.942,349.326c1.803-1.574,4.574-2.177,8.103-2.025
		C240.131,355.57,228.584,358.107,229.942,349.326z M242.098,290.567c-9.35-4.304,6.194-22.835,14.183-16.209
		C253.779,281.988,247.479,285.818,242.098,290.567z M231.967,245.992c1.262-6.166,4.5-10.359,12.156-10.131
		C245.29,244.314,237.661,250.673,231.967,245.992z M229.942,389.85c9.082,3.686,6.573,25.384,4.052,34.445
		C225.652,419.802,231.853,400.77,229.942,389.85z M349.484,472.922c-10.649,18.571,11.14,36.649,4.053,64.838
		c4.287,6.729,5.884-6.083,12.157-4.053c0.624,7.381-0.322,13.186-2.027,18.236c-5.681-2.424-13.98-2.227-22.287-2.027
		c5.33-13.462,7.374-27.106,4.052-44.574c-6.541-1.813-2.847,6.608-6.078,8.104c-6.855-27.805,10.602-48.822,6.078-81.047
		c-3.639,7.167-5.484,16.129-8.104,24.315c-14.3-6.213-11.502-40.914-6.077-54.706c9.158,2.321,6.362,16.6,12.155,22.288
		c-1.382-20.856,2.517-41.659,26.34-42.55c2.992,7.816,6.303,15.309,6.079,26.339c5.014-3.089-0.428-16.636,8.104-16.209
		c0.513,30.228-0.658,58.775-10.131,79.021c-7.002-10.58,0.7-33.749,2.026-48.627c-20.664,27.356-5.914,63.091-4.053,99.28
		c5.647,9.211,11.56,18.159,16.21,28.366C364.888,542.522,355.537,504.086,349.484,472.922z M387.982,531.682
		c7.254,0.851,9.749,6.46,10.13,14.183C391.741,544.132,389.711,538.056,387.982,531.682z M387.982,525.604
		c-13.005-4.766-10.402-28.241-8.104-42.55C393.027,485.758,391.408,512.96,387.982,525.604z M394.06,284.489
		c-8.104,1.351-8.146-5.363-8.104-12.157C394.06,270.981,394.101,277.694,394.06,284.489z M398.111,298.672
		c-4.17,4.203-10.277-0.006-10.13-6.079C393.784,292.194,399.04,292.342,398.111,298.672z M392.033,337.17
		c-3.564-0.488-4.618-3.487-4.052-8.104h6.078C394.919,333.3,392.67,334.43,392.033,337.17z M387.982,308.803
		c1.724,0.372,1.912-0.791,2.025-2.026c5.157,0.247,7.858,2.949,8.104,8.105C393.941,319.085,387.835,314.875,387.982,308.803z
		 M402.165,343.248c7.978,4.013,0.546,25.653,0,34.446C388.373,369.498,399.45,356.276,402.165,343.248z M406.217,284.489
		c7.462-1.866,3.683,10.687,2.027,12.157C402.688,296.604,403.431,287.089,406.217,284.489z M408.244,337.17
		c4.705-9.642,2.053-19.762,4.052-28.367C423.266,311.448,419.617,338.254,408.244,337.17z M414.322,300.699
		c-1.035-8.465,1.13-13.729,4.052-18.235C426.795,283.526,421.463,302.085,414.322,300.699z M408.244,278.41
		c-0.228-7.656,3.964-10.894,10.13-12.156C418.602,273.91,414.409,277.148,408.244,278.41z M387.982,264.228
		c-7.658,0.227-10.895-3.964-12.157-10.132C383.646,253.704,387.467,257.313,387.982,264.228z M373.798,239.914
		c3.208,0.168,7.729-0.974,8.105,2.026C384.114,249.053,369.474,247.366,373.798,239.914z M375.825,272.332
		c-6.983-0.303-12.189-9.086-8.104-14.183C374.703,258.452,379.908,267.235,375.825,272.332z M367.72,294.62
		c-11.233-0.924-17.311-7.002-18.236-18.236C359.66,278.365,365.739,284.444,367.72,294.62z M361.641,256.122
		c-6.351-1.4-2.642-5.403-2.026-10.13c3.274-0.57,3.489,1.915,6.079,2.026C367.169,253.547,361.668,252.096,361.641,256.122z
		 M363.667,274.358c-10.277-4.582-23.365-6.351-24.313-20.262C349.484,258.824,361.136,262.031,363.667,274.358z M286.673,154.814
		c7.086-4.367,7.52,3.274,18.236,0C302.633,163.004,291.126,156.623,286.673,154.814z M302.883,166.971
		c-6.13,4.678-11.104,10.508-22.288,10.131c-4.761-1.992-4.802-8.705-8.104-12.157C277.359,162.859,290.56,169.777,302.883,166.971z
		 M268.439,211.548c-4.295,7.186-10.25,12.714-16.211,18.235c-7.461-8.071-13-18.069-20.261-26.34
		c4.425-1.992,13.507,5.176,20.261-2.025C252.353,210.069,262.408,208.796,268.439,211.548z M244.123,199.39
		c-8.161-1.968-11.409-8.852-16.209-14.183c0.487-8.293,8.456-9.107,16.209-10.13c1.386,6.043,2.458,12.401,8.105,14.182
		C250.183,193.293,248.727,197.914,244.123,199.39z M236.02,264.228c-2.846,3.91-1.106,12.402-10.132,10.13
		C225.425,267.141,228.802,263.765,236.02,264.228z M229.942,284.489c5.415,3.604,0.013,13.361-6.079,12.157
		C222.102,288.807,228.812,289.437,229.942,284.489z M221.836,361.484c-4.297-1.627-7.9-8.34-4.053-12.158
		C224.615,351.272,227.645,357.076,221.836,361.484z M163.077,535.734c8.705,0.42,2.406,15.941-4.053,14.182
		C158.7,543.514,158.954,537.688,163.077,535.734z M152.947,553.97c6.331-0.928,6.476,4.329,6.078,10.131
		C152.694,565.028,152.548,559.771,152.947,553.97z M128.633,600.571c9.462,10.507,7.502,43.351,2.025,56.732
		C120.914,644.521,124.945,616.727,128.633,600.571z M134.711,675.539c-10.32-10.245,9.165-22.335,14.183-30.391
		C154.533,657.587,131.279,658.567,134.711,675.539z M183.339,722.14c-7.802,1.597-7.802-9.702,0-8.104V722.14z M193.469,720.115
		c-1.724-0.373-1.912,0.789-2.025,2.025h-4.054c0.373-1.723-0.79-1.911-2.025-2.025v-4.053c1.724,0.374,1.912-0.789,2.025-2.026
		h4.054c-0.373,1.724,0.79,1.912,2.025,2.026V720.115z M195.495,722.14v-8.104C203.297,712.439,203.297,723.738,195.495,722.14z
		 M203.6,722.14v-8.104h6.079C210.25,719.335,208.939,722.752,203.6,722.14z M217.784,722.14c-6.764,2.034-6.644-2.81-6.079-8.104
		h6.079V722.14z M225.888,722.14h-6.079c-0.858-4.233,1.39-5.366,2.027-8.104C227.93,711.994,225.426,718.55,225.888,722.14z
		 M233.993,722.14c-5.338,0.611-6.651-2.805-6.079-8.104h6.079V722.14z M242.098,722.14c-7.802,1.597-7.802-9.702,0-8.104V722.14z
		 M197.522,647.173c-3.154,2.923-3.998,8.158-12.157,6.079c-8.445-0.336-7.805-9.756-14.183-12.157
		c-5.951,14.309-23.986,16.536-22.288,38.496c-14.478-7.42,0.127-22.908,8.103-26.339c-6.67-18.925,9.297-40.286-4.051-58.76
		c-3.7,4.781,2.781,13.562-2.027,20.261c-13.308-5.263-4.522-33.629,4.053-36.47c26.718,0.296,20.859,33.171,36.472,44.575
		c15.315-6.462,23.563,4.218,40.523,2.026c3.865-21.125,9.698-40.28,28.367-46.602c1.716,15.248-23.328,21.232-18.236,46.602
		c-7.401,2.728-12.754,7.507-18.235,12.156c-2.164,25.141,33.383,23.329,26.339,46.602
		C244.247,659.884,213.354,661.057,197.522,647.173z M250.202,651.225c-8.268-1.863-15.837-4.426-20.26-10.13
		c2.534-7.597,12.33-7.933,16.209-14.184C250.19,632.327,247.195,644.775,250.202,651.225z M246.15,722.14
		c0.182-5.528-3.374-4.078,0-8.104C253.952,712.439,253.952,723.738,246.15,722.14z M254.256,722.14v-8.104h6.078
		C260.904,719.335,259.592,722.752,254.256,722.14z M266.412,722.14c-3.566-0.489-4.619-3.487-4.053-8.104h6.08
		C269.296,718.271,267.049,719.401,266.412,722.14z M276.542,722.14c-5.338,0.611-6.65-2.805-6.078-8.104h6.078V722.14z
		 M286.673,720.115c-1.723-0.373-1.911,0.789-2.026,2.025h-4.052c0.371-1.723-0.793-1.911-2.025-2.025v-4.053
		c1.724,0.374,1.911-0.789,2.025-2.026h4.052c-0.372,1.724,0.792,1.912,2.026,2.026V720.115z M288.699,722.14v-8.104h6.079
		C295.347,719.335,294.038,722.752,288.699,722.14z M296.805,722.14v-8.104h6.078C303.453,719.335,302.142,722.752,296.805,722.14z
		 M310.987,722.14c-6.763,2.034-6.644-2.81-6.078-8.104h6.078V722.14z M300.856,687.697c-2.181-0.45-3.621-6.885-6.078-8.105
		c-2.862-1.42-8.289,0.977-10.132,0c-3.184-1.689-2.044-11.241-10.131-6.078c7.955-12.308,21.623-18.901,30.393-30.392
		c-0.252,6.547-10.43,20.603-14.183,30.392c7.628-7.231,12.646-17.072,18.236-26.34c2.733,0.624-5.672,23.611-6.079,34.444
		c4.669-8.837,8.02-18.993,10.131-30.392c4.092,10.091,4.284,24.083,4.052,38.498C311.718,681.414,307.277,689.02,300.856,687.697z
		 M319.092,722.14c-5.338,0.611-6.651-2.805-6.079-8.104h6.079V722.14z M329.223,720.115c-1.724-0.373-1.912,0.789-2.026,2.025
		h-4.053c0.373-1.723-0.79-1.911-2.025-2.025v-4.053c1.724,0.374,1.911-0.789,2.025-2.026h4.053
		c-0.372,1.724,0.789,1.912,2.026,2.026V720.115z M337.327,722.14c-6.763,2.034-6.644-2.81-6.077-8.104h6.077V722.14z
		 M345.432,722.14c-5.338,0.611-6.649-2.805-6.078-8.104h6.078V722.14z M353.537,722.14c-5.338,0.611-6.65-2.805-6.079-8.104h6.079
		V722.14z M351.51,679.591c-8.941,1.46-13.496-0.2-18.234,8.105c-6.717-2.14-8.79-6.004-12.157,2.026
		c-4.044-8.163-2.417-28.03,0-36.471c4.669,8.838,8.019,18.994,10.132,30.391c2.004-12.107-4.191-24.135-4.054-32.418
		c0.17-10.209,3.381,4.072,6.079,8.105c3.869,5.781,10.704,11.682,12.156,18.235c0.432-7.23-8.979-22.053-14.181-30.392
		c7.249,2.91,23.226,14.569,28.365,26.34C355.824,669.534,349.854,672.34,351.51,679.591z M361.641,722.14
		c-7.802,1.597-7.802-9.702,0-8.104V722.14z M369.746,722.14c-7.802,1.597-7.802-9.702,0-8.104V722.14z M377.851,722.14
		c-7.803,1.597-7.803-9.702,0-8.104V722.14z M377.851,643.121c-1.631-1.073-3.289-2.114-6.079-2.026
		c9.495,6.365-6.199,5.827,0,16.209c-5.893-2.905-2.279-1.553-2.026,4.052c-8.38-0.529-8.15,2.406-6.079,8.105
		c-7.841-0.886-41.935-44.419-28.365-28.366c11.509,3.347,20.015,9.704,30.392,14.182c-9.935-7.623-18.917-16.203-32.418-20.262
		c7.249-1.789,22.552,5.772,34.445,6.08c-9.359-4.152-18.153-8.864-30.393-10.132c0.412-4.376,26.039-0.932,36.471-2.026
		c-9.712-3.122-21.898-3.768-34.445-4.052c0.747-2.033,16.833-6.07,24.313-8.104c-6.054-5.263-16.026,2.795-24.313,2.026
		c10.356-7.203,19.375-15.745,32.418-20.261c-3.884,7.138,1.988,9.761,6.079,14.182c-4.932,8.695-1.953,6.662,2.026,14.182
		c-1.586,2.043-1.268,5.062-6.079,8.104C373.824,639.042,379.327,637.591,377.851,643.121z M381.904,722.14v-8.104
		C389.705,712.439,389.705,723.738,381.904,722.14z M390.007,722.14v-8.104h6.079C396.658,719.335,395.346,722.752,390.007,722.14z
		 M398.111,722.14v-8.104h6.079C404.762,719.335,403.451,722.752,398.111,722.14z M406.217,722.14v-8.104h6.079
		C412.868,719.335,411.555,722.752,406.217,722.14z M414.322,722.14v-8.104h6.079C420.972,719.335,419.661,722.752,414.322,722.14z
		 M428.505,722.14c-6.764,2.034-6.645-2.81-6.079-8.104h6.079V722.14z M436.61,722.14c-6.763,2.034-6.644-2.81-6.079-8.104h6.079
		V722.14z M444.713,722.14c-6.761,2.034-6.642-2.81-6.078-8.104h6.078V722.14z M469.028,683.643c3.295-6.527,0.968-10.977,0-18.234
		C475.726,666.578,478.035,683.723,469.028,683.643z M454.846,683.643c-8.655-9.741,13.6-22.567,12.156-38.495
		c-9.438,2.041-9.084,13.878-24.314,10.13c5.401-6.081,4.189-18.773,8.104-26.34c8.748-6.235,17.684,1.74,24.315,4.053
		C480.006,655.314,461.18,666.35,454.846,683.643z M481.185,553.97c-7.913-0.192-8.022-8.188-12.157-12.158
		c-2.719,1.334-3.774,4.333-4.053,8.104c-8.557-1.573-10.804-9.457-12.156-18.234C466.945,535.637,479.07,535.087,481.185,553.97z
		 M454.846,558.022c-10.353,1.573-5.163-12.399-12.158-14.184c-4.458,2.297-0.14,13.369-6.078,14.184
		c-38.444-37.758-55.883-95.315-46.603-180.329c51.523,19.925,20.528,102.643,40.524,149.936
		C441.174,534.151,458.155,544.198,454.846,558.022z M430.531,393.902c-0.266-4.994-0.306-9.763,2.026-12.157
		c4.235-0.858,5.365,1.389,8.104,2.027C441.125,390.989,437.748,394.364,430.531,393.902z M442.688,373.64
		c1.349-8.104,5.026-13.884,8.104-20.26c3.273-0.571,3.489,1.914,6.079,2.025C453.158,362.497,452.002,372.147,442.688,373.64z
		 M473.081,329.065c-0.691,10.116-11.263,10.349-8.105,24.314C451.57,349.794,464.342,329.67,473.081,329.065z M454.846,264.228
		c2.948,12.48-13.859,13.468-8.105,22.287c9.836,0.382,6.373-12.538,16.21-12.157C467.62,317.155,409.854,272.066,454.846,264.228z
		 M456.871,231.809c3.924,4.717-0.714,18.109-2.025,24.314C446.031,252.034,452.291,235.205,456.871,231.809z M440.661,235.861
		c-2.967-13.48,11.119-26.422,22.289-32.419C460.819,219.547,449.387,226.349,440.661,235.861z M505.499,219.653
		c2.784,6.411,0.441,6.771,0,14.181c-10.441-2.39-15.869-9.794-24.314-14.181C487.525,213.447,496.869,221.426,505.499,219.653z
		 M469.028,203.443c7.513,1.436,8.696-3.461,16.209-2.025c0.583,10.712-9.545,10.716-12.156,18.236
		c3.974,11.88,30.592,10.843,24.314,26.339c-16.619,0.41-17.124-15.295-30.393-18.236
		C466.2,218.177,467.653,210.847,469.028,203.443z M467.002,268.279c-6.17-0.16-4.749-13.246-2.026-16.209
		C471.145,252.232,469.725,265.318,467.002,268.279z M458.898,160.893c1.803,0.897,3.625,1.778,4.053,4.052
		c-2.419,9.738-16.557,7.759-14.183,22.288C429.863,181.107,451.386,165.264,458.898,160.893z M432.557,197.364
		c5.118-3.391,9.051-7.955,16.21-4.053c6.478-2.302,5.201-12.357,10.131-16.209c4.124,1.955,4.376,7.781,4.053,14.183
		c-5.379,8.805-23.083,5.283-20.262,22.288C435.185,212.296,431.391,207.311,432.557,197.364z M432.557,219.653
		c3.312,13.443-10.739,9.523-12.156,18.234c1.509,4.57,11.365,0.792,16.209,2.026c-0.018,8.761-9.557,8.004-12.157,14.182
		c4.947,5.466,13.21-2.883,22.288,0c-3.816,7.666-13.253,9.711-14.183,20.262c-15.076-3.836-9.575-28.246-22.288-34.444
		C414.24,229.7,419.521,220.798,432.557,219.653z M428.505,185.207c-2.539,12.319-18.979,10.74-26.34,18.236
		C400.09,187.827,415.775,179.278,428.505,185.207z M424.453,146.71c-3.582,13.304-15.738,18.031-30.393,20.262
		C395.103,151.128,413.448,152.589,424.453,146.71z M422.426,164.945c4.184,10.907-22.519,25.004-30.393,12.157
		C403.512,174.397,409.311,166.014,422.426,164.945z M387.982,185.207c5.338-0.611,6.651,2.805,6.078,8.104
		C388.721,193.922,387.41,190.506,387.982,185.207z M333.276,69.715c4.429,0.299,4.35,5.106,4.052,10.132
		c12.023-0.134,14.954-9.36,30.393-6.078c-4.176,16.037,13.332,28.418,2.025,38.497c-6.692-8.843-16.225-14.844-26.34-20.262
		c-0.641-8.071,9.371-5.487,10.132-12.157c-8.954,0.578-16.266,11.062-26.34,4.053C325.133,75.08,331.387,74.582,333.276,69.715z
		 M292.753,73.768c5.175,0.226,4.02,6.785,4.052,12.157C289.483,87.844,293.978,77.945,292.753,73.768z M231.967,114.291
		c4.492-1.115,2.884,3.869,6.078,4.053c4.561-0.842-0.303-11.11,6.078-10.131c-11.608-14.007-0.274-15.784-8.103-32.42
		c13.134-5.198,29.534,2.513,36.471,10.132c5.64,0.913-1.59-11.044,4.052-10.132c22.083,15.578-20.749,12.746-28.366,18.236
		c11.009,13.316,40.159,6.049,38.496-16.21c3.264,1.298,1.185,17.293,14.183,12.157c6.189-3.746-2.339-9.625,0-16.209
		c7.661-1.736,7.17,9.07,4.053,12.157c2.048,3.356,8.605,2.2,12.156,4.052c6.728-3.662-6.159-15.187,6.079-14.183
		c1.625,7.029-3.017,7.789-2.025,14.183c18.557,5.082,35.111,12.167,42.548,28.367c30.565-3.549,17.912,36.12,22.289,58.758
		c-3.864,0.864-3.666,5.79-10.131,4.053c1.697,23.85,0.827,38.255-18.236,48.628c-0.999-7.106-3.021-13.189-2.025-22.288
		c18.175-0.634,9.415-18.157,10.131-30.393c1.021-17.4,15.101-40.216,2.026-54.707c-0.436,9.826,0.281,27.158-16.211,26.341
		c1.477-5.529-4.026-4.078-4.052-8.105c-1.064-9.844,8.616-8.945,8.105-18.235c-0.892-20.469-35.409-20.526-38.498-2.026
		c-1.748,9.853,5.802,10.409,4.054,20.262c-5.456,5.293-18.858,5.293-24.314,0c16.664-33.756-34.266-40.384-42.549-14.183
		c3.954,5.501,14.643,4.268,18.235,10.132c4.235,7.301-9.927,10.934-12.157,18.235c-7.954-4.878-13.384-12.281-16.211-22.288
		c-5.175,0.227-4.021,6.786-4.051,12.158C224.504,145.285,222.476,121.599,231.967,114.291z M225.888,144.684
		c5.749,3.03,6.399,11.16,18.235,8.104c1.417,12.783-9.824,21.824-16.209,20.262C229.906,161.527,220.12,153.519,225.888,144.684z
		 M195.495,134.553c-7.562,0.81-11.888-1.62-12.156-8.105C190.64,125.9,197.354,125.941,195.495,134.553z M219.809,150.762
		c-2.514,8.368-5.893-0.767-10.13-2.025c2.334,13.199,10.455,20.611,12.157,34.444c-9.789,1.009-10.303-7.257-10.132-16.209
		c-5.044-4.891-23.826-10.463-28.366-22.287C193.737,133.685,212.946,141.247,219.809,150.762z M221.836,203.443
		c-7.643-0.463-10.932-5.277-10.132-14.183C220.385,188.686,220.662,196.512,221.836,203.443z M207.653,187.233
		c-8.145-8.74-22.851-10.918-24.314-26.339C199.43,160.657,211.915,173.754,207.653,187.233z M185.365,181.155
		c9.12,4.788,24.647,12.627,20.26,24.314c-8.669-3.485-13.945-10.368-22.287-14.183
		C182.694,186.587,183.664,183.507,185.365,181.155z M215.758,209.52c11.678,7.601,13.846,35.075-2.027,40.524
		c-1.697-4.381-5.246-6.912-4.052-14.183c2.352-1.701,5.432-2.673,10.13-2.027c-2.209-5.218-5.12-9.738-10.13-12.156
		c-7.931,1.525-4.25,14.661-8.105,20.262c-11.853-8.956-32.349-18.225-24.313-40.523
		C194.805,199.749,198.291,217.149,215.758,209.52z M173.208,120.369c6.459,6.945,9.263,27.836,2.025,36.472
		c-2.201,11.248,7.473,23.226-6.078,24.314c2.098,5.187,7.307,13.968,2.026,20.262c-5.548-5.933-13.872-9.091-20.262-14.184
		c1.723-3.005,5.1-4.355,10.132-4.052c-0.092-6.661-8.661-4.846-8.104-12.157c4.26-1.817,9.009-3.149,12.156-6.078
		c0.647-8.076,0.111-14.969-4.052-18.235c-4.793,6.014,1.806,23.419-12.157,20.262c4.932-21.142-14.416-18.002-22.289-26.34
		C132.332,124.463,155.885,118.563,173.208,120.369z M144.842,158.867c-2.865,5.915-11.132,6.43-16.209,10.132
		c3.331,3.421,10.993,2.514,14.183,6.078c6.297,32.607,3.343,71.763-26.341,74.967c-8.095-15.715,15.647-12.968,18.236-24.313
		c0.92-9.7-2.199-15.361-8.105-18.236c-5.394,5.99,7.524,5.952,4.053,16.21c-6.419-5.062-13.162-9.801-12.156-22.287
		c4.255-4.525,14.866-2.695,18.235-8.106c-10.461-2.269-20.357-6.912-30.393-4.052c10.387,10.017-4.853,26.007-16.209,20.261
		c9.547-11.388,11.094-30.778,24.314-38.496c0.854-6.932-6.069-6.087-8.105-10.13c-6.49,0.938-7.144,7.714-14.183,8.105
		C99.39,149.452,129.392,143.465,144.842,158.867z M100.265,177.102c-3.546,13.338-9.788,23.981-22.286,28.367
		C73.083,191.851,88.144,173.523,100.265,177.102z"/>
	<path fill="#8F8F8F" d="M254.256,108.213c-5.222,3.626-12.779,15.497-10.133,20.261
		C247.941,124.192,255.967,104.768,254.256,108.213z"/>
	<path fill="#8F8F8F" d="M286.673,144.684c2.192,2.995,9.835,12.945,4.053,4.052c6.407,2.372,13.858,3.703,18.236,8.105
		c-9.46,1.024-3.995,3.83,0,6.078c-10.209,2.026-20.041-6.871-26.341-2.025c26.03-0.111,47.184,26.999,70.917,10.13
		c1.983,12.789-10.344,11.27-10.132,22.288c20.748,4.261,11.174-26.098,18.236-34.445c-12.59,6.957-26.417,21.151-42.549,8.105
		c9.497,2.656,21.558,1.408,26.339-6.078c-5.824-0.284-15.8,5.631-20.261,0c9.922,1.071,24.497-3.777,18.235-12.157
		c-4.204,6.652-17.679,14.672-26.34,10.13c8.267-1.25,24.614-5.022,20.262-12.157c-1.48,5.153-13.356,12.619-16.209,4.052
		c2.568-1.675,11.553-7.098,6.078-10.131C321.011,157.528,294.279,146.388,286.673,144.684z"/>
	<path fill="#8F8F8F" d="M304.909,154.814c-10.716,3.274-11.15-4.367-18.236,0C291.126,156.623,302.633,163.004,304.909,154.814z"/>
	<path display="none" fill="#8F8F8F" d="M369.746,594.492c-11.386,1.566-5.241-6.701-8.104-10.131
		c-8.004-0.778-11.419-6.141-14.183-12.156c-4.265,0.636-12.094,5.762-10.131-4.054c-31.701-2.915-44.722,4.628-62.811,14.183
		c-10.929,18.868-13.624,23.806-18.235,44.575c14.254,0.072,27.61-0.753,38.497-4.052c-11.397-2.112-21.553-5.461-30.393-10.131
		c11.668-3.11,37.276,13.378,40.524,10.131c-2.131,2.131-33.435-21.787-36.47-24.313c10.376,4.479,18.879,10.835,30.391,14.182
		c14.239,14.42-21.562-24.446-24.314-28.367c3.689,4.57,10.435,6.957,16.21,12.157c9.145,8.24,19.314,26.854,12.157,10.131
		c-2.064-4.822-11.134-19.766-12.157-28.366c6.372,11.189,13.63,21.489,20.261,32.418c-0.866-9.319-8.657-22.337-4.053-30.393
		c-0.46,9.916,6.179,12.736,6.079,22.289c4.844-0.615,1.842-26.483,6.079-34.446c-0.153,9.786-0.473,56.991,2.026,32.419
		c5.048-5.758,5.399-16.214,10.132-22.288c0.209,10.811-8.588,32.644-6.08,32.418c5.801-11.085,11.856-21.912,20.261-30.393
		c-8.282,12.235-15.44,45.44-30.392,32.419c-5.228,7.844-3.701,7.287-14.183,14.182c9.963,0.225,12.676,18.319,16.209,18.237
		c0.345-3.032-0.723-7.477,2.027-8.106c0.022,2.973-0.766,16.579,2.026,10.132c-0.982-11.787,6.798-14.815,10.132-22.288
		c-6.542,1.812-2.849-6.609-6.08-8.104c10.046-8.867,17.735-20.088,30.393-26.341c-6.152,8.337-23.842,25.723-24.313,26.341
		C342.883,608.154,360.076,605.084,369.746,594.492z M315.04,632.99c-1.7-2.353-2.673-5.432-2.026-10.131
		c4.7-0.647,7.778,0.326,10.131,2.026C322.897,630.042,320.196,632.743,315.04,632.99z"/>
	<path display="none" fill="#8F8F8F" d="M379.877,626.911c-3.98-7.521-6.959-5.487-2.026-14.182
		c-4.091-4.421-9.963-7.044-6.079-14.182c-13.043,4.516-22.062,13.058-32.418,20.261c8.287,0.769,18.259-7.289,24.313-2.026
		c-7.48,2.034-23.566,6.071-24.313,8.104c12.547,0.284,24.733,0.93,34.445,4.052c-10.432,1.094-36.059-2.35-36.471,2.026
		c12.24,1.268,21.034,5.979,30.393,10.132c-11.893-0.308-27.195-7.869-34.445-6.08c13.501,4.06,22.483,12.639,32.418,20.262
		c-10.377-4.479-18.883-10.836-30.392-14.182c-13.57-16.054,20.524,27.479,28.365,28.366c-2.071-5.699-2.301-8.634,6.079-8.105
		c-0.252-5.605-3.866-6.957,2.026-4.052c-6.199-10.382,9.495-9.844,0-16.209c2.79-0.088,4.448,0.953,6.079,2.026
		c1.476-5.53-4.027-4.079-4.053-8.106C378.609,631.973,378.292,628.954,379.877,626.911z"/>
	<path display="none" fill="#8F8F8F" d="M331.25,647.173c5.202,8.339,14.613,23.162,14.181,30.392
		c-1.451-6.553-8.287-12.454-12.156-18.235c-2.698-4.033-5.909-18.314-6.079-8.105c-0.137,8.284,6.057,20.312,4.054,32.418
		c-2.113-11.397-5.463-21.553-10.132-30.391c-2.417,8.441-4.044,28.308,0,36.471c3.367-8.03,5.44-4.166,12.157-2.026
		c4.738-8.306,9.294-6.645,18.234-8.105c-1.656-7.251,4.314-10.058,8.105-6.078C354.477,661.742,338.5,650.083,331.25,647.173z"/>
	<path display="none" fill="#8F8F8F" d="M223.863,637.041c5.481-4.649,10.834-9.428,18.235-12.156
		c-5.092-25.37,19.952-31.353,18.236-46.602c-18.669,6.322-24.501,25.477-28.367,46.602c-16.96,2.192-25.207-8.488-40.523-2.026
		c-15.613-11.405-9.754-44.28-36.472-44.575c-8.575,2.841-17.36,31.208-4.053,36.47c4.808-6.699-1.672-15.48,2.027-20.261
		c13.347,18.474-2.619,39.834,4.051,58.76c-7.976,3.431-22.581,18.919-8.103,26.339c-1.698-21.96,16.337-24.188,22.288-38.496
		c6.379,2.401,5.739,11.821,14.183,12.157c8.159,2.079,9.003-3.156,12.157-6.079c15.832,13.884,46.725,12.711,52.68,36.47
		C257.245,660.37,221.698,662.183,223.863,637.041z M150.919,586.388c22.022-4.92,22.785,28.385,34.446,40.523
		C159.203,635.973,166.28,594.825,150.919,586.388z"/>
	<path display="none" fill="#8F8F8F" d="M317.065,689.723c0.233-14.415,0.04-28.407-4.052-38.498
		c-2.111,11.399-5.462,21.555-10.131,30.392c0.407-10.833,8.812-33.82,6.079-34.444c-5.59,9.268-10.608,19.11-18.236,26.34
		c3.753-9.789,13.931-23.845,14.183-30.392c-8.77,11.491-22.439,18.084-30.393,30.392c8.087-5.163,6.947,4.389,10.131,6.078
		c1.843,0.977,7.27-1.42,10.132,0c2.457,1.221,3.897,7.656,6.078,8.105C307.277,689.02,311.718,681.414,317.065,689.723z"/>
	<path display="none" fill="#8F8F8F" d="M256.281,630.963c1.911,9.084,6.334,14.332,6.078,26.34
		c6.774-2.606,7.127,2.588,10.132,12.157c11.926-5.858,27.662-28.766,30.392-30.392c-10.388,3.825-24.27,14.86-32.418,14.183
		c10.066-5.47,19.047-12.021,28.366-18.237c-11.717,1.826-28.959,8.816-38.496,6.08c13.951-2.956,34.878-9.665,42.549-12.158
		C288.006,630.271,267.785,626.258,256.281,630.963z"/>
	<path fill="#8F8F8F" d="M268.439,549.916c0.03-5.371-1.125-11.93,4.052-12.156c2.803,6.651,6.522,12.389,16.209,12.156
		c-0.027-13.477-9.11-17.906-12.157-28.366c-8.07,0.036-5.841,10.369-16.209,8.105c1.86-13.673,12.508-18.559,26.339-20.262
		c-7.31-23.471-19.542-60.017-12.157-85.098c10.13,8.107,1.88,34.591,12.157,42.549c1.892-17.452,12.647-60.892-4.053-70.916
		c-7.535-0.783-3.749,9.758-10.13,10.131c-1.927-13.961-24.629-25.557-32.418-10.131c6.482,40.795,3.453,91.1,16.209,125.622
		c-1.489,7.292-8.306,9.257-14.183,12.157c3.525,7.52,8.452,11.744,4.053,22.289C256.295,556.684,257.34,548.275,268.439,549.916z"
		/>
</g>
</svg>
