<?xml version="1.0" encoding="utf-8"?>
<!-- Generator: Adobe Illustrator 17.0.0, SVG Export Plug-In . SVG Version: 6.00 Build 0)  -->
<!DOCTYPE svg PUBLIC "-//W3C//DTD SVG 1.1//EN" "http://www.w3.org/Graphics/SVG/1.1/DTD/svg11.dtd">
<svg version="1.1" id="Layer_1" xmlns="http://www.w3.org/2000/svg" xmlns:xlink="http://www.w3.org/1999/xlink" x="0px" y="0px"
	 width="80px" height="80px" viewBox="0 0 80 80" enable-background="new 0 0 80 80" xml:space="preserve">
<g>
	<path fill="#8F8F8F" stroke="#8F8F8F" stroke-width="0.0361" stroke-miterlimit="4" d="M54.428,27.707c-2.206,0-4.412,0-6.618,0
		c0,0.003-0.001,0.006-0.001,0.008c-0.24,1.627-0.734,3.209-1.486,4.641c-1.934,3.682-5.576,6.37-9.472,7.989
		c-2.564,1.065-5.238,1.666-7.952,1.801c7.355,9.174,14.711,18.347,22.066,27.521c-3.195,0-6.389,0-9.584,0
		c-7.028-8.802-14.055-17.605-21.083-26.407c0.003-1.801,0.005-3.601,0.008-5.402c2.234,0,4.468,0,6.702,0
		c2.619,0.062,5.327-0.536,7.626-1.895c1.909-1.128,3.535-2.779,4.447-4.771c0.494-1.079,0.778-2.259,0.874-3.466
		c0-0.006,0.001-0.012,0.001-0.019c-7.244,0-14.489,0-21.733,0c1.222-1.849,2.445-3.698,3.667-5.546
		c5.731-0.022,11.461-0.044,17.192-0.066c-0.324-0.808-0.729-1.573-1.274-2.214c-0.878-1.034-2.119-1.75-3.409-2.306
		c-2.095-0.902-4.32-1.381-6.547-1.33c-3.158-0.015-6.317-0.031-9.475-0.046c1.211-1.88,2.421-3.759,3.632-5.639
		c12.024,0,24.047,0,36.071,0c-1.171,1.88-2.342,3.759-3.513,5.639c-3.282,0.015-6.563,0.031-9.845,0.046
		c0.562,0.619,1.066,1.296,1.487,2.018c0.681,1.17,1.142,2.458,1.427,3.8c3.481-0.013,6.962-0.027,10.443-0.04
		C56.863,23.917,55.645,25.812,54.428,27.707L54.428,27.707z"/>
</g>
</svg>
