<?xml version="1.0" encoding="utf-8"?>
<!-- Generator: Adobe Illustrator 16.0.0, SVG Export Plug-In . SVG Version: 6.00 Build 0)  -->
<!DOCTYPE svg PUBLIC "-//W3C//DTD SVG 1.1//EN" "http://www.w3.org/Graphics/SVG/1.1/DTD/svg11.dtd">
<svg version="1.1" id="Layer_1" xmlns="http://www.w3.org/2000/svg" xmlns:xlink="http://www.w3.org/1999/xlink" x="0px" y="0px"
	 width="80px" height="80px" viewBox="0 0 80 80" enable-background="new 0 0 80 80" xml:space="preserve">
<g>
	<g>
		<path fill="#767676" d="M66.493,39.196c1.019-1.12,0.923-2.835-0.219-3.833L41.193,13.418c-1.14-0.996-2.963-0.976-4.082,0.042
			L11.946,36.538c-1.115,1.018-1.173,2.733-0.124,3.821l0.629,0.656c1.049,1.093,2.74,1.221,3.778,0.294l1.882-1.686v24.659
			c0,1.515,1.227,2.74,2.74,2.74h9.808c1.515,0,2.74-1.226,2.74-2.74V47.027h12.512v17.255c-0.022,1.515,1.061,2.734,2.574,2.734
			h10.396c1.513,0,2.739-1.22,2.739-2.734V39.97c0,0,0.517,0.453,1.162,1.018c0.64,0.56,1.982,0.112,3.001-1.007L66.493,39.196z
			 M66.493,39.196"/>
	</g>
</g>
</svg>
