<?xml version="1.0" encoding="utf-8"?>
<!-- Generator: Adobe Illustrator 17.0.0, SVG Export Plug-In . SVG Version: 6.00 Build 0)  -->
<!DOCTYPE svg PUBLIC "-//W3C//DTD SVG 1.1//EN" "http://www.w3.org/Graphics/SVG/1.1/DTD/svg11.dtd">
<svg version="1.1" id="Layer_1" xmlns="http://www.w3.org/2000/svg" xmlns:xlink="http://www.w3.org/1999/xlink" x="0px" y="0px"
	 width="80px" height="80px" viewBox="0 0 80 80" enable-background="new 0 0 80 80" xml:space="preserve">
<g>
	<path fill="#8F8F8F" d="M40.063,10.226c-16.468,0-29.833,13.347-29.833,29.816c0,16.49,13.365,29.856,29.833,29.856
		c16.485,0,29.833-13.365,29.833-29.856C69.896,23.574,56.547,10.226,40.063,10.226L40.063,10.226z M42.191,56.648
		c-0.692,0.615-1.498,0.927-2.408,0.927c-0.938,0-1.761-0.307-2.462-0.915c-0.702-0.609-1.053-1.464-1.053-2.555
		c0-0.971,0.34-1.794,1.019-2.453c0.681-0.663,1.509-0.998,2.496-0.998c0.97,0,1.793,0.335,2.457,0.998
		c0.658,0.658,0.993,1.481,0.993,2.453C43.233,55.184,42.887,56.029,42.191,56.648L42.191,56.648z M50.833,35.227
		c-0.538,0.987-1.168,1.838-1.904,2.557c-0.729,0.717-2.046,1.925-3.942,3.619c-0.521,0.476-0.943,0.898-1.262,1.261
		c-0.312,0.362-0.548,0.691-0.702,0.993c-0.159,0.302-0.274,0.604-0.361,0.906c-0.083,0.296-0.209,0.827-0.379,1.585
		c-0.296,1.6-1.212,2.401-2.753,2.401c-0.8,0-1.476-0.257-2.023-0.783c-0.549-0.526-0.823-1.306-0.823-2.336
		c0-1.294,0.202-2.419,0.602-3.368c0.401-0.948,0.934-1.782,1.596-2.495c0.664-0.719,1.558-1.574,2.681-2.561
		c0.987-0.861,1.7-1.513,2.14-1.953c0.444-0.438,0.811-0.927,1.113-1.47c0.302-0.536,0.449-1.123,0.449-1.755
		c0-1.234-0.46-2.276-1.376-3.125c-0.917-0.845-2.102-1.272-3.555-1.272c-1.695,0-2.944,0.427-3.746,1.283
		c-0.8,0.855-1.48,2.116-2.034,3.784c-0.526,1.744-1.525,2.616-2.983,2.616c-0.866,0-1.596-0.307-2.187-0.915
		c-0.592-0.609-0.889-1.268-0.889-1.974c0-1.464,0.466-2.951,1.41-4.453c0.943-1.509,2.314-2.753,4.118-3.74
		c1.804-0.987,3.91-1.481,6.312-1.481c2.238,0,4.212,0.417,5.923,1.24c1.711,0.823,3.032,1.946,3.97,3.367
		c0.932,1.421,1.398,2.962,1.398,4.629C51.628,33.089,51.365,34.24,50.833,35.227L50.833,35.227z M50.833,35.227"/>
</g>
</svg>
