<?xml version="1.0" encoding="utf-8"?>
<!-- Generator: Adobe Illustrator 17.0.0, SVG Export Plug-In . SVG Version: 6.00 Build 0)  -->
<!DOCTYPE svg PUBLIC "-//W3C//DTD SVG 1.1//EN" "http://www.w3.org/Graphics/SVG/1.1/DTD/svg11.dtd">
<svg version="1.1" id="Layer_1" xmlns="http://www.w3.org/2000/svg" xmlns:xlink="http://www.w3.org/1999/xlink" x="0px" y="0px"
	 width="80px" height="80px" viewBox="0 0 80 80" enable-background="new 0 0 80 80" xml:space="preserve">
<g>
	<path fill-rule="evenodd" clip-rule="evenodd" fill="#8F8F8F" d="M63.407,41.196c3.5,12.937-2.289,18.545-13.103,16.368
		c-0.9,2.315-1.817,4.619-3.267,6.616C64.296,68.521,71.273,55.83,63.407,41.196L63.407,41.196z M29.335,34.095h7.357
		c2.012,0.498,3.227,1.553,3.764,2.779c0.288,0.658,0.388,1.373,0.317,2.081c-0.072,0.717-0.323,1.428-0.734,2.067
		c-0.881,1.37-2.509,2.39-4.724,2.429c-1.294-0.225-1.946,1.155-0.85,2.214l7.372,6.838H29.335c-0.375,0-0.682-0.307-0.682-0.682
		V34.777C28.653,34.402,28.96,34.095,29.335,34.095L29.335,34.095z M41.664,34.095h5.125c0.375,0,0.682,0.307,0.682,0.682v17.045
		c0,0.375-0.307,0.682-0.682,0.682h-1.197l-7.495-6.951c1.803-0.605,3.194-1.756,4.09-3.15c0.627-0.975,1.011-2.075,1.124-3.197
		c0.114-1.131-0.049-2.282-0.517-3.35C42.521,35.23,42.145,34.636,41.664,34.095L41.664,34.095z M23.831,22.776
		c9.454-9.5,17.205-7.29,20.727,3.164c2.454-0.378,4.909-0.736,7.363-0.479C47.05,8.343,32.571,8.646,23.831,22.776L23.831,22.776z
		 M27.383,65.99c-12.954-3.438-14.916-11.255-7.623-19.532c-1.554-1.937-3.091-3.884-4.096-6.138
		C3.274,53.098,10.776,65.485,27.383,65.99L27.383,65.99z"/>
	<path fill="#8F8F8F" stroke="#231F20" stroke-width="0.0309" stroke-miterlimit="2.6131" d="M63.407,41.196
		c3.5,12.937-2.289,18.545-13.103,16.368c-0.9,2.315-1.817,4.619-3.267,6.616C64.296,68.521,71.273,55.83,63.407,41.196
		L63.407,41.196z M29.335,34.095h7.357c2.012,0.498,3.227,1.553,3.764,2.779c0.288,0.658,0.388,1.373,0.317,2.081
		c-0.072,0.717-0.323,1.428-0.734,2.067c-0.881,1.37-2.509,2.39-4.724,2.429c-1.294-0.225-1.946,1.155-0.85,2.214l7.372,6.838
		H29.335c-0.375,0-0.682-0.307-0.682-0.682V34.777C28.653,34.402,28.96,34.095,29.335,34.095L29.335,34.095z M41.664,34.095h5.125
		c0.375,0,0.682,0.307,0.682,0.682v17.045c0,0.375-0.307,0.682-0.682,0.682h-1.197l-7.495-6.951c1.803-0.605,3.194-1.756,4.09-3.15
		c0.627-0.975,1.011-2.075,1.124-3.197c0.114-1.131-0.049-2.282-0.517-3.35C42.521,35.23,42.145,34.636,41.664,34.095L41.664,34.095
		z M23.831,22.776c9.454-9.5,17.205-7.29,20.727,3.164c2.454-0.378,4.909-0.736,7.363-0.479C47.05,8.343,32.571,8.646,23.831,22.776
		L23.831,22.776z M27.383,65.99c-12.954-3.438-14.916-11.255-7.623-19.532c-1.554-1.937-3.091-3.884-4.096-6.138
		C3.274,53.098,10.776,65.485,27.383,65.99L27.383,65.99z"/>
	<path fill-rule="evenodd" clip-rule="evenodd" fill="#8F8F8F" d="M12.786,34.917c13.728-8.14,29.963-11.003,46.164-8.793
		c0.092,16.029-4.946,29.86-15.113,41.492C30.188,60.655,19.838,49.939,12.786,34.917L12.786,34.917z M15.717,40.298
		c10.381-9.03,23.707-13.972,37.789-14.608c2.561,13.579,0.43,26.09-6.39,37.53C34.463,59.43,24.025,51.945,15.717,40.298
		L15.717,40.298z"/>
</g>
</svg>
