<?xml version="1.0" encoding="utf-8"?>
<!-- Generator: Adobe Illustrator 17.0.0, SVG Export Plug-In . SVG Version: 6.00 Build 0)  -->
<!DOCTYPE svg PUBLIC "-//W3C//DTD SVG 1.1//EN" "http://www.w3.org/Graphics/SVG/1.1/DTD/svg11.dtd">
<svg version="1.1" id="Layer_1" xmlns="http://www.w3.org/2000/svg" xmlns:xlink="http://www.w3.org/1999/xlink" x="0px" y="0px"
	 width="80px" height="80px" viewBox="0 0 80 80" enable-background="new 0 0 80 80" xml:space="preserve">
<g>
	<g>
		<path fill="#8F8F8F" d="M66.166,60.03h-5.378V27.84c0-0.68-0.548-1.228-1.228-1.228H21.075c-0.68,0-1.232,0.548-1.232,1.228v32.19
			h-5.374c-0.68,0-1.228,0.548-1.228,1.228c0,0.68,0.548,1.228,1.228,1.228h51.697c0.676,0,1.228-0.548,1.228-1.228
			C67.394,60.578,66.842,60.03,66.166,60.03L66.166,60.03z M45.359,60.03V48.299c0-1.257-1.02-2.277-2.28-2.277h-5.526
			c-1.256,0-2.28,1.02-2.28,2.277V60.03H22.304V29.068h36.028V60.03H45.359z M32.887,32.225v2.145c0,0.581-0.472,1.049-1.053,1.049
			h-5.525c-0.581,0-1.049-0.468-1.049-1.049v-2.145c0-0.58,0.468-1.048,1.049-1.048h5.525
			C32.419,31.177,32.887,31.645,32.887,32.225L32.887,32.225z M55.374,32.225v2.145c0,0.581-0.468,1.049-1.049,1.049h-5.529
			c-0.58,0-1.048-0.468-1.048-1.049v-2.145c0-0.58,0.468-1.048,1.048-1.048h5.525C54.906,31.177,55.374,31.645,55.374,32.225
			L55.374,32.225z M44.13,32.225v2.145c0,0.581-0.472,1.049-1.052,1.049h-5.526c-0.58,0-1.048-0.468-1.048-1.049v-2.145
			c0-0.58,0.468-1.048,1.048-1.048h5.526C43.662,31.177,44.13,31.645,44.13,32.225L44.13,32.225z M32.887,39.728v2.141
			c0,0.58-0.472,1.052-1.053,1.052h-5.525c-0.581,0-1.049-0.472-1.049-1.052v-2.141c0-0.581,0.468-1.053,1.049-1.053h5.525
			C32.419,38.675,32.887,39.147,32.887,39.728L32.887,39.728z M55.374,39.728v2.141c0,0.58-0.468,1.052-1.049,1.052h-5.529
			c-0.58,0-1.048-0.472-1.048-1.052v-2.141c0-0.581,0.468-1.053,1.048-1.053h5.525C54.906,38.675,55.374,39.147,55.374,39.728
			L55.374,39.728z M44.13,39.728v2.141c0,0.58-0.472,1.052-1.052,1.052h-5.526c-0.58,0-1.048-0.472-1.048-1.052v-2.141
			c0-0.581,0.468-1.053,1.048-1.053h5.526C43.662,38.675,44.13,39.147,44.13,39.728L44.13,39.728z M32.887,47.23v2.141
			c0,0.58-0.472,1.052-1.053,1.052h-5.525c-0.581,0-1.049-0.472-1.049-1.052V47.23c0-0.58,0.468-1.052,1.049-1.052h5.525
			C32.419,46.178,32.887,46.651,32.887,47.23L32.887,47.23z M55.374,47.23v2.141c0,0.58-0.468,1.052-1.049,1.052h-5.529
			c-0.58,0-1.048-0.472-1.048-1.052V47.23c0-0.58,0.468-1.052,1.048-1.052h5.525C54.906,46.178,55.374,46.651,55.374,47.23
			L55.374,47.23z M32.887,54.728v2.145c0,0.58-0.472,1.048-1.053,1.048h-5.525c-0.581,0-1.049-0.468-1.049-1.048v-2.145
			c0-0.58,0.468-1.048,1.049-1.048h5.525C32.419,53.681,32.887,54.149,32.887,54.728L32.887,54.728z M55.374,54.728v2.145
			c0,0.58-0.468,1.048-1.049,1.048h-5.529c-0.58,0-1.048-0.468-1.048-1.048v-2.145c0-0.58,0.468-1.048,1.048-1.048h5.525
			C54.906,53.681,55.374,54.149,55.374,54.728L55.374,54.728z M55.374,54.728"/>
	</g>
</g>
<g>
	<path fill="#8F8F8F" d="M18.354,12.561c-4.729-0.149-8.699,3.742-8.849,8.676c-0.057,1.879,0.448,3.7,1.46,5.267l0.215,0.336
		l5.884,9.261c0.129,0.192,0.338,0.309,0.563,0.316c0.224,0.007,0.44-0.097,0.581-0.28l6.357-8.767l0.313-0.424
		c1.107-1.503,1.722-3.288,1.78-5.167C26.808,16.844,23.083,12.71,18.354,12.561z M17.99,24.489
		c-1.577-0.05-2.818-1.427-2.768-3.072s1.373-2.942,2.95-2.892c1.577,0.05,2.818,1.427,2.768,3.072
		C20.89,23.242,19.567,24.539,17.99,24.489z"/>
</g>
</svg>
