<?xml version="1.0" encoding="utf-8"?>
<!-- Generator: Adobe Illustrator 17.0.0, SVG Export Plug-In . SVG Version: 6.00 Build 0)  -->
<!DOCTYPE svg PUBLIC "-//W3C//DTD SVG 1.1//EN" "http://www.w3.org/Graphics/SVG/1.1/DTD/svg11.dtd">
<svg version="1.1" id="Layer_1" xmlns="http://www.w3.org/2000/svg" xmlns:xlink="http://www.w3.org/1999/xlink" x="0px" y="0px"
	 width="80px" height="80px" viewBox="0 0 80 80" enable-background="new 0 0 80 80" xml:space="preserve">
<rect x="16.645" y="35.47" fill="none" stroke="#8F8F8F" stroke-width="1.8854" stroke-miterlimit="10" width="43.51" height="34.72"/>
<line fill="none" stroke="#8F8F8F" stroke-width="1.8446" stroke-miterlimit="10" x1="60.155" y1="35.47" x2="17.924" y2="69.297"/>
<line fill="none" stroke="#8F8F8F" stroke-width="1.8854" stroke-miterlimit="10" x1="46.162" y1="70.141" x2="60.198" y2="57.719"/>
<g>
	<path fill="#8F8F8F" d="M39.039,10.413c-6.479,0-11.749,5.27-11.749,11.749c0,2.468,0.768,4.836,2.218,6.85l0.308,0.432
		l8.44,11.908c0.185,0.247,0.476,0.392,0.783,0.392c0.307,0,0.598-0.145,0.783-0.392l8.335-11.766l0.411-0.57
		c1.452-2.017,2.22-4.385,2.22-6.854C50.788,15.683,45.518,10.413,39.039,10.413z M39.039,26.078c-2.16,0-3.916-1.756-3.916-3.916
		s1.756-3.916,3.916-3.916c2.16,0,3.916,1.756,3.916,3.916S41.199,26.078,39.039,26.078z"/>
</g>
<line fill="none" stroke="#8F8F8F" stroke-width="2.8281" stroke-miterlimit="10" x1="59.485" y1="69.617" x2="17.602" y2="36.232"/>
</svg>
