<?xml version="1.0" encoding="utf-8"?>
<!-- Generator: Adobe Illustrator 17.0.0, SVG Export Plug-In . SVG Version: 6.00 Build 0)  -->
<!DOCTYPE svg PUBLIC "-//W3C//DTD SVG 1.1//EN" "http://www.w3.org/Graphics/SVG/1.1/DTD/svg11.dtd">
<svg version="1.1" id="Layer_1" xmlns="http://www.w3.org/2000/svg" xmlns:xlink="http://www.w3.org/1999/xlink" x="0px" y="0px"
	 width="80px" height="80px" viewBox="0 0 80 80" enable-background="new 0 0 80 80" xml:space="preserve">
<path fill="#8F8F8F" d="M30.893,39.208c0,0-1.717-9.395,10.058-8.698c10.762-0.532,9.929,8.845,9.929,8.845"/>
<circle fill="#8F8F8F" cx="33.202" cy="49.484" r="2.397"/>
<circle fill="#8F8F8F" cx="48.499" cy="49.484" r="2.397"/>
<rect x="28.471" y="56.791" transform="matrix(-0.9221 -0.387 0.387 -0.9221 31.542 134.5043)" fill="#8F8F8F" stroke="#8F8F8F" stroke-width="0.3994" stroke-miterlimit="10" width="1.681" height="14.571"/>
<rect x="40.903" y="52.561" transform="matrix(0.0046 -1 1 0.0046 -22.655 105.5744)" fill="#8F8F8F" stroke="#8F8F8F" stroke-width="0.3994" stroke-miterlimit="10" width="1.601" height="23.211"/>
<path fill="none" stroke="#8F8F8F" stroke-width="2.0205" stroke-miterlimit="10" d="M55.127,51.806
	c-0.022,3.022-2.889,5.451-6.403,5.425L32.182,57.11c-3.514-0.026-6.345-2.496-6.323-5.518l0.152-20.791
	c0.022-3.022,2.889-5.451,6.403-5.425l16.543,0.121c3.514,0.026,6.345,2.496,6.323,5.518L55.127,51.806z"/>
<rect x="52.469" y="56.883" transform="matrix(0.9221 -0.387 0.387 0.9221 -20.6791 25.6304)" fill="#8F8F8F" stroke="#8F8F8F" stroke-width="0.3994" stroke-miterlimit="10" width="1.681" height="14.571"/>
<rect x="22.355" y="9.679" transform="matrix(-1 0.0094 -0.0094 -1 46.569 23.2886)" fill="#8F8F8F" width="1.75" height="4.149"/>
<rect x="32.541" y="21.275" transform="matrix(-0.0287 -0.9996 0.9996 -0.0287 11.0355 57.4224)" fill="#8F8F8F" width="1.75" height="4.149"/>
<rect x="22.354" y="30.586" transform="matrix(-1 0.0094 -0.0094 -1 46.7644 65.1015)" fill="#8F8F8F" width="1.75" height="4.149"/>
<rect x="12.182" y="20.326" transform="matrix(-0.0268 -0.9996 0.9996 -0.0268 -8.9858 36.0532)" fill="#8F8F8F" width="1.75" height="4.149"/>
<circle fill="none" stroke="#8F8F8F" stroke-width="1.4205" stroke-miterlimit="10" cx="23.229" cy="21.934" r="8.641"/>
<circle fill="#8F8F8F" cx="23.229" cy="21.934" r="4.143"/>
<circle fill="#8F8F8F" cx="48.505" cy="49.47" r="2.608"/>
</svg>
