<?xml version="1.0" encoding="utf-8"?>
<!-- Generator: Adobe Illustrator 16.0.0, SVG Export Plug-In . SVG Version: 6.00 Build 0)  -->
<!DOCTYPE svg PUBLIC "-//W3C//DTD SVG 1.1//EN" "http://www.w3.org/Graphics/SVG/1.1/DTD/svg11.dtd">
<svg version="1.1" id="Layer_1" xmlns="http://www.w3.org/2000/svg" xmlns:xlink="http://www.w3.org/1999/xlink" x="0px" y="0px"
	 width="80px" height="80px" viewBox="0 0 80 80" enable-background="new 0 0 80 80" xml:space="preserve">
<g>
	<path fill="#8F8F8F" d="M40.003,24.206c-8.369,0-15.153,6.496-15.153,14.515c0,9.522,6.61,11.947,6.61,17.488
		c0,1.37,1.042,2.644,2.617,3.585c-0.326,0.269-0.512,0.569-0.512,0.883c0,0.423,0.332,0.819,0.903,1.158
		c-0.532,0.333-0.846,0.71-0.846,1.12s0.321,0.8,0.865,1.133c-0.556,0.333-0.882,0.724-0.882,1.139c0,0.512,0.479,0.979,1.279,1.356
		c-0.307,0.282-0.487,0.596-0.487,0.922c0,0.966,1.511,1.791,3.635,2.124c0.37,0.691,1.133,1.172,2.015,1.172
		c0.884,0,1.64-0.48,2.011-1.165c2.144-0.326,3.673-1.158,3.673-2.131c0-0.32-0.173-0.634-0.473-0.908
		c0.818-0.385,1.305-0.852,1.305-1.364c0-0.416-0.313-0.799-0.863-1.132c0.557-0.34,0.883-0.729,0.883-1.146
		c0-0.422-0.333-0.813-0.903-1.151c0.539-0.333,0.846-0.718,0.846-1.12c0-0.326-0.199-0.64-0.551-0.915
		c1.55-0.935,2.579-2.195,2.579-3.56c0-5.541,6.605-7.966,6.605-17.483C55.158,30.702,48.374,24.206,40.003,24.206L40.003,24.206z
		 M47.913,47.704c-1.51,2.221-3.219,4.724-3.321,8.174c-0.519,0.575-2.368,1.516-4.582,1.516c-2.222,0-4.069-0.94-4.589-1.522
		c-0.108-3.443-1.816-5.951-3.328-8.167c-1.688-2.469-3.283-4.806-3.283-8.983c0-5.817,5.023-10.553,11.192-10.553
		c6.17,0,11.187,4.736,11.187,10.553C51.189,42.898,49.597,45.235,47.913,47.704L47.913,47.704z M47.913,47.704"/>
	<path fill="#8F8F8F" d="M40.003,19.113c1.089,0,1.983-1.178,1.983-2.619v-4.67c0-1.446-0.895-2.625-1.983-2.625
		c-1.094,0-1.983,1.178-1.983,2.625v4.67C38.02,17.935,38.909,19.113,40.003,19.113L40.003,19.113z M40.003,19.113"/>
	<path fill="#8F8F8F" d="M29.841,21.838c0.947-0.55,1.126-2.017,0.403-3.263l-2.329-4.045c-0.722-1.248-2.085-1.823-3.032-1.279
		c-0.942,0.544-1.127,2.015-0.405,3.264l2.336,4.044C27.531,21.806,28.894,22.382,29.841,21.838L29.841,21.838z M29.841,21.838"/>
	<path fill="#8F8F8F" d="M21.125,26.248l-4.045-2.337c-1.248-0.722-2.719-0.537-3.263,0.405c-0.544,0.947,0.031,2.31,1.279,3.026
		l4.045,2.335c1.246,0.723,2.712,0.544,3.257-0.403C22.942,28.328,22.372,26.965,21.125,26.248L21.125,26.248z M21.125,26.248"/>
	<path fill="#8F8F8F" d="M64.91,51.525l-4.045-2.336c-1.248-0.723-2.72-0.537-3.263,0.409c-0.545,0.941,0.031,2.305,1.279,3.027
		l4.045,2.336c1.248,0.717,2.713,0.538,3.264-0.41C66.733,53.605,66.158,52.248,64.91,51.525L64.91,51.525z M64.91,51.525"/>
	<path fill="#8F8F8F" d="M19.678,39.437c0-1.094-1.177-1.983-2.618-1.983h-4.67c-1.447,0-2.625,0.89-2.625,1.983
		c0,1.089,1.177,1.983,2.625,1.983h4.67C18.501,41.42,19.678,40.525,19.678,39.437L19.678,39.437z M19.678,39.437"/>
	<path fill="#8F8F8F" d="M67.616,37.453h-4.671c-1.44,0-2.623,0.89-2.623,1.983c0,1.089,1.183,1.983,2.623,1.983h4.671
		c1.44,0,2.618-0.895,2.618-1.983C70.234,38.343,69.057,37.453,67.616,37.453L67.616,37.453z M67.616,37.453"/>
	<path fill="#8F8F8F" d="M19.142,49.189l-4.045,2.336c-1.249,0.723-1.823,2.08-1.279,3.026c0.544,0.948,2.009,1.127,3.263,0.41
		l4.039-2.336c1.252-0.723,1.822-2.086,1.279-3.027C21.854,48.652,20.388,48.467,19.142,49.189L19.142,49.189z M19.142,49.189"/>
	<path fill="#8F8F8F" d="M60.865,29.677l4.045-2.335c1.248-0.716,1.823-2.079,1.28-3.026c-0.551-0.942-2.016-1.127-3.264-0.405
		l-4.045,2.337c-1.248,0.717-1.824,2.081-1.279,3.027C58.146,30.222,59.617,30.4,60.865,29.677L60.865,29.677z M60.865,29.677"/>
	<path fill="#8F8F8F" d="M55.118,13.251c-0.946-0.544-2.31,0.031-3.026,1.279l-2.336,4.045c-0.723,1.246-0.537,2.712,0.409,3.257
		c0.941,0.55,2.305-0.026,3.027-1.273l2.336-4.052C56.245,15.26,56.066,13.795,55.118,13.251L55.118,13.251z M55.118,13.251"/>
</g>
</svg>
