<?xml version="1.0" encoding="utf-8"?>
<!-- Generator: Adobe Illustrator 17.0.0, SVG Export Plug-In . SVG Version: 6.00 Build 0)  -->
<!DOCTYPE svg PUBLIC "-//W3C//DTD SVG 1.1//EN" "http://www.w3.org/Graphics/SVG/1.1/DTD/svg11.dtd">
<svg version="1.1" id="Layer_1" xmlns="http://www.w3.org/2000/svg" xmlns:xlink="http://www.w3.org/1999/xlink" x="0px" y="0px"
	 width="80px" height="80px" viewBox="0 0 80 80" enable-background="new 0 0 80 80" xml:space="preserve">
<g>
	<path fill="#8F8F8F" d="M40,15.482c-13.587,0-24.61,11.014-24.61,24.61c0,9.794,5.742,18.216,14.022,22.178l0.766-14.877
		c0,0-1.452-0.481-1.762-0.631c-3.073-1.354-5.306-5.343-5.306-10.517c0-5.634,4.372-10.496,8.609-10.542h0.018
		c4.228,0.045,8.609,4.907,8.609,10.542c0,5.174-2.234,9.163-5.306,10.517c-0.027,0.007-1.78,0.65-1.78,0.65l0.864,16.543
		c1.887,0.463,3.845,0.739,5.876,0.739c2.742,0,5.368-0.463,7.825-1.292l0.766-14.743c-2.01-0.447-3.72-1.719-4.798-3.33
		c-1.336-1.985,1.023-19.625,1.023-19.625h1.532v16.552h1.523V25.702h1.655v16.552h1.523V25.702h1.719v16.552h1.523V25.702h1.176
		c0,0,2.35,17.639,1.023,19.634c-1.069,1.584-2.76,2.856-4.745,3.312c-0.034,0.009-0.062,0.025-0.062,0.025l0.659,12.68
		c7.328-4.255,12.269-12.171,12.269-21.261C64.6,26.495,53.587,15.482,40,15.482L40,15.482z M40,15.482"/>
	<path fill="#8F8F8F" d="M26.707,33.753c0.089-0.367,0.212-0.704,0.212-0.713c0.036-0.135-0.034-0.267-0.178-0.356
		c-0.132-0.071-0.31-0.036-0.383,0.08c0,0-0.169,0.267-0.417,0.668c-0.196,0.337-0.49,0.882-0.686,1.566
		c-0.178,0.588-0.383,1.381-0.481,2.27c-0.036,0.465-0.043,0.882-0.036,1.311c0.036,0.497,0.116,0.916,0.26,1.397
		c0.481,1.379,0.855,2.705,2.2,4.016c0.417,0.435,0.855,0.739,1.174,0.953l0.107,0.08c0.071,0.043,0.134,0.089,0.196,0.125
		c0.267,0.132,0.444,0.187,0.481,0.194c0.125,0.036,0.267-0.025,0.321-0.132c0.052-0.116,0.016-0.258-0.098-0.346
		c0,0-0.153-0.134-0.349-0.383c-0.132-0.153-0.285-0.367-0.454-0.615c-0.116-0.178-0.258-0.374-0.392-0.57
		c-0.65-0.996-1.033-2.386-1.548-3.82c-0.107-0.31-0.189-0.711-0.223-1.051c-0.036-0.392-0.064-0.775-0.064-1.121
		c-0.007-0.818,0.027-1.523,0.098-2.092C26.529,34.571,26.591,34.09,26.707,33.753L26.707,33.753z M26.707,33.753"/>
	<path fill="#8F8F8F" d="M40,10.914c-16.09,0-29.177,13.088-29.177,29.177C10.823,56.17,23.91,69.269,40,69.269
		c16.087,0,29.177-13.099,29.177-29.177C69.177,24.002,56.087,10.914,40,10.914L40,10.914z M40,67.087
		c-14.886,0-27.005-12.11-27.005-26.996c0-14.886,12.119-27.005,27.005-27.005s26.996,12.119,26.996,27.005
		C66.996,54.977,54.886,67.087,40,67.087L40,67.087z M40,67.087"/>
</g>
</svg>
