<?xml version="1.0" encoding="utf-8"?>
<!-- Generator: Adobe Illustrator 16.0.0, SVG Export Plug-In . SVG Version: 6.00 Build 0)  -->
<!DOCTYPE svg PUBLIC "-//W3C//DTD SVG 1.1//EN" "http://www.w3.org/Graphics/SVG/1.1/DTD/svg11.dtd">
<svg version="1.1" id="Layer_1" xmlns="http://www.w3.org/2000/svg" xmlns:xlink="http://www.w3.org/1999/xlink" x="0px" y="0px"
	 width="80px" height="80px" viewBox="0 0 80 80" enable-background="new 0 0 80 80" xml:space="preserve">
<g>
	<g>
		<g>
			<path fill="#8F8F8F" d="M67.162,30.126c-0.457-1.206-1.805-1.814-3.012-1.357c-1.205,0.456-1.813,1.805-1.356,3.011
				c2.245,5.93,2.104,12.403-0.396,18.233c-2.565,5.982-7.308,10.607-13.354,13.023C43,65.453,36.377,65.371,30.394,62.805
				c-1.735-0.744-3.354-1.67-4.84-2.758c-3.639-2.666-6.47-6.303-8.186-10.595C14.953,43.407,15.034,36.784,17.6,30.8
				c2.566-5.983,7.309-10.608,13.354-13.025c5.784-2.312,12.098-2.33,17.873-0.079l-1.655,2.795
				c-0.455,0.768-0.105,1.28,0.775,1.138l7.863-1.269c0.881-0.142,1.358-0.947,1.059-1.788l-2.668-7.505
				c-0.299-0.841-0.915-0.901-1.369-0.133l-1.596,2.695c-7.074-2.971-14.884-3.041-22.017-0.19
				c-7.203,2.88-12.854,8.391-15.913,15.521c-3.057,7.129-3.156,15.022-0.276,22.228c2.044,5.114,5.418,9.448,9.755,12.625
				c1.769,1.297,3.7,2.4,5.767,3.287c7.129,3.057,15.023,3.155,22.226,0.276c7.205-2.879,12.855-8.392,15.912-15.522
				C69.67,44.909,69.837,37.192,67.162,30.126L67.162,30.126z"/>
		</g>
	</g>
	<path fill="#8F8F8F" d="M38.973,21.757c-1.044,0-1.891,0.846-1.891,1.891v18.841l17.232,8.907c0.277,0.145,0.574,0.213,0.867,0.211
		c0.685,0,1.344-0.371,1.68-1.022c0.479-0.928,0.117-2.067-0.812-2.548l-15.185-7.85V23.648
		C40.863,22.603,40.018,21.757,38.973,21.757L38.973,21.757z"/>
</g>
</svg>
