<?xml version="1.0" encoding="utf-8"?>
<!-- Generator: Adobe Illustrator 17.0.0, SVG Export Plug-In . SVG Version: 6.00 Build 0)  -->
<!DOCTYPE svg PUBLIC "-//W3C//DTD SVG 1.1//EN" "http://www.w3.org/Graphics/SVG/1.1/DTD/svg11.dtd">
<svg version="1.1" id="Layer_1" xmlns="http://www.w3.org/2000/svg" xmlns:xlink="http://www.w3.org/1999/xlink" x="0px" y="0px"
	 width="80px" height="80px" viewBox="0 0 80 80" enable-background="new 0 0 80 80" xml:space="preserve">
<g>
	<g>
		<path fill="#8F8F8F" d="M45.845,46.074c-0.019-0.229-0.081-0.454-0.195-0.67L31.587,18.551c-0.416-0.788-1.358-1.166-2.216-0.881
			c-0.861,0.285-1.38,1.146-1.219,2.024l5.389,29.727c0.043,0.235,0.132,0.447,0.256,0.639c0.052,0.256,0.115,0.508,0.201,0.76
			c0.881,2.547,3.308,4.272,6.043,4.285c0.709,0.003,1.408-0.108,2.084-0.333c1.622-0.536,2.934-1.665,3.693-3.173
			c0.76-1.507,0.875-3.214,0.329-4.808C46.061,46.542,45.958,46.303,45.845,46.074L45.845,46.074z M40.215,19.668
			c-1.011-0.005-1.835,0.797-1.839,1.788c-0.005,0.994,0.811,1.804,1.822,1.809c14.595,0.07,26.413,11.794,26.344,26.134
			c-0.005,0.994,0.811,1.8,1.826,1.805c1.011,0.005,1.835-0.793,1.839-1.788C70.285,33.091,56.829,19.748,40.215,19.668
			L40.215,19.668z M21.245,26.149c-7.142,5.62-11.264,13.994-11.307,22.976c-0.005,0.994,0.811,1.804,1.822,1.809
			c1.015,0.005,1.838-0.797,1.843-1.791c0.038-7.891,3.658-15.246,9.932-20.185c0.792-0.621,0.919-1.752,0.288-2.528
			C23.192,25.655,22.038,25.529,21.245,26.149L21.245,26.149z M21.245,26.149"/>
	</g>
</g>
</svg>
