<?xml version="1.0" encoding="utf-8"?>
<!-- Generator: Adobe Illustrator 17.0.0, SVG Export Plug-In . SVG Version: 6.00 Build 0)  -->
<!DOCTYPE svg PUBLIC "-//W3C//DTD SVG 1.1//EN" "http://www.w3.org/Graphics/SVG/1.1/DTD/svg11.dtd">
<svg version="1.1" id="Layer_1" xmlns="http://www.w3.org/2000/svg" xmlns:xlink="http://www.w3.org/1999/xlink" x="0px" y="0px"
	 width="80px" height="80px" viewBox="0 0 80 80" enable-background="new 0 0 80 80" xml:space="preserve">
<path fill="#8F8F8F" d="M23.987,28.941c0,0-2.198-12.029,12.878-11.137c13.779-0.681,12.713,11.325,12.713,11.325"/>
<circle fill="#8F8F8F" cx="26.943" cy="42.098" r="3.069"/>
<circle fill="#8F8F8F" cx="46.529" cy="42.098" r="3.069"/>
<rect x="20.886" y="51.454" transform="matrix(-0.9221 -0.387 0.387 -0.9221 18.6904 125.3281)" fill="#8F8F8F" stroke="#8F8F8F" stroke-width="0.5114" stroke-miterlimit="10" width="2.152" height="18.657"/>
<rect x="36.803" y="46.038" transform="matrix(0.0046 -1 1 0.0046 -23.2436 98.445)" fill="#8F8F8F" stroke="#8F8F8F" stroke-width="0.5114" stroke-miterlimit="10" width="2.05" height="29.719"/>
<path fill="none" stroke="#8F8F8F" stroke-width="2.587" stroke-miterlimit="10" d="M55.015,45.071
	c-0.028,3.869-3.699,6.979-8.198,6.946l-21.18-0.155c-4.499-0.033-8.124-3.196-8.096-7.065l0.195-26.62
	c0.028-3.869,3.699-6.979,8.198-6.946l21.181,0.155c4.499,0.033,8.124,3.196,8.096,7.065L55.015,45.071z"/>
<rect x="51.613" y="51.572" transform="matrix(0.9221 -0.387 0.387 0.9221 -19.4626 25.1353)" fill="#8F8F8F" stroke="#8F8F8F" stroke-width="0.5114" stroke-miterlimit="10" width="2.152" height="18.657"/>
<circle fill="#8F8F8F" cx="46.537" cy="42.08" r="3.339"/>
</svg>
