<?xml version="1.0" encoding="utf-8"?>
<!-- Generator: Adobe Illustrator 16.0.0, SVG Export Plug-In . SVG Version: 6.00 Build 0)  -->
<!DOCTYPE svg PUBLIC "-//W3C//DTD SVG 1.1//EN" "http://www.w3.org/Graphics/SVG/1.1/DTD/svg11.dtd">
<svg version="1.1" id="Layer_1" xmlns="http://www.w3.org/2000/svg" xmlns:xlink="http://www.w3.org/1999/xlink" x="0px" y="0px"
	 width="80px" height="80px" viewBox="0 0 80 80" enable-background="new 0 0 80 80" xml:space="preserve">
<g>
	<path fill="#8F8F8F" d="M60.336,54.002c-2.574,0-4.878,1.01-6.634,2.604L29.525,42.541c0.174-0.777,0.309-1.562,0.309-2.373
		c0-0.811-0.138-1.594-0.309-2.375l23.905-13.93c1.822,1.688,4.233,2.744,6.906,2.744c5.636,0,10.177-4.533,10.177-10.168
		c0-5.625-4.544-10.168-10.177-10.168c-5.625,0-10.168,4.543-10.168,10.166c0,0.821,0.138,1.592,0.31,2.375L26.573,32.75
		c-1.826-1.696-4.234-2.749-6.911-2.749c-5.635,0-10.176,4.541-10.176,10.166c0,5.623,4.542,10.168,10.176,10.168
		c2.673,0,5.084-1.057,6.908-2.744l24.133,14.096c-0.165,0.715-0.269,1.465-0.269,2.209c0,5.459,4.447,9.898,9.897,9.898
		c5.455,0,9.906-4.438,9.906-9.898S65.793,54.002,60.336,54.002L60.336,54.002z M60.336,54.002"/>
</g>
</svg>
