<?xml version="1.0" encoding="utf-8"?>
<!-- Generator: Adobe Illustrator 17.0.0, SVG Export Plug-In . SVG Version: 6.00 Build 0)  -->
<!DOCTYPE svg PUBLIC "-//W3C//DTD SVG 1.1//EN" "http://www.w3.org/Graphics/SVG/1.1/DTD/svg11.dtd">
<svg version="1.1" id="Layer_1" xmlns="http://www.w3.org/2000/svg" xmlns:xlink="http://www.w3.org/1999/xlink" x="0px" y="0px"
	 width="80px" height="80px" viewBox="0 0 80 80" enable-background="new 0 0 80 80" xml:space="preserve">
<g>
	<path fill="#8F8F8F" d="M67.761,61.396L55.699,49.335c2.907-4.199,4.361-8.876,4.361-14.033c0-3.353-0.651-6.559-1.952-9.619
		c-1.302-3.058-3.06-5.697-5.275-7.912c-2.215-2.215-4.852-3.975-7.912-5.276c-3.06-1.3-6.266-1.952-9.619-1.952
		s-6.559,0.651-9.619,1.952c-3.058,1.3-5.697,3.06-7.912,5.276c-2.215,2.215-3.975,4.854-5.276,7.912
		c-1.3,3.06-1.952,6.266-1.952,9.619c0,3.353,0.651,6.557,1.952,9.617c1.3,3.06,3.06,5.697,5.276,7.912
		c2.215,2.217,4.854,3.975,7.912,5.277c3.06,1.3,6.266,1.952,9.619,1.952c5.157,0,9.836-1.454,14.033-4.363l12.062,12.028
		c0.843,0.89,1.897,1.336,3.163,1.336c1.22,0,2.276-0.447,3.166-1.336c0.892-0.891,1.336-1.947,1.336-3.166
		C69.062,63.318,68.63,62.262,67.761,61.396L67.761,61.396z M46.432,46.432c-3.084,3.083-6.793,4.624-11.131,4.624
		s-8.047-1.543-11.131-4.624c-3.084-3.084-4.624-6.793-4.624-11.131s1.54-8.049,4.624-11.131c3.084-3.084,6.793-4.625,11.131-4.625
		s8.047,1.541,11.131,4.625c3.083,3.081,4.626,6.793,4.626,11.131S49.515,43.349,46.432,46.432L46.432,46.432z M46.432,46.432"/>
</g>
</svg>
