<?xml version="1.0" encoding="utf-8"?>
<!-- Generator: Adobe Illustrator 17.0.0, SVG Export Plug-In . SVG Version: 6.00 Build 0)  -->
<!DOCTYPE svg PUBLIC "-//W3C//DTD SVG 1.1//EN" "http://www.w3.org/Graphics/SVG/1.1/DTD/svg11.dtd">
<svg version="1.1" id="Layer_1" xmlns="http://www.w3.org/2000/svg" xmlns:xlink="http://www.w3.org/1999/xlink" x="0px" y="0px"
	 width="80px" height="80px" viewBox="0 0 80 80" enable-background="new 0 0 80 80" xml:space="preserve">
<path fill-rule="evenodd" clip-rule="evenodd" fill="#8F8F8F" d="M19.635,22.644h37.137v26.355H19.635V22.644z"/>
<path fill-rule="evenodd" clip-rule="evenodd" fill="#8F8F8F" d="M62.761,14.258h1.198c1.323,0,2.396,1.073,2.396,2.396V65.77
	c0,1.323-1.073,2.396-2.396,2.396h-1.198c-1.323,0-2.396-1.073-2.396-2.396V16.654C60.365,15.33,61.438,14.258,62.761,14.258z"/>
<path fill-rule="evenodd" clip-rule="evenodd" fill="#8F8F8F" d="M14.843,14.258h49.116c1.323,0,2.396,1.073,2.396,2.396v1.198
	c0,1.323-1.073,2.396-2.396,2.396H14.843c-1.323,0-2.396-1.073-2.396-2.396v-1.198C12.447,15.33,13.52,14.258,14.843,14.258z"/>
<path fill-rule="evenodd" clip-rule="evenodd" fill="#8F8F8F" d="M13.645,14.258h1.198c1.323,0,2.396,1.073,2.396,2.396V65.77
	c0,1.323-1.073,2.396-2.396,2.396h-1.198c-1.323,0-2.396-1.073-2.396-2.396V16.654C11.249,15.33,12.322,14.258,13.645,14.258z"/>
</svg>
