<?xml version="1.0" encoding="utf-8"?>
<!-- Generator: Adobe Illustrator 16.0.0, SVG Export Plug-In . SVG Version: 6.00 Build 0)  -->
<!DOCTYPE svg PUBLIC "-//W3C//DTD SVG 1.1//EN" "http://www.w3.org/Graphics/SVG/1.1/DTD/svg11.dtd">
<svg version="1.1" id="Layer_1" xmlns="http://www.w3.org/2000/svg" xmlns:xlink="http://www.w3.org/1999/xlink" x="0px" y="0px"
	 width="80px" height="80px" viewBox="0 0 80 80" enable-background="new 0 0 80 80" xml:space="preserve">
<g>
	<g>
		<g>
			<path fill="#8F8F8F" d="M36.004,40.868c0.788-0.573,1.171-1.552,0.974-2.512l-1.654-8.04l6.068-5.532
				c0.717-0.661,0.984-1.679,0.685-2.608c-0.304-0.928-1.119-1.596-2.092-1.705l-8.159-0.908l-3.385-7.473
				c-0.4-0.891-1.289-1.464-2.263-1.464c-0.974,0-1.864,0.573-2.265,1.464l-3.39,7.473l-8.16,0.908
				c-0.966,0.109-1.78,0.777-2.086,1.705c-0.298,0.93-0.031,1.947,0.694,2.608l6.062,5.532l-1.654,8.04
				c-0.197,0.954,0.184,1.939,0.974,2.512c0.788,0.571,1.845,0.628,2.69,0.151l7.136-4.064l7.136,4.064
				C34.159,41.503,35.216,41.439,36.004,40.868L36.004,40.868z"/>
		</g>
	</g>
	<path fill="#8F8F8F" d="M68.783,32.67c-0.191-0.593-0.713-1.018-1.335-1.088l-5.218-0.58l-2.162-4.782
		c-0.254-0.567-0.826-0.936-1.448-0.936c-0.624,0-1.19,0.37-1.444,0.936l-2.169,4.782l-5.215,0.58
		c-0.617,0.07-1.138,0.495-1.337,1.088c-0.189,0.598-0.018,1.246,0.445,1.666l3.873,3.536l-1.057,5.146
		c-0.127,0.61,0.116,1.233,0.624,1.602c0.503,0.37,1.177,0.406,1.718,0.096l4.562-2.595l4.565,2.595
		c0.541,0.311,1.215,0.274,1.717-0.096c0.504-0.361,0.744-0.992,0.625-1.602l-1.063-5.146l3.88-3.536
		C68.809,33.916,68.98,33.268,68.783,32.67L68.783,32.67z"/>
	<path fill="#8F8F8F" d="M49.372,54.225l-6.036-0.675l-2.506-5.541c-0.301-0.653-0.954-1.081-1.679-1.081
		c-0.726,0-1.381,0.428-1.68,1.081l-2.506,5.541l-6.036,0.675c-0.718,0.076-1.322,0.571-1.545,1.258
		c-0.23,0.688-0.026,1.438,0.51,1.929l4.489,4.095l-1.228,5.954c-0.145,0.705,0.134,1.438,0.72,1.856
		c0.585,0.427,1.368,0.471,1.996,0.115l5.28-3.009l5.285,3.009c0.625,0.355,1.405,0.312,1.99-0.115
		c0.586-0.418,0.866-1.151,0.721-1.856l-1.229-5.954l4.49-4.095c0.533-0.49,0.738-1.241,0.514-1.929
		C50.701,54.795,50.09,54.3,49.372,54.225L49.372,54.225z"/>
</g>
</svg>
