<?xml version="1.0" encoding="utf-8"?>
<!-- Generator: Adobe Illustrator 17.0.0, SVG Export Plug-In . SVG Version: 6.00 Build 0)  -->
<!DOCTYPE svg PUBLIC "-//W3C//DTD SVG 1.1//EN" "http://www.w3.org/Graphics/SVG/1.1/DTD/svg11.dtd">
<svg version="1.1" id="Layer_1" xmlns="http://www.w3.org/2000/svg" xmlns:xlink="http://www.w3.org/1999/xlink" x="0px" y="0px"
	 width="80px" height="80px" viewBox="0 0 80 80" enable-background="new 0 0 80 80" xml:space="preserve">
<path fill-rule="evenodd" clip-rule="evenodd" fill="#8F8F8F" d="M24.438,42.139h6.897c0.544,0,0.985,0.441,0.985,0.985v6.897
	c0,0.544-0.441,0.985-0.985,0.985h-6.897c-0.544,0-0.985-0.441-0.985-0.985v-6.897C23.453,42.581,23.894,42.139,24.438,42.139z"/>
<path fill-rule="evenodd" clip-rule="evenodd" fill="#8F8F8F" d="M38.231,28.346h6.897c0.544,0,0.985,0.441,0.985,0.985v6.897
	c0,0.544-0.441,0.985-0.985,0.985h-6.897c-0.544,0-0.985-0.441-0.985-0.985v-6.897C37.246,28.787,37.688,28.346,38.231,28.346z"/>
<path fill-rule="evenodd" clip-rule="evenodd" fill="#8F8F8F" d="M24.438,28.346h6.897c0.544,0,0.985,0.441,0.985,0.985v6.897
	c0,0.544-0.441,0.985-0.985,0.985h-6.897c-0.544,0-0.985-0.441-0.985-0.985v-6.897C23.453,28.787,23.894,28.346,24.438,28.346z"/>
<path fill-rule="evenodd" clip-rule="evenodd" fill="none" stroke="#8F8F8F" stroke-width="4.1051" stroke-miterlimit="10" d="
	M19.512,17.508h38.424c4.353,0,7.882,3.529,7.882,7.882v29.557c0,4.353-3.529,7.882-7.882,7.882H19.512
	c-4.353,0-7.882-3.529-7.882-7.882V25.39C11.63,21.037,15.159,17.508,19.512,17.508z"/>
</svg>
