<?xml version="1.0" encoding="utf-8"?>
<!-- Generator: Adobe Illustrator 16.0.0, SVG Export Plug-In . SVG Version: 6.00 Build 0)  -->
<!DOCTYPE svg PUBLIC "-//W3C//DTD SVG 1.1//EN" "http://www.w3.org/Graphics/SVG/1.1/DTD/svg11.dtd">
<svg version="1.1" id="Layer_1" xmlns="http://www.w3.org/2000/svg" xmlns:xlink="http://www.w3.org/1999/xlink" x="0px" y="0px"
	 width="80px" height="80px" viewBox="0 0 80 80" enable-background="new 0 0 80 80" xml:space="preserve">
<g>
	<path fill="#767676" d="M42.609,44.162v-1.309c0-1.596-1.291-2.878-2.883-2.878c-1.594,0-2.879,1.284-2.879,2.878v1.309
		c0,1.588,1.285,2.879,2.879,2.879C41.318,47.041,42.609,45.75,42.609,44.162L42.609,44.162z"/>
	<g>
		<g>
			<g>
				<path fill="#767676" d="M45.066,45.516c-0.648,2.119-2.602,3.678-4.928,3.678c-2.329,0-4.281-1.559-4.93-3.678H15.082
					c-1.268,0-2.467-0.297-3.544-0.811v13.367c0,2.607,2.131,4.744,4.743,4.744h47.713c2.611,0,4.742-2.137,4.742-4.744V44.711
					c-1.077,0.509-2.275,0.805-3.545,0.805H45.066z"/>
			</g>
		</g>
		<g>
			<g>
				<path fill="#767676" d="M64.996,21.514H53.604c-0.684-4.297-4.414-7.599-8.9-7.599h-9.128c-4.49,0-8.219,3.302-8.908,7.599
					H15.279c-2.716,0-4.94,2.138-4.94,4.749V37.21c0,2.624,2.126,4.749,4.743,4.749h19.907c0.064-1.367,0.654-2.595,1.581-3.48
					c0.024-0.03,0.058-0.047,0.087-0.076c0.209-0.185,0.423-0.365,0.654-0.522c0.082-0.052,0.179-0.092,0.267-0.144
					c0.191-0.111,0.383-0.227,0.586-0.307c0.162-0.07,0.341-0.111,0.509-0.157c0.151-0.046,0.291-0.104,0.44-0.133
					c0.331-0.07,0.678-0.104,1.026-0.104c0.353,0,0.694,0.034,1.025,0.104c0.15,0.03,0.289,0.087,0.439,0.133
					c0.168,0.046,0.342,0.088,0.504,0.157c0.209,0.086,0.398,0.196,0.591,0.307c0.087,0.052,0.179,0.092,0.267,0.144
					c0.23,0.157,0.446,0.337,0.648,0.522c0.029,0.028,0.062,0.046,0.093,0.076c0.927,0.891,1.511,2.113,1.581,3.48h19.906
					c2.619,0,4.744-2.125,4.744-4.743V26.263C69.936,23.652,67.712,21.514,64.996,21.514L64.996,21.514z M31.236,21.514
					c0.608-1.824,2.31-3.157,4.338-3.157h9.128c2.026,0,3.729,1.333,4.338,3.157H31.236z"/>
			</g>
		</g>
	</g>
</g>
</svg>
