<?xml version="1.0" encoding="utf-8"?>
<!-- Generator: Adobe Illustrator 17.0.0, SVG Export Plug-In . SVG Version: 6.00 Build 0)  -->
<!DOCTYPE svg PUBLIC "-//W3C//DTD SVG 1.1//EN" "http://www.w3.org/Graphics/SVG/1.1/DTD/svg11.dtd">
<svg version="1.1" id="Layer_1" xmlns="http://www.w3.org/2000/svg" xmlns:xlink="http://www.w3.org/1999/xlink" x="0px" y="0px"
	 width="80px" height="80px" viewBox="0 0 80 80" enable-background="new 0 0 80 80" xml:space="preserve">
<g>
	<path fill="#8F8F8F" d="M20.729,9.876c-4.243-0.134-7.804,3.357-7.939,7.783c-0.051,1.686,0.402,3.319,1.31,4.725l0.193,0.302
		l5.279,8.308c0.116,0.172,0.303,0.278,0.505,0.284c0.201,0.006,0.395-0.087,0.521-0.252l5.703-7.865l0.281-0.381
		c0.993-1.348,1.545-2.95,1.597-4.636C28.313,13.719,24.971,10.01,20.729,9.876z M20.402,20.577
		c-1.415-0.045-2.528-1.281-2.483-2.756c0.045-1.475,1.232-2.639,2.646-2.594c1.414,0.045,2.528,1.281,2.483,2.756
		C23.003,19.458,21.817,20.621,20.402,20.577z"/>
</g>
<path fill="#8F8F8F" d="M28.276,36.741c0,0-1.85-10.119,10.834-9.369c11.591-0.573,10.695,9.527,10.695,9.527"/>
<circle fill="#8F8F8F" cx="30.763" cy="47.809" r="2.581"/>
<circle fill="#8F8F8F" cx="47.24" cy="47.809" r="2.581"/>
<rect x="25.671" y="55.678" transform="matrix(0.9221 0.387 -0.387 0.9221 26.6517 -5.3349)" fill="#8F8F8F" stroke="#8F8F8F" stroke-width="0.4302" stroke-miterlimit="10" width="1.81" height="15.695"/>
<rect x="39.058" y="51.123" transform="matrix(-0.0046 1 -1 -0.0046 103.7264 23.9959)" fill="#8F8F8F" stroke="#8F8F8F" stroke-width="0.4302" stroke-miterlimit="10" width="1.725" height="25.001"/>
<path fill="none" stroke="#8F8F8F" stroke-width="2.1762" stroke-miterlimit="10" d="M54.378,50.31
	c-0.024,3.255-3.111,5.871-6.896,5.843l-17.818-0.131c-3.785-0.028-6.834-2.689-6.81-5.943l0.164-22.394
	c0.024-3.255,3.111-5.871,6.896-5.843l17.818,0.131c3.785,0.028,6.834,2.689,6.81,5.943L54.378,50.31z"/>
<rect x="51.519" y="55.776" transform="matrix(-0.9221 0.387 -0.387 -0.9221 125.3844 102.0044)" fill="#8F8F8F" stroke="#8F8F8F" stroke-width="0.4302" stroke-miterlimit="10" width="1.81" height="15.695"/>
</svg>
