<?xml version="1.0" encoding="utf-8"?>
<!-- Generator: Adobe Illustrator 17.0.0, SVG Export Plug-In . SVG Version: 6.00 Build 0)  -->
<!DOCTYPE svg PUBLIC "-//W3C//DTD SVG 1.1//EN" "http://www.w3.org/Graphics/SVG/1.1/DTD/svg11.dtd">
<svg version="1.1" id="Layer_1" xmlns="http://www.w3.org/2000/svg" xmlns:xlink="http://www.w3.org/1999/xlink" x="0px" y="0px"
	 width="80px" height="80px" viewBox="0 0 80 80" enable-background="new 0 0 80 80" xml:space="preserve">
<g>
	<path fill="#8F8F8F" d="M31.112,38.768c5.877,0.094,10.77-5.045,10.872-11.44c0.102-6.38-4.625-11.687-10.502-11.781
		c-5.86-0.093-10.754,5.06-10.855,11.44C20.525,33.382,25.252,38.674,31.112,38.768L31.112,38.768z M31.02,44.582
		c-7.205-0.115-21.401,3.431-21.526,11.27l-0.093,5.814l42.698,0.681l0.093-5.814C52.317,48.693,38.228,44.697,31.02,44.582
		L31.02,44.582z M31.02,44.582"/>
	<g>
		<g>
			
				<path fill-rule="evenodd" clip-rule="evenodd" fill="#8F8F8F" stroke="#FFFFFF" stroke-width="1.1513" stroke-miterlimit="10" d="
				M70.457,49.781c-0.052-0.354-0.456-0.602-0.796-0.585c-1.1,0.055-2.103-0.577-2.554-1.609c-0.46-1.058-0.241-2.329,0.548-3.163
				c0.248-0.262,0.263-0.68,0.036-0.958c-0.593-0.725-1.259-1.374-1.982-1.929c-0.283-0.217-0.683-0.165-0.909,0.124
				c-0.682,0.871-1.955,1.246-2.966,0.859c-1.051-0.407-1.747-1.478-1.73-2.666c0.006-0.373-0.265-0.684-0.618-0.71
				c-0.901-0.065-1.806-0.022-2.701,0.128c-0.346,0.058-0.592,0.387-0.565,0.754c0.085,1.172-0.532,2.289-1.537,2.782
				c-0.965,0.472-2.253,0.228-3-0.565c-0.247-0.261-0.643-0.275-0.909-0.035c-0.696,0.631-1.323,1.345-1.862,2.121
				c-0.21,0.302-0.161,0.721,0.11,0.958c0.867,0.756,1.187,2.011,0.796,3.124c-0.373,1.061-1.371,1.783-2.544,1.841
				c-0.381,0.006-0.641,0.289-0.669,0.656c-0.068,0.956-0.031,1.925,0.108,2.878c0.052,0.355,0.468,0.6,0.812,0.583
				c1.044-0.081,2.074,0.551,2.538,1.61c0.462,1.058,0.242,2.328-0.548,3.163c-0.247,0.262-0.263,0.679-0.035,0.957
				c0.587,0.721,1.254,1.37,1.979,1.93c0.284,0.22,0.683,0.167,0.911-0.122c0.685-0.873,1.958-1.248,2.964-0.859
				c1.054,0.405,1.749,1.477,1.733,2.665c-0.006,0.373,0.266,0.685,0.618,0.71c0.461,0.034,0.924,0.039,1.386,0.015
				c0.439-0.022,0.877-0.069,1.315-0.143c0.346-0.058,0.592-0.387,0.565-0.755c-0.086-1.171,0.532-2.289,1.536-2.781
				c0.971-0.475,2.254-0.227,3.001,0.564c0.248,0.26,0.641,0.274,0.909,0.035c0.694-0.63,1.321-1.343,1.862-2.121
				c0.21-0.301,0.162-0.721-0.11-0.958c-0.867-0.756-1.188-2.011-0.797-3.123c0.367-1.047,1.327-1.785,2.388-1.839l0.148-0.003
				c0.346,0.012,0.651-0.283,0.678-0.656C70.634,51.703,70.597,50.735,70.457,49.781L70.457,49.781z M58.771,56.031
				c-2.208,0.111-4.078-1.693-4.17-4.02c-0.092-2.328,1.629-4.311,3.837-4.422c2.208-0.111,4.079,1.693,4.17,4.021
				C62.7,53.937,60.979,55.92,58.771,56.031L58.771,56.031z M58.771,56.031"/>
		</g>
	</g>
</g>
</svg>
